<?xml version="1.0" standalone="no"?>
<!DOCTYPE svg PUBLIC "-//W3C//DTD SVG 1.1//EN" "http://www.w3.org/Graphics/SVG/1.1/DTD/svg11.dtd" >
<svg xmlns="http://www.w3.org/2000/svg" xmlns:xlink="http://www.w3.org/1999/xlink" version="1.1">
<metadata>
Created by FontForge 20170731 at Fri Apr 29 11:32:27 2022
 By Aleksey,,,
Copyright (c) 2015 by Ellis Design. All rights reserved.
</metadata>
<defs>
<font id="SVN-Athene" horiz-adv-x="1662" >
  <font-face 
    font-family="SVN-Athene"
    font-weight="400"
    font-stretch="normal"
    units-per-em="2048"
    panose-1="2 0 0 0 0 0 0 0 0 0"
    ascent="1638"
    descent="-410"
    x-height="1022"
    cap-height="1745"
    bbox="-219 -1976 2370 2529"
    underline-thickness="102"
    underline-position="-307"
    unicode-range="U+0020-2026"
  />
<missing-glyph horiz-adv-x="1024" 
 />
    <glyph glyph-name=".notdef" horiz-adv-x="1024" 
 />
    <glyph glyph-name=".null" horiz-adv-x="0" 
 />
    <glyph glyph-name="nonmarkingreturn" horiz-adv-x="682" 
 />
    <glyph glyph-name="space" unicode=" " horiz-adv-x="575" 
 />
    <glyph glyph-name="space" unicode="&#xa0;" horiz-adv-x="575" 
 />
    <glyph glyph-name="exclam" unicode="!" horiz-adv-x="360" 
d="M182 219q45 0 78 -32t33 -78q0 -44 -33.5 -76.5t-77.5 -32.5q-47 0 -78.5 32t-31.5 77q0 47 31.5 78.5t78.5 31.5zM293 1315q0 -28 -55 -533q-8 -71 -27 -233t-29 -254q-33 256 -55 487q-55 505 -55 533q0 47 31.5 78.5t78.5 31.5q45 0 78 -32t33 -78z" />
    <glyph glyph-name="numbersign" unicode="#" horiz-adv-x="2084" 
d="M1935 915h-514l-213 -413h459v-15h-465l-252 -489h-18l250 489h-533l-252 -489h-18l252 489h-492v15h498l213 413h-440v15h448l254 495h21l-256 -495h534l254 495h21l-256 -495h505v-15zM1190 502l213 413h-533l-213 -413h533z" />
    <glyph glyph-name="dollar" unicode="$" horiz-adv-x="1595" 
d="M831 -133h-30v162q-378 23 -600 276q-33 36 -33 88q0 57 38 95t93 38q56 0 95.5 -38.5t39.5 -94.5q0 -62 -49 -103.5t-109 -29.5q196 -184 525 -207v674q-35 15 -120 49t-120 51q-60 29 -104 54t-98 65t-88 80.5t-57.5 96.5t-23.5 118q5 88 43 166t98.5 136t137.5 100.5
t162 65t170 24.5v147h30v-147q155 -5 288 -64.5t220 -167.5v64h23v-162h-23v53q-79 113 -215 182.5t-293 73.5v-663l293 -123q63 -27 121 -64t111 -87t82.5 -115t23.5 -134q-6 -143 -102.5 -261.5t-261.5 -184.5q-125 -51 -267 -51v-162zM1208 408q-4 50 -37 96t-90 84.5
t-116 67.5t-134 59v-664q82 0 151.5 21t124 62.5t82 112t19.5 161.5zM444 1323q14 -37 43.5 -72t62.5 -59t63.5 -43t50.5 -28l20 -9l117 -51v651q-112 -11 -183 -31q-47 -15 -84 -48t-58.5 -73t-33.5 -83.5t-11 -83.5t13 -70z" />
    <glyph glyph-name="uni0025" unicode="%" horiz-adv-x="1617" 
d="M1184 1444h18l-741 -1444h-21zM766 1118q0 -139 -90 -232t-225 -93q-122 0 -217 91.5t-95 223.5q0 112 70.5 203.5t177.5 103.5q95 12 181 -19.5t142 -104.5t56 -173zM451 803q43 0 73.5 32.5t44.5 84t19.5 95.5t5.5 87q0 40 -4.5 82t-17 92.5t-39.5 87.5t-66 47
q-16 3 -25 0q-35 -10 -61.5 -45t-40.5 -83t-20.5 -94t-6.5 -87q0 -299 138 -299zM1499 317q0 -139 -90 -232t-225 -93q-122 0 -217 91.5t-95 223.5q0 112 69.5 199.5t178.5 107.5q87 17 174.5 -15.5t146 -108.5t58.5 -173zM1184 2q43 0 73.5 32.5t44.5 84t19.5 95.5t5.5 87
q0 40 -4.5 82t-17 92.5t-39.5 87.5t-66 47q-12 3 -24 0q-35 -10 -61.5 -45t-40.5 -83t-20.5 -94t-6.5 -87q0 -299 137 -299z" />
    <glyph glyph-name="ampersand" unicode="&#x26;" horiz-adv-x="1716" 
d="M1532 23h41v-23h-338v23h45l-152 202q-132 -215 -403 -221q-111 0 -211 44t-170.5 117.5t-112 171.5t-41.5 204q0 178 95.5 309.5t261.5 185.5l-80 115q-46 65 -59 156q-7 45 -5 73q0 143 96.5 251t254.5 108q137 -5 233 -102.5t96 -233.5q0 -133 -91 -231.5t-222 -106.5
l428 -586q4 4 4 96v30.5v33.5v43h-37v23h95v-23h-39q0 -86 -0.5 -139t-1 -71t-0.5 -21zM1067 1403q0 134 -93 229.5t-226 91.5q-65 0 -108.5 -58.5t-54.5 -137t5 -162t57 -129.5l113 -156q129 4 218 98.5t89 223.5zM721 25q129 0 230 57t165 162l-530 739q-36 -34 -64 -119
t-42.5 -191t-9 -221t30 -209.5t81.5 -156t139 -61.5z" />
    <glyph glyph-name="parenleft" unicode="(" horiz-adv-x="643" 
d="M510 20l-8 -14q-104 50 -189 183.5t-133.5 317t-48.5 376.5q0 196 48.5 379.5t133.5 316t189 182.5l8 -14q-67 -34 -131.5 -110.5t-117 -185t-84.5 -257.5t-32 -311q0 -160 32 -308.5t84.5 -257.5t117 -186t131.5 -111z" />
    <glyph glyph-name="parenright" unicode=")" horiz-adv-x="616" 
d="M139 6l-8 14q67 34 130.5 110t115.5 184.5t83.5 256t31.5 306.5q0 160 -31.5 308t-84 256t-115.5 184t-130 110l8 14q159 -78 264 -327t105 -545q0 -295 -105 -544t-264 -327z" />
    <glyph glyph-name="asterisk" unicode="*" horiz-adv-x="645" 
d="M518 1231v-17h-184l129 -129l-10 -10l-129 129v-184h-17v184l-129 -129l-12 10l131 129h-184v17h184l-131 131l12 10l129 -131v184h17v-184l129 131l10 -10l-129 -131h184z" />
    <glyph glyph-name="plus" unicode="+" horiz-adv-x="1329" 
d="M633 524v416h26v-416h404v-26h-404v-416h-26v416h-410v26h410z" />
    <glyph glyph-name="comma" unicode="," horiz-adv-x="481" 
d="M195 162q25 36 72.5 44t86.5 -20q41 -26 49 -72t-22 -83q-23 -35 -170 -144q-48 -37 -143 -102q6 21 24.5 81t26.5 89q53 172 76 207z" />
    <glyph glyph-name="hyphen" unicode="-" horiz-adv-x="851" 
d="M799 608h-738v19h738v-19z" />
    <glyph glyph-name="period" unicode="." horiz-adv-x="362" 
d="M180 233q49 0 83 -35t34 -83q0 -51 -33.5 -84t-83.5 -33q-48 0 -83.5 33.5t-35.5 83.5q0 47 36 82.5t83 35.5z" />
    <glyph glyph-name="slash" unicode="/" horiz-adv-x="1208" 
d="M1028 1729h23l-887 -1729h-25z" />
    <glyph glyph-name="zero" unicode="0" horiz-adv-x="1423" 
d="M725 18q47 2 85 20t62.5 45t43 66.5t28 76.5t15 85t7 82t1.5 76v782l-467 -790q0 -84 11 -156t35 -137t70 -104.5t109 -45.5zM725 1731q-53 0 -94.5 -33.5t-65.5 -82t-39.5 -110.5t-20.5 -112t-5 -93v-800l467 788q-14 443 -242 443zM725 1749q131 0 251 -55.5
t197.5 -158.5t77.5 -226v-852q0 -106 -48 -195t-124.5 -145t-168.5 -86.5t-185 -30.5q-127 0 -240.5 55.5t-187.5 157.5t-82 225v871q0 79 30 149.5t80.5 121.5t116 89.5t138 58t145.5 21.5z" />
    <glyph glyph-name="one" unicode="1" horiz-adv-x="622" 
d="M473 1737v-1717h59v-20h-395v20h62l2 1377l-58 -70l-22 21l330 389h22z" />
    <glyph glyph-name="two" unicode="2" horiz-adv-x="1257" 
d="M633 1741q99 0 195.5 -41.5t170 -111.5t119 -169t45.5 -207q0 -61 -11.5 -115.5t-30.5 -98.5t-51.5 -84.5t-64.5 -71.5t-79 -62t-87.5 -53.5t-97.5 -48t-100.5 -43t-105.5 -41.5q-7 -2 -10.5 -3.5t-9.5 -4t-11 -4.5q-135 -55 -212 -136t-106 -155h942v33h17v-35v-289
h-1045q0 95 22.5 180t58 148.5t84.5 117.5t97 90t101 62q6 6 34 21.5t62.5 37.5t77.5 56t82 85t72 115.5t53 157.5t20 201q0 60 -6.5 119t-23.5 120.5t-42.5 108.5t-66.5 76.5t-92 29.5q-57 0 -101 -36.5t-69 -89.5t-41 -122.5t-21.5 -127t-5.5 -111.5q0 -76 -41.5 -123
t-103.5 -47t-106 41.5t-44 101.5q-3 134 70 256.5t198 197.5t265 75z" />
    <glyph glyph-name="three" unicode="3" horiz-adv-x="1230" 
d="M614 1733q67 0 137.5 -19t135.5 -57t116.5 -89.5t82 -122t30.5 -149.5q0 -152 -108.5 -271t-288.5 -155q174 -32 285.5 -153t111.5 -273q0 -98 -41 -180t-109.5 -136t-156.5 -85t-184 -35q-197 0 -334 105q-83 61 -129.5 147.5t-46.5 183.5q0 58 40 100t99 42t100 -42
t41 -100q0 -33 4.5 -73.5t10 -68t13 -64.5t9.5 -48q1 -2 8.5 -23t12.5 -32t18.5 -31.5t27.5 -33t38 -25.5t53 -18q125 -24 195 113q64 127 56 320q-8 192 -82 306q-59 92 -145 92h-90v-31h-22v82h22v-26h90q67 0 119.5 60t80 150.5t32.5 196.5t-14 198t-70 155.5t-125 68.5
q-54 0 -97 -23.5t-69.5 -61t-44 -88.5t-24.5 -101.5t-7 -104.5q0 -77 -34 -127.5t-107 -50.5q-60 0 -99.5 40.5t-39.5 100.5q0 124 73.5 224t186.5 154t239 59z" />
    <glyph glyph-name="four" unicode="4" horiz-adv-x="1398" 
d="M979 1720v-24h-59l-539 -1133h506v645h-60v25h390v-25h-60v-645h121v-26h-121v-508h60v-27h-390v27h60v508h-795l553 1159h-55v24h389z" />
    <glyph glyph-name="five" unicode="5" horiz-adv-x="1384" 
d="M1188 1737v-314h-25v25h-899v-453q78 81 186.5 130t227.5 49q148 0 282.5 -78t218 -215t83.5 -295q0 -148 -79.5 -283t-215 -218t-289.5 -83q-147 0 -281 75t-218.5 208.5t-84.5 289.5q0 54 34 97t83 49q34 3 61 -6q42 -12 69.5 -47.5t27.5 -81.5q0 -55 -41 -94t-97 -39
q-71 0 -106 59q25 -208 182.5 -346.5t370.5 -138.5q65 0 114.5 42t77 102.5t44.5 140.5t22.5 142.5t5.5 120.5q0 92 -12 182t-37.5 176.5t-73.5 145t-112 70.5q-148 0 -254.5 -52.5t-214.5 -160.5v801h950z" />
    <glyph glyph-name="six" unicode="6" horiz-adv-x="1255" 
d="M627 12q34 0 64.5 17t50 41t34 48t20.5 41l7 17q23 61 39 160.5t17.5 214t-14.5 215.5t-64 170t-124 74q-64 0 -112 -30.5t-76.5 -78t-46 -115t-23.5 -131t-6 -135.5q0 -86 11 -168t35.5 -162t73 -129t114.5 -49zM1133 1722l6 -8q-81 -47 -151.5 -97.5t-122.5 -96.5
t-99.5 -101.5t-79.5 -99t-65.5 -103t-53.5 -99.5t-49 -101q111 26 224.5 -5t200 -101.5t141.5 -177t55 -222.5q0 -181 -117.5 -322t-308.5 -182q-41 -8 -86 -8q-48 0 -107 10q-154 32 -253.5 131t-132.5 236.5t-3 296.5q31 139 91 265t138.5 227t160.5 179.5t175 145.5
q203 145 437 233z" />
    <glyph glyph-name="seven" unicode="7" horiz-adv-x="1609" 
d="M1470 1751l-880 -1724h63v-25h-463v25h72l883 1693h-930v-32h-25v63h1280z" />
    <glyph glyph-name="eight" unicode="8" horiz-adv-x="1273" 
d="M625 25q72 0 126 56.5t79.5 142.5t28 189.5t-19 196.5t-72.5 163.5t-122 90.5q-110 15 -182 -118q-69 -128 -71 -316q-2 -196 72 -310q62 -95 161 -95zM625 883q45 0 81.5 18t60 50t40.5 70t25.5 83.5t12 84t3.5 77.5q0 438 -201 456q-98 7 -164 -77.5t-80.5 -209t0 -250
t75.5 -214t147 -88.5zM625 1743q61 0 128.5 -16t134.5 -50t121 -81t87.5 -115t33.5 -146q-5 -173 -105.5 -297t-293.5 -164h4q167 -32 277 -148.5t118 -266.5q-5 -142 -80.5 -247.5t-188.5 -156.5t-243 -51q-95 -8 -187.5 27.5t-159.5 98t-108.5 146t-41.5 168.5
q0 153 111 273t288 157q-182 36 -290.5 155t-108.5 274q0 123 72.5 223.5t187 156t244.5 60.5z" />
    <glyph glyph-name="nine" unicode="9" horiz-adv-x="1296" 
d="M659 1724q-35 -1 -66 -18t-51 -41t-34.5 -48t-20.5 -41l-6 -17q-25 -60 -42 -160.5t-17.5 -215.5t16.5 -217.5t66 -172t125 -74.5q64 0 113 30.5t77.5 78.5t46 115.5t23.5 131t6 135.5q0 88 -11.5 171.5t-37 164t-74 129.5t-113.5 49zM150 -2l-9 8q82 48 153 100
t123 97.5t100.5 102.5t80 99.5t67 104t55 99t50.5 102.5q-111 -26 -226 5t-203 102.5t-144 178.5t-56 224q0 185 118.5 328t311.5 182q36 8 88 8q48 0 107 -10q154 -32 254.5 -132t134.5 -239t4 -299q-108 -484 -569 -823q-209 -152 -440 -238z" />
    <glyph glyph-name="colon" unicode=":" horiz-adv-x="360" 
d="M180 233q49 0 83 -35t34 -83q0 -51 -33.5 -84t-83.5 -33q-48 0 -83.5 33.5t-35.5 83.5q0 47 36 82.5t83 35.5zM180 1024q49 0 83 -35.5t34 -83.5q0 -51 -33.5 -84t-83.5 -33q-48 0 -83.5 33.5t-35.5 83.5q0 47 36 83t83 36z" />
    <glyph glyph-name="semicolon" unicode=";" horiz-adv-x="468" 
d="M109 -1958l-11 -18l-6 4l10 18zM111 -1927q0 -4 -5 -4q-6 0 -6 4q0 6 6 6q5 0 5 -6zM276 1026q49 0 83 -35.5t34 -83.5q0 -51 -33.5 -83.5t-83.5 -32.5q-48 0 -83 33t-35 83q0 47 35.5 83t82.5 36zM195 365q25 36 72.5 44t86.5 -20q41 -26 49 -72.5t-22 -83.5
q-22 -33 -170 -143q-48 -37 -143 -102q6 21 24.5 81t26.5 89q53 172 76 207z" />
    <glyph glyph-name="less" unicode="&#x3c;" horiz-adv-x="958" 
d="M143 498l617 432l-2 -17l-592 -415l586 -410v-16z" />
    <glyph glyph-name="equal" unicode="=" horiz-adv-x="872" 
d="M61 664v18h738v-18h-738zM61 457v20h738v-20h-738z" />
    <glyph glyph-name="greater" unicode="&#x3e;" horiz-adv-x="860" 
d="M756 514l-602 -422l2 17l577 405l-571 401v15z" />
    <glyph glyph-name="question" unicode="?" horiz-adv-x="983" 
d="M389 217q47 0 79 -32t32 -79t-32 -78.5t-79 -31.5t-78.5 31.5t-31.5 78.5t31.5 79t78.5 32zM436 1430q89 0 164.5 -31.5t127 -83.5t85 -121t43.5 -142.5t-4.5 -148.5t-51.5 -139t-103.5 -114.5t-155.5 -74.5q-26 -8 -44 -17.5t-43 -30.5t-38 -59t-13 -91v-98h-20v98
q0 12 2 28t8.5 49.5t26 64t49.5 48.5q37 22 71.5 94t57.5 165t29 195.5t-8 188t-61 141.5t-122 56q-116 0 -211 -59q47 0 79 -32t32 -79q0 -48 -32 -81.5t-81 -33.5q-47 0 -78.5 32t-31.5 79q0 46 34.5 85.5t86.5 62.5t105.5 36t96.5 13z" />
    <glyph glyph-name="at" unicode="@" horiz-adv-x="1689" 
d="M848 1427q145 0 277.5 -56.5t228.5 -152.5t152.5 -228t56.5 -277q0 -229 -133 -414q-23 -35 -58 -63q-76 -64 -143 -64q-63 0 -107.5 44.5t-44.5 107.5v100q-119 -125 -297 -125q-105 0 -198 52.5t-150 147t-57 206.5q0 162 120 284.5t285 122.5q176 0 297 -127v127h-37
v14h283v-14h-37v-799q0 -84 37 -84q24 0 59 35q21 21 31 35q135 176 135 414q0 142 -55.5 271.5t-149.5 223.5t-223.5 149.5t-271.5 55.5q-189 0 -350.5 -94t-256 -255.5t-94.5 -350.5q0 -142 56 -271.5t150 -223.5t223.5 -150t271.5 -56v-14q-145 0 -277 56.5t-228 152.5
t-153 228.5t-57 277.5q0 193 96 357.5t261 260.5t358 96zM1077 444v521q-56 64 -133 99.5t-164 35.5q-57 0 -100 -57.5t-63 -144.5t-22 -188.5t14.5 -189t55 -147t91.5 -62.5q202 0 321 133z" />
    <glyph glyph-name="A" unicode="A" 
d="M1473 23h53v-23h-424v23h49l-168 524h-543l-194 -527h49v-20h-121v20h49l631 1729zM446 567h533l-250 768z" />
    <glyph glyph-name="B" unicode="B" horiz-adv-x="1499" 
d="M901 891q175 0 306 -136t139 -319q-12 -184 -147 -309t-325 -125h-718v21h61v1693h-61v21h637q81 -6 159 -39t141.5 -86.5t102.5 -133t39 -169.5q0 -142 -94.5 -262t-239.5 -156zM492 1716v-825h278q68 16 117 76t71.5 141.5t22.5 176.5t-22 180.5t-71 154t-116 96.5
h-280zM846 23q78 32 133.5 100t79.5 150t21.5 175t-31 175t-88 149.5t-140.5 99.5h-329v-849h354z" />
    <glyph glyph-name="C" unicode="C" horiz-adv-x="1622" 
d="M1466 203h19v-86h-19v30q-136 -82 -249.5 -115.5t-231.5 -33.5q-171 0 -328 68t-272.5 183.5t-187.5 276.5t-80 340q0 226 113.5 425.5t306.5 318.5q131 68 243 100.5t214.5 30.5t193.5 -27.5t196 -77.5q42 -12 68.5 -48t26.5 -83q0 -57 -40.5 -97t-97.5 -40t-98 40
t-41 97q0 53 34 91t83 46q-128 60 -242.5 75.5t-204.5 -9.5t-165 -82t-128.5 -139.5t-90.5 -184t-54.5 -213.5t-17.5 -231q0 -86 6.5 -165t23.5 -165t44 -158t71 -138t102 -112t140.5 -73t181.5 -27q243 0 481 152v31z" />
    <glyph glyph-name="D" unicode="D" horiz-adv-x="1703" 
d="M756 1741q169 -8 320 -79.5t260.5 -187.5t176.5 -274t76 -334q-3 -226 -113 -419t-299.5 -312t-418.5 -135h-637v23h61v1695h-61v23h635zM727 23q99 -2 180 24t138 70.5t101 110.5t70.5 138t43 159.5t22.5 167.5t6 169q0 93 -4.5 169t-19 163.5t-38.5 155.5t-66 135.5
t-98.5 113.5t-139 78t-185.5 41h-282v-1695h272z" />
    <glyph glyph-name="E" unicode="E" horiz-adv-x="1224" 
d="M125 1745h975v-66h-17v43h-624v-852h514v31h20v-84h-20v29h-514v-826h624v48h17v-70h-975v22h59v1702h-59v23z" />
    <glyph glyph-name="F" unicode="F" horiz-adv-x="1257" 
d="M125 1729h967v-64h-19v41h-616v-844h508v29h18v-84h-18v33h-508v-817h53v-23h-385v23h59v1683h-59v23z" />
    <glyph glyph-name="G" unicode="G" horiz-adv-x="1640" 
d="M1174 854h337v-633q-110 -95 -254 -147q-132 -48 -270 -49.5t-261 38t-233 117.5t-191 181.5t-131 237t-56 278.5v4q6 109 38.5 215.5t86.5 201t131 175.5t168.5 139.5t203 91.5t230.5 33q40 0 95.5 -6.5t125.5 -23t128 -41t98 -66t40 -91.5q0 -55 -40 -95t-95 -40
q-59 0 -99 39.5t-40 95.5q0 53 34 90.5t83 45.5q-153 69 -330 69q-102 0 -184.5 -26.5t-140 -70.5t-101 -109.5t-69.5 -136t-41.5 -159t-21 -168.5t-5.5 -174q0 -74 2.5 -132.5t12 -136.5t26 -139.5t46.5 -128.5t71 -116.5t103.5 -90.5t139.5 -63q115 -18 162 -18
q132 0 266 43v746h-65v20z" />
    <glyph glyph-name="H" unicode="H" horiz-adv-x="1650" 
d="M1468 1720v-1697h62v-21h-397v21h63v806h-682v-806h59v-21h-393v21h60v1697h-60v21h60h274h59v-21h-59v-868h682v868h-63v21h63h272h62v-21h-62z" />
    <glyph glyph-name="I" unicode="I" horiz-adv-x="675" 
d="M481 1724v-1704h60v-20h-396v20h60v1704h-60v21h396v-21h-60z" />
    <glyph glyph-name="J" unicode="J" horiz-adv-x="796" 
d="M338 1747h340v-21h-45v-1390q0 -139 -77 -237.5t-185 -98.5q-96 0 -170 84t-86 209l14 2q10 -78 44 -126t77 -48q50 0 90.5 66t40.5 153v1386h-43v21z" />
    <glyph glyph-name="K" unicode="K" horiz-adv-x="1529" 
d="M1366 20h43v-20h-387v20h41l-555 744l-70 -80v-666h51v-18h-374v18h49v1708h-49v21h374v-21h-51v-1003l856 1010h-47v16h119v-16h-37l-653 -775z" />
    <glyph glyph-name="L" unicode="L" horiz-adv-x="1294" 
d="M1151 78v-76v0h-983v21h59v1695h-59v21h59h275h59v-21h-59v-1695h631v55h18z" />
    <glyph glyph-name="M" unicode="M" horiz-adv-x="1890" 
d="M1688 1724v-1701h61v-23h-395v23h61v1675l-608 -1663l-582 1624v-1639h54v-20h-132v20h56v1698v6h-51v19h413v-19h-51l416 -1288l471 1288h-47v19h395v-19h-61z" />
    <glyph glyph-name="N" unicode="N" horiz-adv-x="1546" 
d="M1280 1737h129v-17h-53v-1718h-23l-1104 1675v-1659h54v-16h-131v16h55l-6 1698h-49v21h409v-21h-51l823 -1198v1202h-53v17z" />
    <glyph glyph-name="O" unicode="O" horiz-adv-x="2045" 
d="M1880 866q0 -135 -44 -265.5t-125 -238t-187.5 -189.5t-238.5 -127.5t-271 -45.5q-168 0 -326 67t-276 181t-190.5 274.5t-74.5 337.5v6q0 170 69.5 329.5t185.5 277.5t277 189t335 71q166 0 324.5 -68.5t277.5 -183.5t191.5 -276.5t72.5 -338.5zM1014 23q103 0 187 25
t142.5 66.5t102 105t69.5 132.5t41.5 157t21 169t5.5 178q0 91 -4 166t-18.5 166.5t-38.5 162t-67.5 140.5t-102 116t-145 74.5t-193.5 28.5q-104 0 -188.5 -27t-143 -72t-102 -112.5t-68.5 -139t-40.5 -161.5t-20.5 -169t-5 -173q0 -87 4.5 -160.5t19.5 -161.5t39.5 -158
t68 -138t101.5 -113.5t143.5 -73.5t191.5 -28z" />
    <glyph glyph-name="P" unicode="P" horiz-adv-x="1376" 
d="M774 893q73 32 123 95t71.5 139.5t19.5 163.5t-26 166.5t-72.5 149.5t-113.5 111h-274v-825h272zM803 1737q121 -2 214 -51.5t140 -128t67 -172t-5.5 -186t-77 -168t-148.5 -120t-219 -39.5h-272v-849h47v-23h-381v23h59v1695h-59v19h635z" />
    <glyph glyph-name="Q" unicode="Q" horiz-adv-x="2017" 
d="M1882 868v-2q0 -201 -89.5 -380t-254.5 -308q-13 -13 -37 -26.5t-31 -20.5l-28 -14q-200 -115 -426 -115q7 -34 38.5 -57t60.5 -31t50 -8q65 0 187.5 48t191.5 48q58 0 120 -27t110.5 -73.5t79 -102t28.5 -120t-43 -119.5l-12 10q30 44 24.5 88.5t-30 79t-70.5 52
t-96 7.5q-176 -70 -227.5 -87t-94.5 -17q-128 0 -232.5 96t-109.5 213q-167 0 -320 70t-264.5 187.5t-181 276t-78.5 330.5v2q-7 137 38 270.5t130 241t195.5 189.5t242.5 126t263 42q163 0 320.5 -69.5t277.5 -185.5t194 -278t74 -336zM1016 25q102 0 184.5 25t140 66.5
t100.5 106t68.5 132.5t42 157.5t23 169t8.5 178.5q5 70 1 144t-11.5 147t-28 143t-48.5 132.5t-73.5 115t-101.5 90.5t-134 59t-171 21q-105 0 -189.5 -27t-143 -71.5t-102.5 -112t-69 -138t-40.5 -160.5t-20.5 -169.5t-5 -173.5q0 -93 4.5 -167t18.5 -161t38.5 -153.5
t67.5 -132t102 -110t145 -74.5t194 -37z" />
    <glyph glyph-name="R" unicode="R" horiz-adv-x="1622" 
d="M1452 51l12 -20q-55 -25 -110 -25q-42 0 -88 12q-174 51 -240 203q-29 73 -29 139l2 86q0 312 -256 431h-219v-844h56v-23h-390v23h60v1685h-60v21h605q86 -6 167.5 -37t150 -83t110 -133t41.5 -177q0 -150 -100.5 -266.5t-256.5 -153.5q156 -37 257.5 -159.5
t101.5 -274.5l2 -203q0 -13 4 -36t15 -53.5t27 -56.5t43 -44.5t60 -18.5q22 0 35 8zM799 1718h-275v-821h260q72 30 123 93.5t74.5 141t24.5 165.5t-21.5 167.5t-70.5 148t-115 105.5z" />
    <glyph glyph-name="S" unicode="S" horiz-adv-x="1622" 
d="M1147 920q64 -27 123.5 -65t113 -89t83.5 -117.5t24 -136.5q-5 -148 -104 -269.5t-269 -187.5q-139 -53 -276 -53q-191 8 -356.5 78t-284.5 205q-33 36 -33 90q0 59 39 98t96 39q58 0 97.5 -39t39.5 -98q0 -62 -50 -104.5t-111 -30.5q207 -192 563 -215q85 0 157.5 21.5
t128 64t83.5 114t20 164.5q-3 46 -30.5 88.5t-73.5 78t-100.5 66t-119.5 59t-122 51t-117.5 47t-96.5 42.5q-61 29 -107.5 54.5t-101 65.5t-89.5 81.5t-59 99t-24 121.5q6 112 66 209t152 160t203 99t220 36q162 0 303 -62t232 -176v64h23v-164h-23v55q-80 119 -224 189.5
t-311 70.5q-100 0 -202 -30q-47 -17 -85 -51t-60 -75t-34 -85t-11.5 -85.5t12.5 -72.5q15 -37 45.5 -72.5t63 -60t64.5 -44t51 -29t21 -9.5z" />
    <glyph glyph-name="T" unicode="T" horiz-adv-x="1773" 
d="M154 1739h1474v-84h-18v63h-574v-1695h64v-23h-410v23h62v1695h-580v-63h-18v84z" />
    <glyph glyph-name="U" unicode="U" horiz-adv-x="1562" 
d="M793 23q235 0 392 153t177 406h22q0 -245 -186 -424q-76 -75 -177 -116.5t-212 -41.5q-157 0 -284.5 80.5t-200 213.5t-84.5 292v1134h-76v25h428v-25h-80v-1196q10 -167 96 -342q87 -148 185 -159zM1436 1745v-23h-52v-1140h-22v1140h-49v23h123z" />
    <glyph glyph-name="V" unicode="V" horiz-adv-x="1589" 
d="M1352 1737h118v-21h-49l-624 -1716l-619 1716h-51v23h422v-23h-53l424 -1304l479 1304h-47v21z" />
    <glyph glyph-name="W" unicode="W" horiz-adv-x="2476" 
d="M1714 2h-18l8 25zM2251 1735h119v-19h-50l-616 -1689l-457 1269l-473 -1294l-616 1714h-52v21h422v-21h-53l424 -1306l336 921l-137 385h-70v21h420v-2v-19h-49l-2 -6l424 -1300l475 1306h-45v19z" />
    <glyph glyph-name="X" unicode="X" horiz-adv-x="1433" 
d="M1245 23h58v-23h-48h-321h-55v23h45l-306 698l-395 -701h47v-20h-123v20h54l407 723l-424 977h-49v23h424v-23h-55l287 -657l372 659h-49v23h123v-23h-49l-387 -686z" />
    <glyph glyph-name="Y" unicode="Y" horiz-adv-x="1325" 
d="M1102 1749h96v-18h-39l-350 -857v-856h53v-18h-387v18h60v723l-400 990h-43v18h393v-18h-43l346 -857h3l348 857h-37v18z" />
    <glyph glyph-name="Z" unicode="Z" horiz-adv-x="1779" 
d="M1556 20v39h23v-59h-6h-1344l1065 1712h-1001v-37h-21v60h1370l-1067 -1715h981z" />
    <glyph glyph-name="bracketleft" unicode="[" horiz-adv-x="409" 
d="M307 1729h-157v-1715h157v-14h-174v1743h174v-14z" />
    <glyph glyph-name="backslash" unicode="\" horiz-adv-x="1196" 
d="M139 1739h23l895 -1739h-25z" />
    <glyph glyph-name="bracketright" unicode="]" horiz-adv-x="411" 
d="M266 1714h-143v15h158v-1729h-158v14h143v1700z" />
    <glyph glyph-name="asciicircum" unicode="^" horiz-adv-x="1191" 
d="M588 1430l432 -617l-16 2l-416 592l-410 -586h-16z" />
    <glyph glyph-name="underscore" unicode="_" horiz-adv-x="1273" 
d="M1143 4h-1043v19h1043v-19z" />
    <glyph glyph-name="grave" unicode="`" horiz-adv-x="667" 
d="M250 1427q40 -21 170 -141q59 -53 127 -121q-39 4 -174 19q-182 20 -219 37q-43 19 -59.5 62.5t3.5 86.5t67 60t85 -3z" />
    <glyph glyph-name="a" unicode="a" horiz-adv-x="1355" 
d="M969 186v652q-153 166 -373 166q-54 0 -96 -36.5t-66 -90.5t-40 -124t-21.5 -129.5t-5.5 -115.5q0 -41 0.5 -69.5t5 -84t13 -95.5t25.5 -88.5t40.5 -79.5t60.5 -52t84 -21q218 0 373 168zM1278 1006h-45v-986h45v-18h-354v18h45v140q-154 -160 -373 -160q-40 0 -98 10
q-186 44 -299 182.5t-113 317.5q0 180 115 320.5t293 177.5q66 14 102 14q107 0 203.5 -41.5t169.5 -116.5v142h-45v18h354v-18z" />
    <glyph glyph-name="b" unicode="b" horiz-adv-x="1429" 
d="M895 993q166 -38 281.5 -175.5t115.5 -317.5q0 -177 -106.5 -313t-278.5 -177v-4l-22 -2q-52 -10 -94 -10q-108 0 -203.5 41t-165.5 115v-134h41v-18h-346v18h41v1710h-41v19h346v-19h-41v-878q70 74 165.5 115t203.5 41q18 0 45 -3t38 -4zM1018 500q0 19 -0.5 42.5
t-5.5 74t-13 95.5t-25 97.5t-40 90t-60 62.5t-83 25q-108 0 -204 -43t-165 -121v-649q68 -75 165 -119.5t204 -44.5q58 0 104 47t71.5 122.5t38.5 157.5t13 163z" />
    <glyph glyph-name="c" unicode="c" horiz-adv-x="1148" 
d="M999 190v27h17v-94h-17v33q-66 -68 -157 -108t-191 -44h-18h-17.5h-15t-15.5 1t-15.5 2t-18.5 2.5t-19 3.5t-24 5q-169 40 -279 181t-110 317q0 181 113 322t290 182h2q55 10 109 10q195 0 336 -125q3 -1 4 -2t2.5 -3.5t3.5 -4.5q11 -11 22 -33q19 -29 19 -61
q0 -55 -39.5 -93t-95.5 -38q-55 0 -93 38t-38 93q0 57 38 96t93 39h6q-120 74 -258 74q-37 0 -67.5 -17.5t-52.5 -43.5t-39.5 -67.5t-28 -79t-18.5 -88t-11.5 -85.5t-5.5 -80.5t-2 -63v-43.5q0 -41 6 -90t22 -108.5t40 -107t65 -79.5t92 -32q108 0 202.5 44t163.5 121z" />
    <glyph glyph-name="d" unicode="d" horiz-adv-x="1406" 
d="M514 993l21 4q11 1 38 4t45 3q108 0 203.5 -41t165.5 -115v876h-41v19h346v-19h-41v-1708h41v-18h-346v18h41v134q-70 -74 -165.5 -115t-203.5 -41q-42 0 -94 10l-22 2v4q-172 41 -278.5 177t-106.5 313q0 176 112.5 316t284.5 177zM391 500q0 -81 13 -163t38.5 -157.5
t71.5 -122.5t104 -47q107 0 204 44.5t165 119.5v649q-69 78 -165 121t-204 43q-46 0 -83 -25t-60 -62.5t-40 -90t-25 -97.5t-13 -95.5t-5.5 -74t-0.5 -42.5z" />
    <glyph glyph-name="e" unicode="e" horiz-adv-x="1294" 
d="M1149 504h-281h-460q0 -37 1 -70.5t6.5 -85t14.5 -93.5t26.5 -88t41 -77t60 -51.5t81.5 -20.5q130 0 240.5 61t177.5 173h22q-73 -121 -188.5 -186.5t-251.5 -65.5q-67 0 -125 14q-172 41 -280.5 181t-108.5 319q0 181 118 323t310 181q21 0 31 2q36 4 55 4q39 0 86 -6
q147 -34 256 -129.5t149 -241.5q17 -57 19 -143zM408 520h458q0 211 -71 371q-52 105 -133 115h-23h-25q-17 -2 -33.5 -9t-29.5 -17t-24.5 -22.5t-20.5 -25.5t-16.5 -26t-12.5 -24t-8.5 -20t-5.5 -14l-2 -4q-41 -128 -53 -324z" />
    <glyph glyph-name="f" unicode="f" horiz-adv-x="851" 
d="M717 903h-17v41h-266v-926h43v-18h-352v18h43v1379h2q0 142 81.5 245t192.5 103q98 0 175.5 -87.5t89.5 -215.5l-15 -2q-11 78 -46 129t-79 51q-54 0 -94.5 -68t-40.5 -159v-432h266v38h17v-96z" />
    <glyph glyph-name="g" unicode="g" horiz-adv-x="1204" 
d="M850 938q103 -62 170 -175.5t67 -230.5v-20q0 -36 -4 -59q-21 -159 -131 -280t-268 -150q-64 -11 -98 -11q-36 0 -97 11q-105 24 -180 73q12 -42 52.5 -76.5t71 -48.5t56.5 -22l310 -105q24 -9 47.5 -20t59.5 -33.5t63 -48.5t50 -65t30 -83q0 -98 -68 -172.5t-197 -115.5
h-2q-98 -29 -196 -29q-99 0 -193.5 25.5t-159.5 75.5t-65 112q0 54 37.5 91.5t91.5 37.5t91.5 -37.5t37.5 -91.5t-36 -90.5t-87 -38.5q120 -68 283 -68q131 0 199.5 42t68.5 112q0 43 -28.5 69.5t-77.5 47.5l-353 119q-15 2 -50.5 18.5t-84 46t-88 81.5t-47.5 112
q0 132 113 215q-73 68 -112.5 160.5t-39.5 195.5q0 180 114 316.5t302 177.5q41 8 84 8q48 0 84 -8q74 -17 131 -41q86 57 207 57v-16q-108 0 -191 -50q9 0 33 -18zM762 186q49 143 49 320q0 197 -61 352q-17 48 -59.5 93.5t-104.5 45.5q-33 0 -62 -15t-48.5 -38.5
t-32 -44.5t-19.5 -41q-64 -180 -64 -354q0 -144 37 -271l5 -21q6 -20 12.5 -39.5t21.5 -47t33.5 -47.5t49.5 -34.5t67 -14.5q34 0 65 16t50.5 38.5t34 47t20.5 40.5t6 19v-4z" />
    <glyph glyph-name="h" unicode="h" horiz-adv-x="1257" 
d="M1141 20h49v-18h-334v18h45v625q-2 32 -8 68.5t-21 85t-36 86t-56 64t-78 26.5q-177 0 -301 -131v-826h43v-18h-348v18h43v1706h-43v19h348v-19h-43v-858q125 125 301 125q145 0 262 -88.5t154 -224.5q16 -51 19 -92v-5t0.5 -10t0.5 -18t0.5 -31.5t1 -48t0.5 -70.5
t0.5 -95.5t0.5 -127v-160.5z" />
    <glyph glyph-name="i" unicode="i" horiz-adv-x="524" 
d="M256 1174q-54 0 -92.5 37.5t-38.5 91.5t38.5 92.5t92.5 38.5t92.5 -38.5t38.5 -92.5t-38.5 -91.5t-92.5 -37.5zM387 1006v-988h47v-18h-356v18h47v988h-47v20h356v-20h-47z" />
    <glyph glyph-name="j" unicode="j" horiz-adv-x="794" 
d="M639 1307q0 -51 -36.5 -88t-90.5 -37t-90.5 37t-36.5 88q0 54 36.5 90.5t90.5 36.5t90.5 -36.5t36.5 -90.5zM385 1006v-1389q0 -88 -37.5 -152.5t-91.5 -64.5q-41 0 -74.5 49t-44.5 123l-14 -2q17 -124 88.5 -206.5t165.5 -82.5q108 0 185 96.5t77 235.5v1393h43v16h-336
v-16h39z" />
    <glyph glyph-name="k" unicode="k" horiz-adv-x="1230" 
d="M1090 20h40v-22h-366v22h41l-340 443l-64 -74v-373h50v-18h-357v18h49v1704h-49v21h357v-21h-50v-1292l500 578h-43v18h115v-18h-39l-311 -361z" />
    <glyph glyph-name="l" unicode="l" horiz-adv-x="591" 
d="M434 1722v-1702h47v-20h-354v20h47v1702h-47v19h354v-19h-47z" />
    <glyph glyph-name="m" unicode="m" horiz-adv-x="2125" 
d="M1991 14h49v-14h-346v14h47v592q-3 52 -13 109t-31.5 127.5t-64.5 116t-100 45.5q-120 0 -218 -59.5t-155 -160.5q52 -107 64 -233v-537h51v-14h-348v14h47v590q-3 52 -13 109t-31.5 127.5t-63.5 115.5t-99 45q-186 0 -315 -135v-852h47v-14h-365v14h45v990h-45v16h365
v-16h-47v-113q127 127 315 127q122 0 222.5 -58t158.5 -157q61 100 162.5 159.5t222.5 59.5q123 0 228 -66t165.5 -173t65.5 -230v-539z" />
    <glyph glyph-name="n" unicode="n" horiz-adv-x="1302" 
d="M1157 18h49v-18h-344v18h45v582q-2 31 -4 58.5t-8.5 70t-16 76.5t-25.5 71.5t-36 62.5t-50.5 41.5t-66.5 16.5q-91 0 -172 -35t-139 -96v-850h45v-16h-360v16h45v985h-45v21h360v-21h-45v-112q127 127 311 127q127 0 229.5 -63.5t161 -169.5t66.5 -234v-531z" />
    <glyph glyph-name="o" unicode="o" horiz-adv-x="1179" 
d="M1096 537q0 -228 -147.5 -381.5t-366.5 -153.5q-132 0 -250 67t-191 186.5t-73 260.5q0 181 114.5 324t292.5 180q16 4 60 8q140 11 269 -49.5t210.5 -179t81.5 -262.5zM582 20q57 0 101 36.5t67.5 89.5t38.5 123.5t19.5 127t4.5 111.5q0 65 -8 134t-27.5 152.5t-64 144
t-107.5 75.5q-19 3 -41 0q-56 -14 -99.5 -71.5t-67 -136t-35 -155t-11.5 -143.5v-11q-1 -477 230 -477z" />
    <glyph glyph-name="p" unicode="p" horiz-adv-x="1423" 
d="M911 1010q166 -46 276.5 -179t110.5 -313q0 -177 -111.5 -315.5t-283.5 -175.5q-83 -13 -108 -13q-104 0 -199 41.5t-168 116.5v-870h45v-19h-348v19h43v1704h-43v16h348v-16h-45v-140q155 158 367 158q67 0 116 -14zM795 31q52 0 94 34.5t66.5 85.5t40.5 116t22 120.5
t6 104.5q0 41 -2.5 84.5t-10 106.5t-24 117t-40 102.5t-63 77t-89.5 28.5q-108 0 -203.5 -43.5t-163.5 -122.5v-645q70 -79 165 -122.5t202 -43.5z" />
    <glyph glyph-name="q" unicode="q" horiz-adv-x="1431" 
d="M512 1010q49 14 117 14q211 0 366 -158v140h-45v16h348v-16h-43v-1704h43v-19h-348v19h45v870q-155 -158 -366 -158q-26 0 -109 13q-172 37 -283.5 175.5t-111.5 315.5q0 180 110.5 313t276.5 179zM629 31q107 0 201.5 43.5t164.5 122.5v645q-68 79 -163 122.5t-203 43.5
q-50 0 -90 -28.5t-64 -77.5t-40 -102.5t-23.5 -116.5t-10 -106.5t-2.5 -84.5q0 -64 11 -135.5t34.5 -148.5t71.5 -127t113 -50z" />
    <glyph glyph-name="r" unicode="r" horiz-adv-x="913" 
d="M707 987q54 0 92.5 -38t38.5 -93q0 -54 -38.5 -91.5t-92.5 -37.5q-55 0 -93.5 37.5t-38.5 91.5q0 64 50 105q-130 -27 -222 -125v-818h46v-16h-351v16h43v990h-43v16h351v-16h-46v-148q124 118 304 127z" />
    <glyph glyph-name="s" unicode="s" horiz-adv-x="1069" 
d="M907 334q0 -201 -221 -303q-79 -31 -164 -31q-213 9 -332 121q-53 53 -53 108q0 57 39.5 97.5t95.5 40.5q57 0 97.5 -40.5t40.5 -97.5q0 -56 -40.5 -95.5t-97.5 -39.5q-16 0 -22 2q103 -71 272 -80q43 0 85.5 12t78 35t51.5 63.5t2 90.5q-18 50 -84 84l-293 125
q-89 33 -157 115t-68 190q5 88 63.5 157t142.5 103.5t173 34.5q97 0 179 -35.5t134 -97.5v35h23v-101h-23v35q-48 69 -130 109.5t-183 40.5q-61 0 -119 -19q-60 -26 -85.5 -78.5t-6.5 -101.5q18 -45 78 -80q35 -19 57 -26l258 -111q27 -13 52.5 -29.5t62.5 -48t62.5 -79.5
t31.5 -105z" />
    <glyph glyph-name="t" unicode="t" horiz-adv-x="788" 
d="M643 1085h19v-92h-19v37h-262v-682q0 -91 40.5 -159t94.5 -68q43 0 76.5 50t44.5 128h16q-17 -129 -91 -214t-169 -85q-111 0 -190.5 100t-79.5 242h-2v1077h-43v17h348v-17h-45v-372h262v38z" />
    <glyph glyph-name="u" unicode="u" horiz-adv-x="1267" 
d="M1135 1004v-988h45v-16h-357v16h43v111q-127 -127 -307 -127q-123 0 -224.5 63.5t-159.5 168t-66 227.5v545h-50v18h342v-18h-47v-594q2 -37 8.5 -80t21.5 -101t36.5 -103.5t58 -77.5t80.5 -32q183 0 307 134v854h-43v18h357v-18h-45z" />
    <glyph glyph-name="v" unicode="v" horiz-adv-x="1034" 
d="M958 1024v-16h-34l-416 -1008l-414 1008h-35v16h318v-16h-35l283 -689l282 689h-30v16h81z" />
    <glyph glyph-name="w" unicode="w" horiz-adv-x="1644" 
d="M1565 1024v-16h-35l-285 -686v0l-129 -318l-285 696l-292 -702l-412 1010h-33v16h318v-16h-37l280 -697l166 408l-116 289h-35v16h315v-16h-29l281 -668l279 668h-31v16h80z" />
    <glyph glyph-name="x" unicode="x" horiz-adv-x="1175" 
d="M1051 16h49v-16h-387v16h30l-223 373l-297 -373h37v-16h-96v16h39l307 387l-360 605h-44v16h390v-16h-41l231 -383l303 383h-39v16h97v-16h-39l-314 -398z" />
    <glyph glyph-name="y" unicode="y" horiz-adv-x="1146" 
d="M1077 1024v-16h-22l-660 -1588q-26 -63 -59 -100t-88 -37q-56 0 -95.5 39.5t-39.5 95.5q0 57 39.5 96.5t95.5 39.5q54 0 92 -36.5t43 -90.5l246 593l-408 988h-35v16h320v-16h-35l281 -689l286 689h-41v16h80z" />
    <glyph glyph-name="z" unicode="z" horiz-adv-x="1005" 
d="M893 18v31h16v-47h-2h-796l497 1010h-481v-2v-29h-16v47h800l-495 -1010h477z" />
    <glyph glyph-name="braceleft" unicode="{" horiz-adv-x="790" 
d="M721 18v-20q-139 0 -240 114t-106 273h-2v10q0 141 -58 264t-163 205l-11 6l11 9q104 79 162.5 203.5t58.5 265.5v8h2q5 160 106 274.5t240 114.5v-21q-134 0 -231 -111t-97 -265v-11q-5 -141 -61.5 -262t-159.5 -205q103 -81 159.5 -202t61.5 -262v-11q0 -154 97 -265.5
t231 -111.5z" />
    <glyph glyph-name="bar" unicode="|" horiz-adv-x="317" 
d="M162 8h-17v1714h17v-1714z" />
    <glyph glyph-name="braceright" unicode="}" horiz-adv-x="806" 
d="M141 -2v20q129 0 224.5 109.5t95.5 257.5v10q5 138 60.5 257.5t156.5 197.5q-101 80 -156.5 200t-60.5 257v10q0 148 -95.5 257t-224.5 109v21q135 0 233 -113t103 -268h2v-6q0 -139 57 -260t160 -199l11 -8l-11 -6q-102 -78 -159.5 -200t-57.5 -259v-10h-2
q-5 -155 -102.5 -266t-233.5 -111z" />
    <glyph glyph-name="asciitilde" unicode="~" horiz-adv-x="1011" 
d="M623 764q75 0 148 -39t121 -109t48 -151h-18q-12 68 -73 101t-130 14q-21 -10 -55.5 -27t-49 -24t-39.5 -18.5t-35.5 -16t-28 -12.5t-26 -10.5t-21.5 -6.5t-22 -5t-19.5 -2t-21.5 -1q-72 0 -146.5 36t-126 104.5t-48.5 150.5l20 -3q2 -41 29 -64.5t66 -27.5t77 0t68 15
q135 60 188.5 78t94.5 18z" />
    <glyph glyph-name="cent" unicode="&#xa2;" horiz-adv-x="1148" 
d="M625 1094h24v-64q182 -9 320 -125q3 -1 4 -2t2.5 -3.5t3.5 -4.5q11 -11 22 -33q19 -29 19 -61q0 -55 -39.5 -93t-95.5 -38q-55 0 -93 38t-38 93q0 57 38 96t93 39h6q-109 65 -242 74v-985q102 4 192 47.5t158 117.5v27h17v-94h-17v33q-66 -68 -157 -108t-191 -44h-2v-57
h-24v55q-54 0 -117 16q-169 40 -279 181t-110 317q0 181 113 322t290 182h2q61 10 101 10v64zM408 442q0 -41 5.5 -89t21 -106.5t38.5 -105.5t62.5 -80t89.5 -36v983q-35 -1 -65 -19.5t-51 -45t-37.5 -67.5t-27 -79t-18 -88t-11 -84t-5.5 -79t-2 -62v-42z" />
    <glyph glyph-name="sterling" unicode="&#xa3;" horiz-adv-x="1294" 
d="M1253 100q-38 -106 -181 -189t-304 -83q-99 0 -186 45q-203 105 -255 123q-45 16 -79 16q-54 0 -116 -21.5t-81 -66.5l-26 2q25 66 90.5 122.5t163.5 94.5v394h-254v24h254v424q0 181 131.5 314t314.5 133q119 0 223 -64t165 -171t61 -228q0 -51 -36 -87t-87 -36t-87 36
t-36 87q0 44 -3.5 91t-15.5 108t-31 109.5t-53.5 88t-79.5 51.5q-50 0 -89.5 -26.5t-63.5 -68.5t-40 -101t-22 -118.5t-6 -125.5v-416h277v-24h-277v-349q99 -5 191 -51l207 -125q46 -20 79 -20q69 0 136 31t96 79z" />
    <glyph glyph-name="yen" unicode="&#xa5;" horiz-adv-x="1222" 
d="M1034 1417l-286 -696v-182h321v-17h-321v-108h321v-19h-321v-379h45v-16h-320v16h49v379h-336v19h336v108h-336v17h336v73l-329 805h-35v17h321v-17h-35l287 -696l287 696h-31v17h82v-17h-35z" />
    <glyph glyph-name="dieresis" unicode="&#xa8;" horiz-adv-x="1040" 
d="M260 1434q54 0 89.5 -37.5t35.5 -91.5t-35.5 -89.5t-89.5 -35.5t-91.5 35.5t-37.5 89.5t37.5 91.5t91.5 37.5zM801 1434q54 0 92.5 -37.5t38.5 -91.5q0 -53 -38 -89t-93 -36q-54 0 -89.5 35.5t-35.5 89.5t35.5 91.5t89.5 37.5z" />
    <glyph glyph-name="uni00AD" unicode="&#xad;" horiz-adv-x="1705" 
 />
    <glyph glyph-name="twosuperior" unicode="&#xb2;" horiz-adv-x="436" 
d="M240 1530q60 0 106.5 -45.5t46.5 -108.5q0 -39 -15 -69t-46 -51.5t-58.5 -34t-70.5 -27.5q-68 -32 -94 -86h274v10h6v-10v-84h-305q0 63 32.5 110t73.5 64q1 1 15.5 9t30 21t32.5 33.5t28 55t11 76.5q0 32 -5.5 59.5t-21 50.5t-40.5 23q-26 0 -43 -27.5t-22 -57t-5 -57.5
q0 -23 -11.5 -36t-29.5 -13q-19 0 -32 12t-13 29q0 62 46.5 108t109.5 46z" />
    <glyph glyph-name="threesuperior" unicode="&#xb3;" horiz-adv-x="454" 
d="M252 1509q52 0 95.5 -33t43.5 -85q0 -43 -30 -76.5t-80 -40.5q50 -12 80 -44t30 -73q0 -53 -39.5 -84.5t-95.5 -36.5q-58 0 -92 29q-49 36 -49 92q0 14 11.5 26.5t27.5 12.5t27.5 -12.5t11.5 -26.5q0 -12 2 -25.5t4.5 -27t3.5 -17.5q0 -1 4 -10.5t7.5 -14.5t11.5 -11.5
t20 -8.5q43 -12 61 49q19 62 -1 125q-18 54 -54 54h-25v-8h-6v22h6v-8h25q37 0 55.5 57t5 113.5t-54.5 56.5q-35 0 -50 -30.5t-15 -71.5q0 -49 -39 -49q-17 0 -28 11t-11 28q0 50 42.5 84t94.5 34z" />
    <glyph glyph-name="acute" unicode="&#xb4;" horiz-adv-x="618" 
d="M369 1427q38 20 84.5 3t66.5 -60t4 -86.5t-59 -62.5q-37 -17 -219 -37q-135 -15 -174 -19q69 68 127 121q135 125 170 141z" />
    <glyph glyph-name="onesuperior" unicode="&#xb9;" horiz-adv-x="346" 
d="M219 1520v-486h19v-6h-113v6h16l2 389l-16 -20l-6 6l92 111h6z" />
    <glyph glyph-name="onequarter" unicode="&#xbc;" horiz-adv-x="1308" 
d="M956 1444h19l-742 -1444h-20zM309 1434v-701h25v-8h-160v8h23l2 561l-23 -28l-10 8l135 160h8zM1018 719v-10h-25l-225 -471h211v268h-25v10h162v-10h-24v-268h51v-13h-51v-211h24v-12h-162v12h25v211h-330l230 484h-23v10h162z" />
    <glyph glyph-name="onehalf" unicode="&#xbd;" horiz-adv-x="1345" 
d="M956 1444h19l-742 -1444h-20zM309 1434v-701h25v-8h-160v8h23l2 561l-23 -28l-10 8l135 160h8zM956 739q87 0 156.5 -65.5t69.5 -157.5q0 -45 -14.5 -81.5t-36.5 -61t-58 -46t-67.5 -35.5t-76.5 -32q-17 -7 -26 -10q-19 -7 -35 -15.5t-28.5 -18.5t-21.5 -18.5t-18 -20.5
t-13 -18.5t-11 -18t-8 -13.5h399v14h7v-14v-123h-441q0 94 45.5 158t106.5 94q1 1 19 11t34 20.5t39 34t39 51.5t27.5 72t11.5 96q0 33 -5 64t-15 61.5t-30.5 48.5t-48.5 18q-29 0 -50 -22.5t-31 -57t-14.5 -66t-4.5 -59.5q0 -34 -16.5 -53.5t-42.5 -19.5t-45 18t-19 43
q-4 86 64.5 154.5t158.5 68.5z" />
    <glyph glyph-name="threequarters" unicode="&#xbe;" horiz-adv-x="3405" 
d="M2210 1444h18l-741 -1444h-21zM1524 1456q76 0 141.5 -50.5t65.5 -131.5q0 -63 -44.5 -111t-119.5 -65q71 -12 117.5 -63t46.5 -113q0 -80 -60 -130.5t-143 -50.5t-139 43q-74 52 -74 138q0 25 16 42t41 17q26 0 43 -17t17 -42q0 -44 16 -105q1 -2 3.5 -10t4.5 -13
t7 -13.5t11 -14t16 -11t23 -7.5q66 -12 92.5 75t1.5 179t-83 92h-39v-15h-8v35h8v-10h39q33 0 57.5 34.5t32 84t4.5 99.5t-26 86t-60 38q-52 0 -76 -46.5t-24 -109.5q0 -32 -15 -52.5t-45 -20.5q-25 0 -41 16t-16 41q0 78 62.5 127.5t146.5 54.5zM2220 705v-11h-25
l-221 -463h207v265h-24v10h159v-10h-24v-265h49v-12h-49v-207h24v-12h-159v12h24v207h-326l228 475h-23v11h160z" />
    <glyph glyph-name="questiondown" unicode="&#xbf;" horiz-adv-x="964" 
d="M584 1208q-47 0 -79 32t-32 79t32 79t79 32t78.5 -32t31.5 -79t-31.5 -79t-78.5 -32zM537 -4q-89 0 -164.5 31.5t-127 83.5t-85 120.5t-43.5 142t4.5 148.5t51.5 139t103.5 114.5t155.5 74.5q20 6 34.5 12.5t35.5 21.5t34 34.5t23 53.5t10 77v98h21v-98q0 -13 -2 -29
t-8.5 -49.5t-26 -64t-49.5 -48.5q-37 -22 -71.5 -94t-57.5 -165t-29 -195.5t8 -188t61 -141.5t122 -56q114 0 211 60q-47 0 -79 31.5t-32 78.5q0 48 32 81.5t81 33.5q47 0 78.5 -31.5t31.5 -78.5q0 -46 -34.5 -85.5t-86.5 -62.5t-105.5 -36t-96.5 -13z" />
    <glyph glyph-name="Agrave" unicode="&#xc0;" 
d="M1473 23h53v-23h-424v23h49l-168 524h-543l-194 -527h49v-20h-121v20h49l631 1729zM446 567h533l-250 768zM752 2132q40 -21 170 -141q59 -52 127 -121q-101 10 -175 18q-182 20 -219 37q-43 19 -59 63t4 87t67 60t85 -3z" />
    <glyph glyph-name="Aacute" unicode="&#xc1;" 
d="M1473 23h53v-23h-424v23h49l-168 524h-543l-194 -527h49v-20h-121v20h49l631 1729zM446 567h533l-250 768zM932 2124q38 20 84.5 2.5t66.5 -60.5t4 -86.5t-59 -62.5q-37 -17 -219 -37q-79 -9 -174 -18q59 59 127 120q137 127 170 142z" />
    <glyph glyph-name="Acircumflex" unicode="&#xc2;" 
d="M1473 23h53v-23h-424v23h49l-168 524h-543l-194 -527h49v-20h-121v20h49l631 1729zM446 567h533l-250 768zM856 2138q22 0 49 -12q6 -3 15 -9t21 -16t22.5 -19t27 -24.5t27.5 -25.5t31 -29t30 -29q39 -37 131 -133q-26 8 -73 23.5t-66 21.5q-77 25 -221 62
q-144 -37 -221 -62q-18 -6 -66 -21.5t-74 -23.5q81 85 132 133q147 139 176 152q24 12 49 12h4h6z" />
    <glyph glyph-name="Atilde" unicode="&#xc3;" 
d="M1473 23h53v-23h-424v23h49l-168 524h-543l-194 -527h49v-20h-121v20h49l631 1729zM446 567h533l-250 768zM754 2105q34 0 75.5 -13.5t147.5 -61.5q33 -13 74 -15.5t77 16t39 60.5l15 2q3 -65 -37.5 -119.5t-99.5 -83t-117 -28.5q-40 0 -78.5 16t-173.5 82
q-54 14 -102.5 -12.5t-55.5 -79.5h-16q0 97 79 167t173 70z" />
    <glyph glyph-name="Adieresis" unicode="&#xc4;" 
d="M1473 23h53v-23h-424v23h49l-168 524h-543l-194 -527h49v-20h-121v20h49l631 1729zM446 567h533l-250 768zM559 2142q54 0 89.5 -37.5t35.5 -91.5t-35.5 -89.5t-89.5 -35.5t-91.5 35.5t-37.5 89.5t37.5 91.5t91.5 37.5zM1100 2142q54 0 92.5 -37.5t38.5 -91.5
q0 -53 -38 -89t-93 -36q-54 0 -89.5 35.5t-35.5 89.5t35.5 91.5t89.5 37.5z" />
    <glyph glyph-name="Ccedilla" unicode="&#xc7;" horiz-adv-x="1622" 
d="M1466 203h19v-86h-19v30q-136 -82 -249.5 -115.5t-231.5 -33.5h-4l-82 -82q28 14 72 14q43 0 84 -18q61 -36 84.5 -96t3.5 -121q-17 -56 -64.5 -90.5t-107.5 -34.5q-43 0 -83.5 21.5t-68.5 62.5l8 2q45 -67 129 -78q65 53 93.5 146t7.5 176q-39 22 -84 22q-49 0 -92 -24
l-7 4l97 96q-169 2 -323.5 71t-267.5 184.5t-184 275t-79 337.5q0 226 113.5 425.5t306.5 318.5q131 68 243 100.5t214.5 30.5t193.5 -27.5t196 -77.5q42 -12 68.5 -48t26.5 -83q0 -57 -40.5 -97t-97.5 -40t-98 40t-41 97q0 53 34 91t83 46q-128 60 -242.5 75.5t-204.5 -9.5
t-165 -82t-128.5 -139.5t-90.5 -184t-54.5 -213.5t-17.5 -231q0 -86 6.5 -165t23.5 -165t44 -158t71 -138t102 -112t140.5 -73t181.5 -27q243 0 481 152v31z" />
    <glyph glyph-name="Egrave" unicode="&#xc8;" horiz-adv-x="1224" 
d="M125 1745h975v-66h-17v43h-624v-852h514v31h20v-84h-20v29h-514v-826h624v48h17v-70h-975v22h59v1702h-59v23zM553 2124q38 -20 170 -142q68 -61 127 -120q-94 9 -174 18q-182 20 -219 37q-43 19 -59.5 62.5t3.5 86.5t67 60.5t85 -2.5z" />
    <glyph glyph-name="Eacute" unicode="&#xc9;" horiz-adv-x="1224" 
d="M125 1745h975v-66h-17v43h-624v-852h514v31h20v-84h-20v29h-514v-826h624v48h17v-70h-975v22h59v1702h-59v23zM733 2120q38 20 85 2.5t67 -60.5t3.5 -86.5t-59.5 -62.5q-37 -17 -219 -37q-80 -9 -174 -18q59 59 127 120q137 127 170 142z" />
    <glyph glyph-name="Ecircumflex" unicode="&#xca;" horiz-adv-x="1224" 
d="M125 1745h975v-66h-17v43h-624v-852h514v31h20v-84h-20v29h-514v-826h624v48h17v-70h-975v22h59v1702h-59v23zM618 2150q23 0 50 -12t174 -151q28 -27 131 -134q-26 8 -73 23.5t-66 21.5q-74 24 -222 62q-144 -37 -221 -62q-19 -6 -66 -21.5t-73 -23.5q103 107 131 134
q145 137 176 151q24 12 49 12h4h6z" />
    <glyph glyph-name="Edieresis" unicode="&#xcb;" horiz-adv-x="1224" 
d="M125 1745h975v-66h-17v43h-624v-852h514v31h20v-84h-20v29h-514v-826h624v48h17v-70h-975v22h59v1702h-59v23zM340 2136q54 0 89.5 -37.5t35.5 -91.5t-35.5 -89.5t-89.5 -35.5t-91.5 35.5t-37.5 89.5t37.5 91.5t91.5 37.5zM881 2136q54 0 92.5 -37.5t38.5 -91.5
q0 -53 -38 -89t-93 -36q-54 0 -89.5 35.5t-35.5 89.5t35.5 91.5t89.5 37.5z" />
    <glyph glyph-name="Igrave" unicode="&#xcc;" horiz-adv-x="675" 
d="M481 1724v-1704h60v-20h-396v20h60v1704h-60v21h396v-21h-60zM258 2111q40 -21 170 -141q59 -52 127 -121q-39 4 -174 19q-182 20 -219 37q-43 19 -59.5 62.5t3.5 86.5t67 60t85 -3z" />
    <glyph glyph-name="Iacute" unicode="&#xcd;" horiz-adv-x="675" 
d="M481 1724v-1704h60v-20h-396v20h60v1704h-60v21h396v-21h-60zM418 2116q38 20 84.5 2.5t66.5 -60.5t4 -86.5t-59 -62.5q-37 -17 -219 -37q-135 -15 -174 -19q69 68 127 121q137 127 170 142z" />
    <glyph glyph-name="Icircumflex" unicode="&#xce;" horiz-adv-x="907" 
d="M602 1724v-1704h60v-20h-396v20h60v1704h-60v21h396v-21h-60zM465 2136q22 0 49 -12q6 -3 15 -9t21 -16t22.5 -19t27 -24.5t27.5 -25.5t31 -29t30 -29q39 -37 131 -133q-26 8 -73 23.5t-66 21.5q-77 25 -221 62q-144 -37 -221 -62q-18 -6 -66 -21.5t-74 -23.5
q92 96 131 133q146 138 177 152q24 12 49 12h4h6z" />
    <glyph glyph-name="Idieresis" unicode="&#xcf;" horiz-adv-x="962" 
d="M621 1724v-1704h59v-20h-395v20h59v1704h-59v21h395v-21h-59zM207 2136q54 0 89.5 -37.5t35.5 -91.5t-35.5 -89.5t-89.5 -35.5t-91.5 35.5t-37.5 89.5t37.5 91.5t91.5 37.5zM748 2136q54 0 92.5 -37.5t38.5 -91.5q0 -53 -38 -89t-93 -36q-54 0 -89.5 35.5t-35.5 89.5
t35.5 91.5t89.5 37.5z" />
    <glyph glyph-name="Ntilde" unicode="&#xd1;" horiz-adv-x="1546" 
d="M1280 1737h129v-17h-53v-1718h-23l-1104 1675v-1659h54v-16h-131v16h55l-6 1698h-49v21h409v-21h-51l823 -1198v1202h-53v17zM887 2136q75 0 148 -39t121 -109t48 -151h-18q-12 68 -73 101t-130 14q-23 -11 -56 -27t-48.5 -23.5t-39.5 -19t-35 -16.5t-28 -12t-26 -10
t-21.5 -7t-21.5 -5t-19.5 -2t-21.5 -1q-72 0 -146.5 36t-126.5 105t-49 150l21 -2q2 -41 29 -64.5t65.5 -28t76.5 -0.5t68 15q135 60 188.5 78t94.5 18z" />
    <glyph glyph-name="Ograve" unicode="&#xd2;" horiz-adv-x="2045" 
d="M1880 866q0 -135 -44 -265.5t-125 -238t-187.5 -189.5t-238.5 -127.5t-271 -45.5q-168 0 -326 67t-276 181t-190.5 274.5t-74.5 337.5v6q0 170 69.5 329.5t185.5 277.5t277 189t335 71q166 0 324.5 -68.5t277.5 -183.5t191.5 -276.5t72.5 -338.5zM1014 23q103 0 187 25
t142.5 66.5t102 105t69.5 132.5t41.5 157t21 169t5.5 178q0 91 -4 166t-18.5 166.5t-38.5 162t-67.5 140.5t-102 116t-145 74.5t-193.5 28.5q-104 0 -188.5 -27t-143 -72t-102 -112.5t-68.5 -139t-40.5 -161.5t-20.5 -169t-5 -173q0 -87 4.5 -160.5t19.5 -161.5t39.5 -158
t68 -138t101.5 -113.5t143.5 -73.5t191.5 -28zM901 2136q40 -21 170 -141q59 -53 127 -121q-94 9 -174 18q-182 20 -219 37q-43 19 -59 63t4 87t66.5 60t84.5 -3z" />
    <glyph glyph-name="Oacute" unicode="&#xd3;" horiz-adv-x="2045" 
d="M1880 866q0 -135 -44 -265.5t-125 -238t-187.5 -189.5t-238.5 -127.5t-271 -45.5q-168 0 -326 67t-276 181t-190.5 274.5t-74.5 337.5v6q0 170 69.5 329.5t185.5 277.5t277 189t335 71q166 0 324.5 -68.5t277.5 -183.5t191.5 -276.5t72.5 -338.5zM1014 23q103 0 187 25
t142.5 66.5t102 105t69.5 132.5t41.5 157t21 169t5.5 178q0 91 -4 166t-18.5 166.5t-38.5 162t-67.5 140.5t-102 116t-145 74.5t-193.5 28.5q-104 0 -188.5 -27t-143 -72t-102 -112.5t-68.5 -139t-40.5 -161.5t-20.5 -169t-5 -173q0 -87 4.5 -160.5t19.5 -161.5t39.5 -158
t68 -138t101.5 -113.5t143.5 -73.5t191.5 -28zM1143 2124q38 20 84.5 2.5t66.5 -60.5t4 -86.5t-59 -62.5q-37 -17 -219 -37q-80 -9 -174 -18q59 59 127 120q137 127 170 142z" />
    <glyph glyph-name="Ocircumflex" unicode="&#xd4;" horiz-adv-x="2045" 
d="M1880 866q0 -135 -44 -265.5t-125 -238t-187.5 -189.5t-238.5 -127.5t-271 -45.5q-168 0 -326 67t-276 181t-190.5 274.5t-74.5 337.5v6q0 170 69.5 329.5t185.5 277.5t277 189t335 71q166 0 324.5 -68.5t277.5 -183.5t191.5 -276.5t72.5 -338.5zM1014 23q103 0 187 25
t142.5 66.5t102 105t69.5 132.5t41.5 157t21 169t5.5 178q0 91 -4 166t-18.5 166.5t-38.5 162t-67.5 140.5t-102 116t-145 74.5t-193.5 28.5q-104 0 -188.5 -27t-143 -72t-102 -112.5t-68.5 -139t-40.5 -161.5t-20.5 -169t-5 -173q0 -87 4.5 -160.5t19.5 -161.5t39.5 -158
t68 -138t101.5 -113.5t143.5 -73.5t191.5 -28zM1020 2148q22 0 49 -12t174 -151q28 -27 131 -134q-26 8 -73 23.5t-66 21.5q-77 25 -221 62q-144 -37 -221 -62q-18 -6 -66 -21.5t-74 -23.5q103 107 131 134q144 136 177 151q24 12 49 12h4h6z" />
    <glyph glyph-name="Otilde" unicode="&#xd5;" horiz-adv-x="2045" 
d="M1880 866q0 -135 -44 -265.5t-125 -238t-187.5 -189.5t-238.5 -127.5t-271 -45.5q-168 0 -326 67t-276 181t-190.5 274.5t-74.5 337.5v6q0 170 69.5 329.5t185.5 277.5t277 189t335 71q166 0 324.5 -68.5t277.5 -183.5t191.5 -276.5t72.5 -338.5zM1014 23q103 0 187 25
t142.5 66.5t102 105t69.5 132.5t41.5 157t21 169t5.5 178q0 91 -4 166t-18.5 166.5t-38.5 162t-67.5 140.5t-102 116t-145 74.5t-193.5 28.5q-104 0 -188.5 -27t-143 -72t-102 -112.5t-68.5 -139t-40.5 -161.5t-20.5 -169t-5 -173q0 -87 4.5 -160.5t19.5 -161.5t39.5 -158
t68 -138t101.5 -113.5t143.5 -73.5t191.5 -28zM932 2105q34 0 75.5 -13.5t147.5 -61.5q33 -13 74.5 -15.5t77.5 16t39 60.5l14 2q3 -65 -37.5 -119.5t-99.5 -83t-117 -28.5q-40 0 -78.5 16t-173.5 82q-54 14 -102.5 -12.5t-55.5 -79.5h-16q0 97 79 167t173 70z" />
    <glyph glyph-name="Odieresis" unicode="&#xd6;" horiz-adv-x="2045" 
d="M1880 866q0 -135 -44 -265.5t-125 -238t-187.5 -189.5t-238.5 -127.5t-271 -45.5q-168 0 -326 67t-276 181t-190.5 274.5t-74.5 337.5v6q0 170 69.5 329.5t185.5 277.5t277 189t335 71q166 0 324.5 -68.5t277.5 -183.5t191.5 -276.5t72.5 -338.5zM1014 23q103 0 187 25
t142.5 66.5t102 105t69.5 132.5t41.5 157t21 169t5.5 178q0 91 -4 166t-18.5 166.5t-38.5 162t-67.5 140.5t-102 116t-145 74.5t-193.5 28.5q-104 0 -188.5 -27t-143 -72t-102 -112.5t-68.5 -139t-40.5 -161.5t-20.5 -169t-5 -173q0 -87 4.5 -160.5t19.5 -161.5t39.5 -158
t68 -138t101.5 -113.5t143.5 -73.5t191.5 -28zM752 2120q54 0 89.5 -37.5t35.5 -91.5t-35.5 -89.5t-89.5 -35.5t-91.5 35.5t-37.5 89.5t37.5 91.5t91.5 37.5zM1292 2120q54 0 92.5 -37.5t38.5 -91.5q0 -53 -38 -89t-93 -36q-54 0 -89.5 35.5t-35.5 89.5t35.5 91.5t89.5 37.5
z" />
    <glyph glyph-name="Ugrave" unicode="&#xd9;" horiz-adv-x="1562" 
d="M793 23q235 0 392 153t177 406h22q0 -245 -186 -424q-76 -75 -177 -116.5t-212 -41.5q-157 0 -284.5 80.5t-200 213.5t-84.5 292v1134h-76v25h428v-25h-80v-1196q10 -167 96 -342q87 -148 185 -159zM1436 1745v-23h-52v-1140h-22v1140h-49v23h123zM721 2109
q40 -21 170 -141q58 -53 127 -121q-39 4 -174 19q-182 20 -219 37q-43 19 -59.5 62.5t3.5 86.5t67 60t85 -3z" />
    <glyph glyph-name="Uacute" unicode="&#xda;" horiz-adv-x="1562" 
d="M793 23q235 0 392 153t177 406h22q0 -245 -186 -424q-76 -75 -177 -116.5t-212 -41.5q-157 0 -284.5 80.5t-200 213.5t-84.5 292v1134h-76v25h428v-25h-80v-1196q10 -167 96 -342q87 -148 185 -159zM1436 1745v-23h-52v-1140h-22v1140h-49v23h123zM983 2146q38 20 85 3
t67 -60t3.5 -87t-59.5 -63q-34 -15 -219 -36q-135 -15 -174 -19q68 69 127 121q135 125 170 141z" />
    <glyph glyph-name="Ucircumflex" unicode="&#xdb;" horiz-adv-x="1562" 
d="M793 23q235 0 392 153t177 406h22q0 -245 -186 -424q-76 -75 -177 -116.5t-212 -41.5q-157 0 -284.5 80.5t-200 213.5t-84.5 292v1134h-76v25h428v-25h-80v-1196q10 -167 96 -342q87 -148 185 -159zM1436 1745v-23h-52v-1140h-22v1140h-49v23h123zM786 2157q21 0 50 -13
q27 -12 174 -151q39 -37 131 -133q-26 8 -74 23.5t-66 21.5q-64 21 -221 61q-157 -40 -221 -61q-19 -6 -66 -21.5t-73 -23.5q92 96 131 133q145 137 176 151q26 13 49 13h4h6z" />
    <glyph glyph-name="Udieresis" unicode="&#xdc;" horiz-adv-x="1562" 
d="M793 23q235 0 392 153t177 406h22q0 -245 -186 -424q-76 -75 -177 -116.5t-212 -41.5q-157 0 -284.5 80.5t-200 213.5t-84.5 292v1134h-76v25h428v-25h-80v-1196q10 -167 96 -342q87 -148 185 -159zM1436 1745v-23h-52v-1140h-22v1140h-49v23h123zM510 2136
q54 0 89.5 -37.5t35.5 -91.5t-35.5 -89.5t-89.5 -35.5t-91.5 35.5t-37.5 89.5t37.5 91.5t91.5 37.5zM1051 2136q54 0 92.5 -37.5t38.5 -91.5q0 -53 -38 -89t-93 -36q-54 0 -89.5 35.5t-35.5 89.5t35.5 91.5t89.5 37.5z" />
    <glyph glyph-name="Yacute" unicode="&#xdd;" horiz-adv-x="1325" 
d="M1102 1749h96v-18h-39l-350 -857v-856h53v-18h-387v18h60v723l-400 990h-43v18h393v-18h-43l346 -857h3l348 857h-37v18zM782 2138q38 20 85 3t67 -60t4 -87t-59 -63q-37 -17 -220 -37q-79 -9 -174 -18q68 68 127 121q135 125 170 141z" />
    <glyph glyph-name="agrave" unicode="&#xe0;" horiz-adv-x="1355" 
d="M618 1427q40 -21 170 -141q58 -53 127 -121q-39 4 -174 19q-182 20 -219 37q-43 19 -59 62.5t4 86.5t66.5 60t84.5 -3zM969 186v652q-153 166 -373 166q-54 0 -96 -36.5t-66 -90.5t-40 -124t-21.5 -129.5t-5.5 -115.5q0 -41 0.5 -69.5t5 -84t13 -95.5t25.5 -88.5
t40.5 -79.5t60.5 -52t84 -21q218 0 373 168zM1278 1006h-45v-986h45v-18h-354v18h45v140q-154 -160 -373 -160q-40 0 -98 10q-186 44 -299 182.5t-113 317.5q0 180 115 320.5t293 177.5q66 14 102 14q107 0 203.5 -41.5t169.5 -116.5v142h-45v18h354v-18z" />
    <glyph glyph-name="aacute" unicode="&#xe1;" horiz-adv-x="1355" 
d="M969 186v652q-153 166 -373 166q-54 0 -96 -36.5t-66 -90.5t-40 -124t-21.5 -129.5t-5.5 -115.5q0 -41 0.5 -69.5t5 -84t13 -95.5t25.5 -88.5t40.5 -79.5t60.5 -52t84 -21q218 0 373 168zM1278 1006h-45v-986h45v-18h-354v18h45v140q-154 -160 -373 -160q-40 0 -98 10
q-186 44 -299 182.5t-113 317.5q0 180 115 320.5t293 177.5q66 14 102 14q107 0 203.5 -41.5t169.5 -116.5v142h-45v18h354v-18zM778 1427q38 20 85 3t67 -60t3.5 -86.5t-59.5 -62.5q-37 -17 -219 -37q-135 -15 -174 -19q69 68 127 121q135 125 170 141z" />
    <glyph glyph-name="acircumflex" unicode="&#xe2;" horiz-adv-x="1355" 
d="M969 186v652q-153 166 -373 166q-54 0 -96 -36.5t-66 -90.5t-40 -124t-21.5 -129.5t-5.5 -115.5q0 -41 0.5 -69.5t5 -84t13 -95.5t25.5 -88.5t40.5 -79.5t60.5 -52t84 -21q218 0 373 168zM1278 1006h-45v-986h45v-18h-354v18h45v140q-154 -160 -373 -160q-40 0 -98 10
q-186 44 -299 182.5t-113 317.5q0 180 115 320.5t293 177.5q66 14 102 14q107 0 203.5 -41.5t169.5 -116.5v142h-45v18h354v-18zM684 1436q20 0 49 -13q27 -12 174 -151q39 -37 131 -133q-26 8 -73 23.5t-66 21.5q-64 21 -221 61q-157 -40 -221 -61q-18 -6 -66 -21.5
t-74 -23.5q81 85 132 133q145 137 176 151q26 13 49 13h4h6z" />
    <glyph glyph-name="atilde" unicode="&#xe3;" horiz-adv-x="1355" 
d="M969 186v652q-153 166 -373 166q-54 0 -96 -36.5t-66 -90.5t-40 -124t-21.5 -129.5t-5.5 -115.5q0 -41 0.5 -69.5t5 -84t13 -95.5t25.5 -88.5t40.5 -79.5t60.5 -52t84 -21q218 0 373 168zM1278 1006h-45v-986h45v-18h-354v18h45v140q-154 -160 -373 -160q-40 0 -98 10
q-186 44 -299 182.5t-113 317.5q0 180 115 320.5t293 177.5q66 14 102 14q107 0 203.5 -41.5t169.5 -116.5v142h-45v18h354v-18zM590 1403q33 0 74 -14t149 -62q33 -13 74.5 -15t77.5 16.5t39 60.5l14 2q4 -97 -79 -164.5t-175 -67.5q-40 0 -78.5 16t-173.5 82
q-54 14 -102.5 -12.5t-55.5 -79.5h-16q0 98 79.5 168t172.5 70z" />
    <glyph glyph-name="adieresis" unicode="&#xe4;" horiz-adv-x="1355" 
d="M969 186v652q-153 166 -373 166q-54 0 -96 -36.5t-66 -90.5t-40 -124t-21.5 -129.5t-5.5 -115.5q0 -41 0.5 -69.5t5 -84t13 -95.5t25.5 -88.5t40.5 -79.5t60.5 -52t84 -21q218 0 373 168zM1278 1006h-45v-986h45v-18h-354v18h45v140q-154 -160 -373 -160q-40 0 -98 10
q-186 44 -299 182.5t-113 317.5q0 180 115 320.5t293 177.5q66 14 102 14q107 0 203.5 -41.5t169.5 -116.5v142h-45v18h354v-18zM406 1434q54 0 89 -37t35 -92q0 -54 -35 -89.5t-89 -35.5q-55 0 -92.5 35.5t-37.5 89.5t38 91.5t92 37.5zM946 1434q54 0 92.5 -37.5
t38.5 -91.5q0 -53 -38 -89t-93 -36q-54 0 -89.5 35.5t-35.5 89.5t35.5 91.5t89.5 37.5z" />
    <glyph glyph-name="ccedilla" unicode="&#xe7;" horiz-adv-x="1148" 
d="M598 1030q201 0 348 -135q30 -30 36 -70.5t-8.5 -75t-47 -59t-74.5 -24.5q-55 0 -94 39.5t-39 93.5q0 56 38 96t93 41q-115 68 -252 68q-150 0 -209 -302q-51 -293 49 -559q55 -116 160 -116t203 43t166 120v25v4h16v-4v-92v-4h-16v4v31q-142 -145 -353 -154l-84 -84
q28 14 72 14t84 -18q61 -36 84.5 -96t3.5 -121q-17 -56 -64.5 -90.5t-107.5 -34.5q-94 0 -151 84l8 2q45 -67 129 -78q65 53 93 146t7 176q-39 22 -84 22q-48 0 -92 -24l-6 4l98 98q-110 0 -210.5 41t-176.5 127q-90 102 -119 237.5t11 264.5q49 155 185.5 255t303.5 105z
" />
    <glyph glyph-name="egrave" unicode="&#xe8;" horiz-adv-x="1294" 
d="M567 1427q40 -21 170 -141q59 -53 127 -121q-39 4 -174 19q-182 20 -219 37q-43 19 -59 62.5t4 86.5t66.5 60t84.5 -3zM1149 504h-281h-460q0 -37 1 -70.5t6.5 -85t14.5 -93.5t26.5 -88t41 -77t60 -51.5t81.5 -20.5q130 0 240.5 61t177.5 173h22q-73 -121 -188.5 -186.5
t-251.5 -65.5q-67 0 -125 14q-172 41 -280.5 181t-108.5 319q0 181 118 323t310 181q21 0 31 2q36 4 55 4q39 0 86 -6q147 -34 256 -129.5t149 -241.5q17 -57 19 -143zM408 520h458q0 211 -71 371q-52 105 -133 115h-23h-25q-17 -2 -33.5 -9t-29.5 -17t-24.5 -22.5
t-20.5 -25.5t-16.5 -26t-12.5 -24t-8.5 -20t-5.5 -14l-2 -4q-41 -128 -53 -324z" />
    <glyph glyph-name="eacute" unicode="&#xe9;" horiz-adv-x="1294" 
d="M1149 504h-281h-460q0 -37 1 -70.5t6.5 -85t14.5 -93.5t26.5 -88t41 -77t60 -51.5t81.5 -20.5q130 0 240.5 61t177.5 173h22q-73 -121 -188.5 -186.5t-251.5 -65.5q-67 0 -125 14q-172 41 -280.5 181t-108.5 319q0 181 118 323t310 181q21 0 31 2q36 4 55 4q39 0 86 -6
q147 -34 256 -129.5t149 -241.5q17 -57 19 -143zM408 520h458q0 211 -71 371q-52 105 -133 115h-23h-25q-17 -2 -33.5 -9t-29.5 -17t-24.5 -22.5t-20.5 -25.5t-16.5 -26t-12.5 -24t-8.5 -20t-5.5 -14l-2 -4q-41 -128 -53 -324zM727 1427q38 20 85 3t67 -60t3.5 -86.5
t-59.5 -62.5q-37 -17 -219 -37q-135 -15 -174 -19q69 68 127 121q135 125 170 141z" />
    <glyph glyph-name="ecircumflex" unicode="&#xea;" horiz-adv-x="1294" 
d="M1149 504h-281h-460q0 -37 1 -70.5t6.5 -85t14.5 -93.5t26.5 -88t41 -77t60 -51.5t81.5 -20.5q130 0 240.5 61t177.5 173h22q-73 -121 -188.5 -186.5t-251.5 -65.5q-67 0 -125 14q-172 41 -280.5 181t-108.5 319q0 181 118 323t310 181q21 0 31 2q36 4 55 4q39 0 86 -6
q147 -34 256 -129.5t149 -241.5q17 -57 19 -143zM408 520h458q0 211 -71 371q-52 105 -133 115h-23h-25q-17 -2 -33.5 -9t-29.5 -17t-24.5 -22.5t-20.5 -25.5t-16.5 -26t-12.5 -24t-8.5 -20t-5.5 -14l-2 -4q-41 -128 -53 -324zM653 1436q20 0 49 -13t175 -151
q39 -37 131 -133q-26 8 -74 23.5t-66 21.5q-64 21 -221 61q-157 -40 -221 -61q-19 -6 -66 -21.5t-73 -23.5q92 96 131 133q145 137 176 151q26 13 49 13h4h6z" />
    <glyph glyph-name="edieresis" unicode="&#xeb;" horiz-adv-x="1294" 
d="M1149 504h-281h-460q0 -37 1 -70.5t6.5 -85t14.5 -93.5t26.5 -88t41 -77t60 -51.5t81.5 -20.5q130 0 240.5 61t177.5 173h22q-73 -121 -188.5 -186.5t-251.5 -65.5q-67 0 -125 14q-172 41 -280.5 181t-108.5 319q0 181 118 323t310 181q21 0 31 2q36 4 55 4q39 0 86 -6
q147 -34 256 -129.5t149 -241.5q17 -57 19 -143zM408 520h458q0 211 -71 371q-52 105 -133 115h-23h-25q-17 -2 -33.5 -9t-29.5 -17t-24.5 -22.5t-20.5 -25.5t-16.5 -26t-12.5 -24t-8.5 -20t-5.5 -14l-2 -4q-41 -128 -53 -324zM375 1434q54 0 89.5 -37.5t35.5 -91.5
t-35.5 -89.5t-89.5 -35.5t-91.5 35.5t-37.5 89.5t37.5 91.5t91.5 37.5zM915 1434q54 0 93 -37.5t39 -91.5q0 -53 -38.5 -89t-93.5 -36q-54 0 -89 35.5t-35 89.5q0 55 35 92t89 37z" />
    <glyph glyph-name="igrave" unicode="&#xec;" horiz-adv-x="524" 
d="M387 1006v-988h47v-18h-356v18h47v988h-47v20h356v-20h-47zM162 1427q40 -21 170 -141q58 -53 127 -121q-39 4 -174 19q-182 20 -219 37q-43 19 -59.5 62.5t3.5 86.5t67 60t85 -3z" />
    <glyph glyph-name="iacute" unicode="&#xed;" horiz-adv-x="524" 
d="M387 1006v-988h47v-18h-356v18h47v988h-47v20h356v-20h-47zM362 1427q38 20 85 3t67 -60t4 -86.5t-59 -62.5q-37 -17 -219 -37q-135 -15 -174 -19q69 68 127 121q136 126 169 141z" />
    <glyph glyph-name="icircumflex" unicode="&#xee;" horiz-adv-x="524" 
d="M387 1006v-988h47v-18h-356v18h47v988h-47v20h356v-20h-47zM268 1436q20 0 49 -13t175 -151q39 -37 131 -133q-26 8 -74 23.5t-66 21.5q-64 21 -221 61q-157 -40 -221 -61q-19 -6 -66 -21.5t-73 -23.5q92 96 131 133q145 137 176 151q26 13 49 13h4h6z" />
    <glyph glyph-name="idieresis" unicode="&#xef;" horiz-adv-x="524" 
d="M387 1006v-988h47v-18h-356v18h47v988h-47v20h356v-20h-47zM-8 1434q54 0 89.5 -37.5t35.5 -91.5t-35.5 -89.5t-89.5 -35.5t-91.5 35.5t-37.5 89.5t37.5 91.5t91.5 37.5zM532 1434q54 0 93 -37.5t39 -91.5q0 -53 -38.5 -89t-93.5 -36q-54 0 -89 35.5t-35 89.5q0 55 35 92
t89 37z" />
    <glyph glyph-name="ntilde" unicode="&#xf1;" horiz-adv-x="1302" 
d="M1157 18h49v-18h-344v18h45v582q-2 31 -4 58.5t-8.5 70t-16 76.5t-25.5 71.5t-36 62.5t-50.5 41.5t-66.5 16.5q-91 0 -172 -35t-139 -96v-850h45v-16h-360v16h45v985h-45v21h360v-21h-45v-112q127 127 311 127q127 0 229.5 -63.5t161 -169.5t66.5 -234v-531zM756 1452
q75 0 148 -39t121 -109t48 -151h-18q-12 68 -73 101t-130 14q-23 -11 -56 -27t-48.5 -23.5t-39.5 -19t-35 -16.5t-28 -12t-26 -10t-21.5 -7t-21.5 -5t-19.5 -2t-21.5 -1q-72 0 -146.5 36t-126.5 105t-49 150l20 -2q2 -41 29 -64.5t66 -28t77 -0.5t68 15q135 60 188.5 78
t94.5 18z" />
    <glyph glyph-name="ograve" unicode="&#xf2;" horiz-adv-x="1179" 
d="M489 1427q40 -21 170 -141q59 -53 127 -121q-39 4 -174 19q-182 20 -219 37q-43 19 -59 62.5t4 86.5t66.5 60t84.5 -3zM1096 537q0 -228 -147.5 -381.5t-366.5 -153.5q-132 0 -250 67t-191 186.5t-73 260.5q0 181 114.5 324t292.5 180q16 4 60 8q140 11 269 -49.5
t210.5 -179t81.5 -262.5zM582 20q57 0 101 36.5t67.5 89.5t38.5 123.5t19.5 127t4.5 111.5q0 65 -8 134t-27.5 152.5t-64 144t-107.5 75.5q-19 3 -41 0q-56 -14 -99.5 -71.5t-67 -136t-35 -155t-11.5 -143.5v-11q-1 -477 230 -477z" />
    <glyph glyph-name="oacute" unicode="&#xf3;" horiz-adv-x="1179" 
d="M1096 537q0 -228 -147.5 -381.5t-366.5 -153.5q-132 0 -250 67t-191 186.5t-73 260.5q0 181 114.5 324t292.5 180q16 4 60 8q140 11 269 -49.5t210.5 -179t81.5 -262.5zM582 20q57 0 101 36.5t67.5 89.5t38.5 123.5t19.5 127t4.5 111.5q0 65 -8 134t-27.5 152.5t-64 144
t-107.5 75.5q-19 3 -41 0q-56 -14 -99.5 -71.5t-67 -136t-35 -155t-11.5 -143.5v-11q-1 -477 230 -477zM690 1427q38 20 85 3t67 -60t3.5 -86.5t-59.5 -62.5q-37 -17 -219 -37q-135 -15 -174 -19q68 68 127 121q135 125 170 141z" />
    <glyph glyph-name="ocircumflex" unicode="&#xf4;" horiz-adv-x="1179" 
d="M1096 537q0 -228 -147.5 -381.5t-366.5 -153.5q-132 0 -250 67t-191 186.5t-73 260.5q0 181 114.5 324t292.5 180q16 4 60 8q140 11 269 -49.5t210.5 -179t81.5 -262.5zM582 20q57 0 101 36.5t67.5 89.5t38.5 123.5t19.5 127t4.5 111.5q0 65 -8 134t-27.5 152.5t-64 144
t-107.5 75.5q-19 3 -41 0q-56 -14 -99.5 -71.5t-67 -136t-35 -155t-11.5 -143.5v-11q-1 -477 230 -477zM590 1436q20 0 49 -13q27 -12 174 -151q39 -37 131 -133q-26 8 -73 23.5t-66 21.5q-64 21 -221 61q-162 -41 -222 -61q-19 -6 -66 -21.5t-73 -23.5q92 96 131 133
q145 137 176 151q26 13 50 13h4h6z" />
    <glyph glyph-name="otilde" unicode="&#xf5;" horiz-adv-x="1179" 
d="M1096 537q0 -228 -147.5 -381.5t-366.5 -153.5q-132 0 -250 67t-191 186.5t-73 260.5q0 181 114.5 324t292.5 180q16 4 60 8q140 11 269 -49.5t210.5 -179t81.5 -262.5zM582 20q57 0 101 36.5t67.5 89.5t38.5 123.5t19.5 127t4.5 111.5q0 65 -8 134t-27.5 152.5t-64 144
t-107.5 75.5q-19 3 -41 0q-56 -14 -99.5 -71.5t-67 -136t-35 -155t-11.5 -143.5v-11q-1 -477 230 -477zM500 1403q33 0 74 -14t149 -62q24 -9 54 -12.5t60.5 0.5t52 23t23.5 51l15 2q4 -97 -79 -164.5t-175 -67.5q-40 0 -78.5 16t-173.5 82q-54 14 -102.5 -12.5t-55.5 -79.5
h-16q0 98 79.5 168t172.5 70z" />
    <glyph glyph-name="odieresis" unicode="&#xf6;" horiz-adv-x="1179" 
d="M1096 537q0 -228 -147.5 -381.5t-366.5 -153.5q-132 0 -250 67t-191 186.5t-73 260.5q0 181 114.5 324t292.5 180q16 4 60 8q140 11 269 -49.5t210.5 -179t81.5 -262.5zM582 20q57 0 101 36.5t67.5 89.5t38.5 123.5t19.5 127t4.5 111.5q0 65 -8 134t-27.5 152.5t-64 144
t-107.5 75.5q-19 3 -41 0q-56 -14 -99.5 -71.5t-67 -136t-35 -155t-11.5 -143.5v-11q-1 -477 230 -477zM317 1434q54 0 89.5 -37.5t35.5 -91.5t-35.5 -89.5t-89.5 -35.5t-91.5 35.5t-37.5 89.5t37.5 91.5t91.5 37.5zM858 1434q54 0 92.5 -37.5t38.5 -91.5q0 -53 -38 -89
t-93 -36q-54 0 -89.5 35.5t-35.5 89.5t35.5 91.5t89.5 37.5z" />
    <glyph glyph-name="divide" unicode="&#xf7;" horiz-adv-x="344" 
d="M-219 498h811v26h-811v-26zM193 0h-27h27zM166 295q38 0 65 -29.5t27 -66.5q0 -41 -26.5 -68t-65.5 -27t-67.5 27.5t-28.5 67.5q0 37 29 66.5t67 29.5zM166 928q38 0 65 -28.5t27 -65.5q0 -41 -26.5 -68t-65.5 -27t-67.5 27.5t-28.5 67.5q0 37 29 65.5t67 28.5z" />
    <glyph glyph-name="ugrave" unicode="&#xf9;" horiz-adv-x="1267" 
d="M512 1427q40 -21 170 -141q58 -53 127 -121q-39 4 -174 19q-182 20 -219 37q-43 19 -59.5 62.5t3.5 86.5t67 60t85 -3zM1135 1004v-988h45v-16h-357v16h43v111q-127 -127 -307 -127q-123 0 -224.5 63.5t-159.5 168t-66 227.5v545h-50v18h342v-18h-47v-594q2 -37 8.5 -80
t21.5 -101t36.5 -103.5t58 -77.5t80.5 -32q183 0 307 134v854h-43v18h357v-18h-45z" />
    <glyph glyph-name="uacute" unicode="&#xfa;" horiz-adv-x="1267" 
d="M1135 1004v-988h45v-16h-357v16h43v111q-127 -127 -307 -127q-123 0 -224.5 63.5t-159.5 168t-66 227.5v545h-50v18h342v-18h-47v-594q2 -37 8.5 -80t21.5 -101t36.5 -103.5t58 -77.5t80.5 -32q183 0 307 134v854h-43v18h357v-18h-45zM754 1427q38 20 84.5 3t66.5 -60
t4 -86.5t-59 -62.5q-37 -17 -219 -37q-135 -15 -174 -19q69 68 127 121q135 125 170 141z" />
    <glyph glyph-name="ucircumflex" unicode="&#xfb;" horiz-adv-x="1267" 
d="M1135 1004v-988h45v-16h-357v16h43v111q-127 -127 -307 -127q-123 0 -224.5 63.5t-159.5 168t-66 227.5v545h-50v18h342v-18h-47v-594q2 -37 8.5 -80t21.5 -101t36.5 -103.5t58 -77.5t80.5 -32q183 0 307 134v854h-43v18h357v-18h-45zM639 1436q20 0 49 -13
q27 -12 174 -151q39 -37 131 -133q-26 8 -73 23.5t-66 21.5q-64 21 -221 61q-157 -40 -221 -61q-18 -6 -66 -21.5t-74 -23.5q92 96 131 133q144 136 177 151q26 13 49 13h4h6z" />
    <glyph glyph-name="udieresis" unicode="&#xfc;" horiz-adv-x="1267" 
d="M1135 1004v-988h45v-16h-357v16h43v111q-127 -127 -307 -127q-123 0 -224.5 63.5t-159.5 168t-66 227.5v545h-50v18h342v-18h-47v-594q2 -37 8.5 -80t21.5 -101t36.5 -103.5t58 -77.5t80.5 -32q183 0 307 134v854h-43v18h357v-18h-45zM362 1434q54 0 89.5 -37.5
t35.5 -91.5t-35.5 -89.5t-89.5 -35.5t-91.5 35.5t-37.5 89.5t37.5 91.5t91.5 37.5zM903 1434q54 0 92.5 -37.5t38.5 -91.5q0 -53 -38 -89t-93 -36q-54 0 -89.5 35.5t-35.5 89.5t35.5 91.5t89.5 37.5z" />
    <glyph glyph-name="yacute" unicode="&#xfd;" horiz-adv-x="1146" 
d="M1077 1024v-16h-22l-660 -1588q-26 -63 -59 -100t-88 -37q-56 0 -95.5 39.5t-39.5 95.5q0 57 39.5 96.5t95.5 39.5q54 0 92 -36.5t43 -90.5l246 593l-408 988h-35v16h320v-16h-35l281 -689l286 689h-41v16h80zM776 1427q38 20 85 3t67 -60t3.5 -86.5t-59.5 -62.5
q-37 -17 -219 -37q-135 -15 -174 -19q69 68 127 121q135 125 170 141z" />
    <glyph glyph-name="ydieresis" unicode="&#xff;" horiz-adv-x="1146" 
d="M1077 1024v-16h-22l-660 -1588q-26 -63 -59 -100t-88 -37q-56 0 -95.5 39.5t-39.5 95.5q0 57 39.5 96.5t95.5 39.5q54 0 92 -36.5t43 -90.5l246 593l-408 988h-35v16h320v-16h-35l281 -689l286 689h-41v16h80zM301 1434q54 0 89.5 -37.5t35.5 -91.5t-35.5 -89.5
t-89.5 -35.5t-91.5 35.5t-37.5 89.5t37.5 91.5t91.5 37.5zM842 1434q54 0 92.5 -37.5t38.5 -91.5q0 -53 -38 -89t-93 -36q-54 0 -89.5 35.5t-35.5 89.5t35.5 91.5t89.5 37.5z" />
    <glyph glyph-name="Abreve" unicode="&#x102;" 
d="M850 1821q-115 0 -213.5 77t-147.5 220q89 -86 171.5 -113t189.5 -31q107 4 189 31t171 113q-49 -143 -147 -220t-213 -77zM1473 23h53v-23h-424v23h49l-168 524h-543l-194 -527h49v-20h-121v20h49l631 1729zM446 567h533l-250 768z" />
    <glyph glyph-name="abreve" unicode="&#x103;" horiz-adv-x="1355" 
d="M678 1141q-115 0 -213.5 77t-147.5 220q89 -86 171.5 -113t189.5 -31q107 4 189 31t171 113q-49 -143 -147 -220t-213 -77zM969 186v652q-153 166 -373 166q-54 0 -96 -36.5t-66 -90.5t-40 -124t-21.5 -129.5t-5.5 -115.5q0 -41 0.5 -69.5t5 -84t13 -95.5t25.5 -88.5
t40.5 -79.5t60.5 -52t84 -21q218 0 373 168zM1278 1006h-45v-986h45v-18h-354v18h45v140q-154 -160 -373 -160q-40 0 -98 10q-186 44 -299 182.5t-113 317.5q0 180 115 320.5t293 177.5q66 14 102 14q107 0 203.5 -41.5t169.5 -116.5v142h-45v18h354v-18z" />
    <glyph glyph-name="Dcroat" unicode="&#x110;" horiz-adv-x="1703" 
d="M756 1741q169 -8 320 -79.5t260.5 -187.5t176.5 -274t76 -334q-3 -226 -113 -419t-299.5 -312t-418.5 -135h-637v23h61v851h-176v21h176v823h-61v23h635zM727 23q99 -2 180 24t138 70.5t101 110.5t70.5 138t43 159.5t22.5 167.5t6 169q0 93 -4.5 169t-19 163.5
t-38.5 155.5t-66 135.5t-98.5 113.5t-139 78t-185.5 41h-282v-823h452v-21h-452v-851h272z" />
    <glyph glyph-name="dcroat" unicode="&#x111;" horiz-adv-x="1406" 
d="M514 993l21 4q11 1 38 4t45 3q108 0 203.5 -41t165.5 -115v498h-305v20h305v358h-41v19h346v-19h-41v-358h168v-20h-168v-1330h41v-18h-346v18h41v134q-70 -74 -165.5 -115t-203.5 -41q-42 0 -94 10l-22 2v4q-172 41 -278.5 177t-106.5 313q0 176 112.5 316t284.5 177z
M391 500q0 -81 13 -163t38.5 -157.5t71.5 -122.5t104 -47q107 0 204 44.5t165 119.5v649q-69 78 -165 121t-204 43q-46 0 -83 -25t-60 -62.5t-40 -90t-25 -97.5t-13 -95.5t-5.5 -74t-0.5 -42.5z" />
    <glyph glyph-name="Itilde" unicode="&#x128;" horiz-adv-x="675" 
d="M246 2105q34 0 75.5 -13.5t147.5 -61.5q33 -13 74 -15.5t77 16t39 60.5l15 2q3 -65 -37.5 -119.5t-99.5 -83t-117 -28.5q-40 0 -78.5 16t-173.5 82q-54 14 -102.5 -12.5t-55.5 -79.5h-16q0 97 79 167t173 70zM481 1724v-1704h60v-20h-396v20h60v1704h-60v21h396v-21h-60z
" />
    <glyph glyph-name="itilde" unicode="&#x129;" horiz-adv-x="524" 
d="M387 1006v-988h47v-18h-356v18h47v988h-47v20h356v-20h-47zM172 1403q33 0 74 -14t149 -62q33 -13 74.5 -15t77.5 16.5t39 60.5l14 2q4 -97 -79 -164.5t-175 -67.5q-40 0 -78.5 16t-173.5 82q-54 14 -102 -12.5t-55 -79.5h-17q0 98 79.5 168t172.5 70z" />
    <glyph glyph-name="Scaron" unicode="&#x160;" 
d="M817 1845q-20 0 -49 13q-27 12 -174 151q-39 37 -131 133q26 -8 73 -23.5t66 -21.5q141 -47 221 -61q80 14 221 61q18 6 66 21.5t74 23.5q-71 -74 -133 -133q-147 -139 -174 -151q-26 -13 -50 -13h-4h-6zM1147 920q64 -27 123.5 -65t113 -89t83.5 -117.5t24 -136.5
q-5 -148 -104 -269.5t-269 -187.5q-139 -53 -276 -53q-191 8 -356.5 78t-284.5 205q-33 36 -33 90q0 59 39 98t96 39q58 0 97.5 -39t39.5 -98q0 -62 -50 -104.5t-111 -30.5q207 -192 563 -215q85 0 157.5 21.5t128 64t83.5 114t20 164.5q-3 46 -30.5 88.5t-73.5 78
t-100.5 66t-119.5 59t-122 51t-117.5 47t-96.5 42.5q-61 29 -107.5 54.5t-101 65.5t-89.5 81.5t-59 99t-24 121.5q6 112 66 209t152 160t203 99t220 36q162 0 303 -62t232 -176v64h23v-164h-23v55q-80 119 -224 189.5t-311 70.5q-100 0 -202 -30q-47 -17 -85 -51t-60 -75
t-34 -85t-11.5 -85.5t12.5 -72.5q15 -37 45.5 -72.5t63 -60t64.5 -44t51 -29t21 -9.5z" />
    <glyph glyph-name="scaron" unicode="&#x161;" horiz-adv-x="1069" 
d="M522 1233q-22 0 -49 12q-6 3 -15 9t-21 16t-22.5 19t-27 24.5t-27.5 25.5t-31 29t-30 29q-39 37 -131 133q26 -8 73 -23.5t66 -21.5q148 -49 221 -62q75 14 222 62q19 6 66 21.5t73 23.5q-71 -74 -133 -133q-10 -10 -30 -29t-31 -29t-27.5 -25.5t-27 -24.5t-22.5 -19
t-21 -16t-15 -9q-24 -12 -50 -12h-4h-6zM907 334q0 -201 -221 -303q-79 -31 -164 -31q-213 9 -332 121q-53 53 -53 108q0 57 39.5 97.5t95.5 40.5q57 0 97.5 -40.5t40.5 -97.5q0 -56 -40.5 -95.5t-97.5 -39.5q-16 0 -22 2q103 -71 272 -80q43 0 85.5 12t78 35t51.5 63.5
t2 90.5q-18 50 -84 84l-293 125q-89 33 -157 115t-68 190q5 88 63.5 157t142.5 103.5t173 34.5q97 0 179 -35.5t134 -97.5v35h23v-101h-23v35q-48 69 -130 109.5t-183 40.5q-61 0 -119 -19q-60 -26 -85.5 -78.5t-6.5 -101.5q18 -45 78 -80q35 -19 57 -26l258 -111
q27 -13 52.5 -29.5t62.5 -48t62.5 -79.5t31.5 -105z" />
    <glyph glyph-name="Utilde" unicode="&#x168;" horiz-adv-x="1562" 
d="M762 2105q34 0 75.5 -13.5t147.5 -61.5q33 -13 74.5 -15.5t77.5 16t39 60.5l14 2q3 -65 -37.5 -119.5t-99.5 -83t-117 -28.5q-40 0 -78.5 16t-173.5 82q-54 14 -102.5 -12.5t-55.5 -79.5h-16q0 97 79 167t173 70zM793 23q235 0 392 153t177 406h22q0 -245 -186 -424
q-76 -75 -177 -116.5t-212 -41.5q-157 0 -284.5 80.5t-200 213.5t-84.5 292v1134h-76v25h428v-25h-80v-1196q10 -167 96 -342q87 -148 185 -159zM1436 1745v-23h-52v-1140h-22v1140h-49v23h123z" />
    <glyph glyph-name="utilde" unicode="&#x169;" horiz-adv-x="1267" 
d="M545 1403q33 0 74 -14t149 -62q24 -9 54 -12.5t60.5 0.5t52 23t23.5 51l15 2q4 -97 -79 -164.5t-175 -67.5q-40 0 -78.5 16t-173.5 82q-54 14 -102.5 -12.5t-55.5 -79.5h-16q0 98 79.5 168t172.5 70zM1135 1004v-988h45v-16h-357v16h43v111q-127 -127 -307 -127
q-123 0 -224.5 63.5t-159.5 168t-66 227.5v545h-50v18h342v-18h-47v-594q2 -37 8.5 -80t21.5 -101t36.5 -103.5t58 -77.5t80.5 -32q183 0 307 134v854h-43v18h357v-18h-45z" />
    <glyph glyph-name="Ydieresis" unicode="&#x178;" horiz-adv-x="1325" 
d="M1102 1749h96v-18h-39l-350 -857v-856h53v-18h-387v18h60v723l-400 990h-43v18h393v-18h-43l346 -857h3l348 857h-37v18zM397 2140q54 0 89.5 -37.5t35.5 -91.5t-35.5 -89.5t-89.5 -35.5t-91.5 35.5t-37.5 89.5t37.5 91.5t91.5 37.5zM938 2140q54 0 92.5 -37.5
t38.5 -91.5q0 -53 -38 -89t-93 -36q-54 0 -89.5 35.5t-35.5 89.5t35.5 91.5t89.5 37.5z" />
    <glyph glyph-name="Zcaron" unicode="&#x17d;" horiz-adv-x="1818" 
d="M913 1851q-20 0 -49 13q-27 12 -174 151q-39 37 -131 133q26 -8 73 -23.5t66 -21.5q140 -46 222 -61q80 14 221 61q19 6 66 21.5t73 23.5q-71 -74 -133 -133q-147 -139 -174 -151q-26 -13 -49 -13h-4h-7zM1556 20v39h23v-59h-6h-1344l1065 1712h-1001v-37h-21v60h1370
l-1067 -1715h981z" />
    <glyph glyph-name="zcaron" unicode="&#x17e;" horiz-adv-x="1005" 
d="M893 18v31h16v-47h-2h-796l497 1010h-481v-2v-29h-16v47h800l-495 -1010h477zM498 1231q-22 0 -49 12q-25 11 -101.5 82.5t-140.5 136.5l-64 66q250 -84 361 -107q49 10 139 37t155 48l66 22q-28 -29 -71 -73t-127 -122.5t-109 -89.5q-24 -12 -49 -12h-4h-6z" />
    <glyph glyph-name="Ohorn" unicode="&#x1a0;" horiz-adv-x="2045" 
d="M1880 866q0 -135 -44 -265.5t-125 -238t-187.5 -189.5t-238.5 -127.5t-271 -45.5q-168 0 -326 67t-276 181t-190.5 274.5t-74.5 337.5v6q0 170 69.5 329.5t185.5 277.5t277 189t335 71q260 0 489 -160q90 44 90 80q0 31 -14 55t-31 37t-31 37t-14 55q0 47 29.5 77
t79.5 30q48 0 73 -32t25 -85q0 -78 -53.5 -150t-138.5 -114q165 -123 263.5 -305.5t98.5 -391.5zM1014 23q103 0 187 25t142.5 66.5t102 105t69.5 132.5t41.5 157t21 169t5.5 178q0 91 -4 166t-18.5 166.5t-38.5 162t-67.5 140.5t-102 116t-145 74.5t-193.5 28.5
q-104 0 -188.5 -27t-143 -72t-102 -112.5t-68.5 -139t-40.5 -161.5t-20.5 -169t-5 -173q0 -87 4.5 -160.5t19.5 -161.5t39.5 -158t68 -138t101.5 -113.5t143.5 -73.5t191.5 -28z" />
    <glyph glyph-name="ohorn" unicode="&#x1a1;" horiz-adv-x="1179" 
d="M1096 537q0 -228 -147.5 -381.5t-366.5 -153.5q-132 0 -250 67t-191 186.5t-73 260.5q0 181 114.5 324t292.5 180q16 4 60 8q119 9 232 -35.5t196 -130.5q79 40 79 76q0 31 -14 55t-31 37t-31 37t-14 55q0 47 29.5 77t79.5 30q48 0 73 -32t25 -85q0 -77 -51.5 -147.5
t-134.5 -114.5q123 -140 123 -313zM582 20q57 0 101 36.5t67.5 89.5t38.5 123.5t19.5 127t4.5 111.5q0 65 -8 134t-27.5 152.5t-64 144t-107.5 75.5q-19 3 -41 0q-56 -14 -99.5 -71.5t-67 -136t-35 -155t-11.5 -143.5v-11q-1 -477 230 -477z" />
    <glyph glyph-name="Uhorn" unicode="&#x1af;" horiz-adv-x="1562" 
d="M1384 1745v-182q49 20 81 44t32 46q0 31 -14 55t-31 37t-31 37t-14 55q0 47 29.5 77t79.5 30q48 0 73 -32t25 -85q0 -86 -65.5 -165t-164.5 -116v-964q0 -245 -186 -424q-76 -75 -177 -116.5t-212 -41.5q-157 0 -284.5 80.5t-200 213.5t-84.5 292v1134h-76v25h428v-25
h-80v-1196q10 -167 96 -342q87 -148 185 -159q235 0 392 153t177 406v1140h-49v23h71z" />
    <glyph glyph-name="uhorn" unicode="&#x1b0;" horiz-adv-x="1267" 
d="M1157 1122q0 47 29.5 77t79.5 30q48 0 73 -32t25 -85q0 -87 -64.5 -165.5t-164.5 -117.5v-813h45v-16h-357v16h43v111q-127 -127 -307 -127q-123 0 -224.5 63.5t-159.5 168t-66 227.5v545h-50v18h342v-18h-47v-594q2 -37 8.5 -80t21.5 -101t36.5 -103.5t58 -77.5
t80.5 -32q183 0 307 134v854h-43v18h312v-174q48 20 80 44.5t32 45.5q0 31 -14 55t-31 37t-31 37t-14 55z" />
    <glyph glyph-name="circumflex" unicode="&#x2c6;" horiz-adv-x="1003" 
d="M506 1436q20 0 49 -13q27 -12 174 -151q39 -37 131 -133q-26 8 -73 23.5t-66 21.5q-64 21 -221 61q-157 -40 -221 -61q-18 -6 -66 -21.5t-74 -23.5q92 96 131 133q145 137 176 151q26 13 50 13h4h6z" />
    <glyph glyph-name="caron" unicode="&#x2c7;" horiz-adv-x="1024" 
d="M506 1231q-22 0 -49 12q-25 11 -101.5 82.5t-139.5 136.5l-64 66q249 -84 360 -107q49 10 139 37t155 48l66 22q-28 -29 -71 -73t-127 -122.5t-109 -89.5q-24 -12 -49 -12h-4h-6z" />
    <glyph glyph-name="tilde" unicode="&#x2dc;" horiz-adv-x="1009" 
d="M618 1452q75 0 148 -39t121.5 -109t48.5 -151h-18q-12 68 -73 101t-130 14q-21 -10 -55.5 -27t-49 -24t-39.5 -18.5t-35.5 -16t-28 -12.5t-26 -10.5t-21.5 -6.5t-22 -5t-19.5 -2t-21.5 -1q-72 0 -146.5 36t-126 104.5t-48.5 150.5l20 -2q2 -41 29 -64.5t66 -28t77 -0.5
t68 15q135 60 188 78t94 18z" />
    <glyph glyph-name="uni1EA0" unicode="&#x1ea0;" 
d="M731 -406q-54 0 -92.5 38t-38.5 92t38.5 92.5t92.5 38.5t92.5 -38.5t38.5 -92.5t-38.5 -92t-92.5 -38zM1473 23h53v-23h-424v23h49l-168 524h-543l-194 -527h49v-20h-121v20h49l631 1729zM446 567h533l-250 768z" />
    <glyph glyph-name="uni1EA1" unicode="&#x1ea1;" horiz-adv-x="1355" 
d="M655 -406q-54 0 -92.5 38t-38.5 92t38.5 92.5t92.5 38.5t92.5 -38.5t38.5 -92.5t-38.5 -92t-92.5 -38zM969 186v652q-153 166 -373 166q-54 0 -96 -36.5t-66 -90.5t-40 -124t-21.5 -129.5t-5.5 -115.5q0 -41 0.5 -69.5t5 -84t13 -95.5t25.5 -88.5t40.5 -79.5t60.5 -52
t84 -21q218 0 373 168zM1278 1006h-45v-986h45v-18h-354v18h45v140q-154 -160 -373 -160q-40 0 -98 10q-186 44 -299 182.5t-113 317.5q0 180 115 320.5t293 177.5q66 14 102 14q107 0 203.5 -41.5t169.5 -116.5v142h-45v18h354v-18z" />
    <glyph glyph-name="uni1EA2" unicode="&#x1ea2;" 
d="M872 2271q109 0 171.5 -42.5t62.5 -106.5q0 -52 -27.5 -88t-66 -54t-76 -33.5t-60.5 -39.5t-18 -60h-16q-6 35 2 60t25 44t34.5 39t31.5 54.5t15 81.5q2 55 -17.5 92t-60.5 37q-89 0 -133 -53q48 18 82.5 -3.5t34.5 -56.5q0 -32 -23.5 -51.5t-54.5 -19.5q-33 0 -57.5 19
t-24.5 48q0 63 55.5 98t120.5 35zM1473 23h53v-23h-424v23h49l-168 524h-543l-194 -527h49v-20h-121v20h49l631 1729zM446 567h533l-250 768z" />
    <glyph glyph-name="uni1EA3" unicode="&#x1ea3;" horiz-adv-x="1355" 
d="M717 1583q109 0 171 -42.5t62 -106.5q0 -52 -27.5 -88t-66 -54t-76 -33.5t-60.5 -39.5t-18 -60h-16q-6 34 2 59.5t25 44.5t35 39t32 54.5t15 81.5q2 55 -17.5 92t-60.5 37q-88 0 -133 -54q48 18 82 -3t34 -56q0 -32 -23 -52t-54 -20q-33 0 -57.5 19.5t-24.5 48.5
q0 63 55.5 98t120.5 35zM969 186v652q-153 166 -373 166q-54 0 -96 -36.5t-66 -90.5t-40 -124t-21.5 -129.5t-5.5 -115.5q0 -41 0.5 -69.5t5 -84t13 -95.5t25.5 -88.5t40.5 -79.5t60.5 -52t84 -21q218 0 373 168zM1278 1006h-45v-986h45v-18h-354v18h45v140
q-154 -160 -373 -160q-40 0 -98 10q-186 44 -299 182.5t-113 317.5q0 180 115 320.5t293 177.5q66 14 102 14q107 0 203.5 -41.5t169.5 -116.5v142h-45v18h354v-18z" />
    <glyph glyph-name="uni1EA4" unicode="&#x1ea4;" 
d="M911 2482q38 20 85 3t67 -60t4 -87t-59 -63q-37 -17 -220 -37q-80 -9 -174 -18q69 69 127 121q135 125 170 141zM1473 23h53v-23h-424v23h49l-168 524h-543l-194 -527h49v-20h-121v20h49l631 1729zM446 567h533l-250 768zM856 2138q22 0 49 -12q6 -3 15 -9t21 -16
t22.5 -19t27 -24.5t27.5 -25.5t31 -29t30 -29q39 -37 131 -133q-26 8 -73 23.5t-66 21.5q-77 25 -221 62q-144 -37 -221 -62q-18 -6 -66 -21.5t-74 -23.5q81 85 132 133q147 139 176 152q24 12 49 12h4h6z" />
    <glyph glyph-name="uni1EA5" unicode="&#x1ea5;" horiz-adv-x="1355" 
d="M739 1780q38 20 85 2.5t67 -60.5t4 -86.5t-59 -62.5q-37 -17 -220 -37q-80 -9 -174 -18q59 59 127 120q137 127 170 142zM969 186v652q-153 166 -373 166q-54 0 -96 -36.5t-66 -90.5t-40 -124t-21.5 -129.5t-5.5 -115.5q0 -41 0.5 -69.5t5 -84t13 -95.5t25.5 -88.5
t40.5 -79.5t60.5 -52t84 -21q218 0 373 168zM1278 1006h-45v-986h45v-18h-354v18h45v140q-154 -160 -373 -160q-40 0 -98 10q-186 44 -299 182.5t-113 317.5q0 180 115 320.5t293 177.5q66 14 102 14q107 0 203.5 -41.5t169.5 -116.5v142h-45v18h354v-18zM684 1436
q20 0 49 -13q27 -12 174 -151q39 -37 131 -133q-26 8 -73 23.5t-66 21.5q-64 21 -221 61q-157 -40 -221 -61q-18 -6 -66 -21.5t-74 -23.5q81 85 132 133q145 137 176 151q26 13 49 13h4h6z" />
    <glyph glyph-name="uni1EA6" unicode="&#x1ea6;" 
d="M852 2482q40 -21 170 -141q58 -52 127 -121q-95 9 -174 18q-182 20 -219 37q-43 19 -59.5 63t3.5 87t67 60t85 -3zM1473 23h53v-23h-424v23h49l-168 524h-543l-194 -527h49v-20h-121v20h49l631 1729zM446 567h533l-250 768zM856 2138q22 0 49 -12q6 -3 15 -9t21 -16
t22.5 -19t27 -24.5t27.5 -25.5t31 -29t30 -29q39 -37 131 -133q-26 8 -73 23.5t-66 21.5q-77 25 -221 62q-144 -37 -221 -62q-18 -6 -66 -21.5t-74 -23.5q81 85 132 133q147 139 176 152q24 12 49 12h4h6z" />
    <glyph glyph-name="uni1EA7" unicode="&#x1ea7;" horiz-adv-x="1355" 
d="M680 1780q38 -20 170 -142q68 -61 127 -120q-95 9 -174 18q-182 20 -219 37q-43 19 -59.5 62.5t3.5 86.5t67 60.5t85 -2.5zM969 186v652q-153 166 -373 166q-54 0 -96 -36.5t-66 -90.5t-40 -124t-21.5 -129.5t-5.5 -115.5q0 -41 0.5 -69.5t5 -84t13 -95.5t25.5 -88.5
t40.5 -79.5t60.5 -52t84 -21q218 0 373 168zM1278 1006h-45v-986h45v-18h-354v18h45v140q-154 -160 -373 -160q-40 0 -98 10q-186 44 -299 182.5t-113 317.5q0 180 115 320.5t293 177.5q66 14 102 14q107 0 203.5 -41.5t169.5 -116.5v142h-45v18h354v-18zM684 1436
q20 0 49 -13q27 -12 174 -151q39 -37 131 -133q-26 8 -73 23.5t-66 21.5q-64 21 -221 61q-157 -40 -221 -61q-18 -6 -66 -21.5t-74 -23.5q81 85 132 133q145 137 176 151q26 13 49 13h4h6z" />
    <glyph glyph-name="uni1EA8" unicode="&#x1ea8;" 
d="M1135 2517q109 0 171 -43t62 -107q0 -38 -14.5 -67.5t-38 -47t-51.5 -31.5t-55 -25.5t-48.5 -24t-33 -32.5t-7.5 -46h-16q-6 35 2 60t25 44t34.5 39t31.5 54.5t15 81.5q2 55 -17 92t-60 37q-89 0 -134 -54q48 18 82.5 -3t34.5 -56q0 -32 -23.5 -52t-54.5 -20
q-33 0 -57.5 19.5t-24.5 48.5q0 63 56 98t121 35zM1473 23h53v-23h-424v23h49l-168 524h-543l-194 -527h49v-20h-121v20h49l631 1729zM446 567h533l-250 768zM856 2138q22 0 49 -12q6 -3 15 -9t21 -16t22.5 -19t27 -24.5t27.5 -25.5t31 -29t30 -29q39 -37 131 -133
q-26 8 -73 23.5t-66 21.5q-77 25 -221 62q-144 -37 -221 -62q-18 -6 -66 -21.5t-74 -23.5q81 85 132 133q147 139 176 152q24 12 49 12h4h6z" />
    <glyph glyph-name="uni1EA9" unicode="&#x1ea9;" horiz-adv-x="1355" 
d="M963 1815q109 0 171 -43t62 -107q0 -38 -14.5 -67.5t-38 -47t-51.5 -31.5t-55 -25.5t-48.5 -24t-33 -32.5t-7.5 -46h-16q-6 34 2 59.5t25 44t34.5 38.5t31.5 54.5t15 81.5q2 55 -17 92t-60 37q-90 0 -134 -53q48 18 82.5 -3t34.5 -56q0 -32 -23.5 -52t-54.5 -20
q-33 0 -57.5 19t-24.5 48q0 63 56 98.5t121 35.5zM969 186v652q-153 166 -373 166q-54 0 -96 -36.5t-66 -90.5t-40 -124t-21.5 -129.5t-5.5 -115.5q0 -41 0.5 -69.5t5 -84t13 -95.5t25.5 -88.5t40.5 -79.5t60.5 -52t84 -21q218 0 373 168zM1278 1006h-45v-986h45v-18h-354
v18h45v140q-154 -160 -373 -160q-40 0 -98 10q-186 44 -299 182.5t-113 317.5q0 180 115 320.5t293 177.5q66 14 102 14q107 0 203.5 -41.5t169.5 -116.5v142h-45v18h354v-18zM684 1436q20 0 49 -13q27 -12 174 -151q39 -37 131 -133q-26 8 -73 23.5t-66 21.5
q-64 21 -221 61q-157 -40 -221 -61q-18 -6 -66 -21.5t-74 -23.5q81 85 132 133q145 137 176 151q26 13 49 13h4h6z" />
    <glyph glyph-name="uni1EAA" unicode="&#x1eaa;" 
d="M823 2449q34 0 76 -13.5t148 -61.5q33 -13 74 -15.5t77 16t39 60.5l14 2q3 -65 -37.5 -119.5t-99.5 -83t-117 -28.5q-40 0 -78.5 16t-173.5 82q-54 14 -102 -12.5t-55 -79.5h-17q0 97 79 167t173 70zM1473 23h53v-23h-424v23h49l-168 524h-543l-194 -527h49v-20h-121v20
h49l631 1729zM446 567h533l-250 768zM856 2138q22 0 49 -12q6 -3 15 -9t21 -16t22.5 -19t27 -24.5t27.5 -25.5t31 -29t30 -29q39 -37 131 -133q-26 8 -73 23.5t-66 21.5q-77 25 -221 62q-144 -37 -221 -62q-18 -6 -66 -21.5t-74 -23.5q81 85 132 133q147 139 176 152
q24 12 49 12h4h6z" />
    <glyph glyph-name="uni1EAB" unicode="&#x1eab;" horiz-adv-x="1355" 
d="M651 1747q33 0 74 -14t149 -62q33 -13 74.5 -15t77.5 16.5t39 60.5l14 2q4 -97 -79 -164.5t-175 -67.5q-37 0 -71.5 13.5t-141.5 66.5q-8 4 -12.5 6t-12.5 6l-14 7q-54 14 -102 -13t-55 -80h-17q0 98 79.5 168t172.5 70zM969 186v652q-153 166 -373 166q-54 0 -96 -36.5
t-66 -90.5t-40 -124t-21.5 -129.5t-5.5 -115.5q0 -41 0.5 -69.5t5 -84t13 -95.5t25.5 -88.5t40.5 -79.5t60.5 -52t84 -21q218 0 373 168zM1278 1006h-45v-986h45v-18h-354v18h45v140q-154 -160 -373 -160q-40 0 -98 10q-186 44 -299 182.5t-113 317.5q0 180 115 320.5
t293 177.5q66 14 102 14q107 0 203.5 -41.5t169.5 -116.5v142h-45v18h354v-18zM684 1436q20 0 49 -13q27 -12 174 -151q39 -37 131 -133q-26 8 -73 23.5t-66 21.5q-64 21 -221 61q-157 -40 -221 -61q-18 -6 -66 -21.5t-74 -23.5q81 85 132 133q145 137 176 151q26 13 49 13
h4h6z" />
    <glyph glyph-name="uni1EAC" unicode="&#x1eac;" 
d="M731 -406q-54 0 -92.5 38t-38.5 92t38.5 92.5t92.5 38.5t92.5 -38.5t38.5 -92.5t-38.5 -92t-92.5 -38zM1473 23h53v-23h-424v23h49l-168 524h-543l-194 -527h49v-20h-121v20h49l631 1729zM446 567h533l-250 768zM856 2138q22 0 49 -12q6 -3 15 -9t21 -16t22.5 -19
t27 -24.5t27.5 -25.5t31 -29t30 -29q39 -37 131 -133q-26 8 -73 23.5t-66 21.5q-77 25 -221 62q-144 -37 -221 -62q-18 -6 -66 -21.5t-74 -23.5q81 85 132 133q147 139 176 152q24 12 49 12h4h6z" />
    <glyph glyph-name="uni1EAD" unicode="&#x1ead;" horiz-adv-x="1355" 
d="M655 -406q-54 0 -92.5 38t-38.5 92t38.5 92.5t92.5 38.5t92.5 -38.5t38.5 -92.5t-38.5 -92t-92.5 -38zM969 186v652q-153 166 -373 166q-54 0 -96 -36.5t-66 -90.5t-40 -124t-21.5 -129.5t-5.5 -115.5q0 -41 0.5 -69.5t5 -84t13 -95.5t25.5 -88.5t40.5 -79.5t60.5 -52
t84 -21q218 0 373 168zM1278 1006h-45v-986h45v-18h-354v18h45v140q-154 -160 -373 -160q-40 0 -98 10q-186 44 -299 182.5t-113 317.5q0 180 115 320.5t293 177.5q66 14 102 14q107 0 203.5 -41.5t169.5 -116.5v142h-45v18h354v-18zM684 1436q20 0 49 -13q27 -12 174 -151
q39 -37 131 -133q-26 8 -73 23.5t-66 21.5q-64 21 -221 61q-157 -40 -221 -61q-18 -6 -66 -21.5t-74 -23.5q81 85 132 133q145 137 176 151q26 13 49 13h4h6z" />
    <glyph glyph-name="uni1EAE" unicode="&#x1eae;" 
d="M1026 2400q38 20 85 3t67 -60t3.5 -87t-59.5 -63q-34 -15 -219 -36q-135 -15 -174 -19q69 69 127 121q135 125 170 141zM850 1821q-115 0 -213.5 77t-147.5 220q89 -86 171.5 -113t189.5 -31q107 4 189 31t171 113q-49 -143 -147 -220t-213 -77zM1473 23h53v-23h-424v23
h49l-168 524h-543l-194 -527h49v-20h-121v20h49l631 1729zM446 567h533l-250 768z" />
    <glyph glyph-name="uni1EAF" unicode="&#x1eaf;" horiz-adv-x="1355" 
d="M854 1720q38 20 85 3t67 -60t3.5 -87t-59.5 -63q-34 -15 -219 -36q-135 -15 -174 -19q69 69 127 121q135 125 170 141zM678 1141q-115 0 -213.5 77t-147.5 220q89 -86 171.5 -113t189.5 -31q107 4 189 31t171 113q-49 -143 -147 -220t-213 -77zM969 186v652
q-153 166 -373 166q-54 0 -96 -36.5t-66 -90.5t-40 -124t-21.5 -129.5t-5.5 -115.5q0 -41 0.5 -69.5t5 -84t13 -95.5t25.5 -88.5t40.5 -79.5t60.5 -52t84 -21q218 0 373 168zM1278 1006h-45v-986h45v-18h-354v18h45v140q-154 -160 -373 -160q-40 0 -98 10
q-186 44 -299 182.5t-113 317.5q0 180 115 320.5t293 177.5q66 14 102 14q107 0 203.5 -41.5t169.5 -116.5v142h-45v18h354v-18z" />
    <glyph glyph-name="uni1EB0" unicode="&#x1eb0;" 
d="M674 2400q40 -21 170 -141q58 -52 127 -121q-39 4 -174 19q-185 21 -219 36q-43 19 -59.5 63t3.5 87t67 60t85 -3zM850 1821q-115 0 -213.5 77t-147.5 220q89 -86 171.5 -113t189.5 -31q107 4 189 31t171 113q-49 -143 -147 -220t-213 -77zM1473 23h53v-23h-424v23h49
l-168 524h-543l-194 -527h49v-20h-121v20h49l631 1729zM446 567h533l-250 768z" />
    <glyph glyph-name="uni1EB1" unicode="&#x1eb1;" horiz-adv-x="1355" 
d="M502 1720q40 -21 170 -141q59 -52 127 -121q-39 4 -174 19q-185 21 -219 36q-43 19 -59.5 63t3.5 87t67 60t85 -3zM678 1141q-115 0 -213.5 77t-147.5 220q89 -86 171.5 -113t189.5 -31q107 4 189 31t171 113q-49 -143 -147 -220t-213 -77zM969 186v652
q-153 166 -373 166q-54 0 -96 -36.5t-66 -90.5t-40 -124t-21.5 -129.5t-5.5 -115.5q0 -41 0.5 -69.5t5 -84t13 -95.5t25.5 -88.5t40.5 -79.5t60.5 -52t84 -21q218 0 373 168zM1278 1006h-45v-986h45v-18h-354v18h45v140q-154 -160 -373 -160q-40 0 -98 10
q-186 44 -299 182.5t-113 317.5q0 180 115 320.5t293 177.5q66 14 102 14q107 0 203.5 -41.5t169.5 -116.5v142h-45v18h354v-18z" />
    <glyph glyph-name="uni1EB2" unicode="&#x1eb2;" 
d="M872 2519q109 0 171.5 -42.5t62.5 -106.5q0 -52 -27.5 -88t-66 -54t-76 -33.5t-60.5 -39.5t-18 -60h-16q-6 35 2 60t25 44t34.5 39t31.5 54.5t15 81.5q2 55 -17.5 92t-60.5 37q-88 0 -133 -54q48 18 82.5 -3t34.5 -56q0 -32 -23.5 -52t-54.5 -20q-33 0 -57.5 19.5
t-24.5 48.5q0 63 55.5 98t120.5 35zM850 1821q-115 0 -213.5 77t-147.5 220q89 -86 171.5 -113t189.5 -31q107 4 189 31t171 113q-49 -143 -147 -220t-213 -77zM1473 23h53v-23h-424v23h49l-168 524h-543l-194 -527h49v-20h-121v20h49l631 1729zM446 567h533l-250 768z" />
    <glyph glyph-name="uni1EB3" unicode="&#x1eb3;" horiz-adv-x="1355" 
d="M700 1839q109 0 171.5 -42.5t62.5 -106.5q0 -52 -27.5 -88t-66 -54t-76 -33.5t-60.5 -39.5t-18 -60h-16q-6 35 2 60t25 44t34.5 39t31.5 54.5t15 81.5q2 55 -17.5 92t-60.5 37q-88 0 -133 -54q48 18 82.5 -3t34.5 -56q0 -32 -23.5 -52t-54.5 -20q-33 0 -57.5 19.5
t-24.5 48.5q0 63 55.5 98t120.5 35zM678 1141q-115 0 -213.5 77t-147.5 220q89 -86 171.5 -113t189.5 -31q107 4 189 31t171 113q-49 -143 -147 -220t-213 -77zM969 186v652q-153 166 -373 166q-54 0 -96 -36.5t-66 -90.5t-40 -124t-21.5 -129.5t-5.5 -115.5
q0 -41 0.5 -69.5t5 -84t13 -95.5t25.5 -88.5t40.5 -79.5t60.5 -52t84 -21q218 0 373 168zM1278 1006h-45v-986h45v-18h-354v18h45v140q-154 -160 -373 -160q-40 0 -98 10q-186 44 -299 182.5t-113 317.5q0 180 115 320.5t293 177.5q66 14 102 14q107 0 203.5 -41.5
t169.5 -116.5v142h-45v18h354v-18z" />
    <glyph glyph-name="uni1EB4" unicode="&#x1eb4;" 
d="M821 2413q33 0 74 -14t149 -62q33 -13 74.5 -15.5t77.5 16t39 60.5l14 2q3 -65 -37.5 -119.5t-99.5 -83t-117 -28.5q-40 0 -78.5 16t-173.5 82q-54 14 -102 -12.5t-55 -79.5h-17q0 98 79.5 168t172.5 70zM850 1821q-115 0 -213.5 77t-147.5 220q89 -86 171.5 -113
t189.5 -31q107 4 189 31t171 113q-49 -143 -147 -220t-213 -77zM1473 23h53v-23h-424v23h49l-168 524h-543l-194 -527h49v-20h-121v20h49l631 1729zM446 567h533l-250 768z" />
    <glyph glyph-name="uni1EB5" unicode="&#x1eb5;" horiz-adv-x="1355" 
d="M649 1733q33 0 74 -14t149 -62q33 -13 74.5 -15.5t77.5 16t39 60.5l14 2q3 -65 -37.5 -119.5t-99.5 -83t-117 -28.5q-40 0 -78.5 16t-173.5 82q-54 14 -102 -12.5t-55 -79.5h-17q0 98 79.5 168t172.5 70zM678 1141q-115 0 -213.5 77t-147.5 220q89 -86 171.5 -113
t189.5 -31q107 4 189 31t171 113q-49 -143 -147 -220t-213 -77zM969 186v652q-153 166 -373 166q-54 0 -96 -36.5t-66 -90.5t-40 -124t-21.5 -129.5t-5.5 -115.5q0 -41 0.5 -69.5t5 -84t13 -95.5t25.5 -88.5t40.5 -79.5t60.5 -52t84 -21q218 0 373 168zM1278 1006h-45v-986
h45v-18h-354v18h45v140q-154 -160 -373 -160q-40 0 -98 10q-186 44 -299 182.5t-113 317.5q0 180 115 320.5t293 177.5q66 14 102 14q107 0 203.5 -41.5t169.5 -116.5v142h-45v18h354v-18z" />
    <glyph glyph-name="uni1EB6" unicode="&#x1eb6;" 
d="M731 -406q-54 0 -92.5 38t-38.5 92t38.5 92.5t92.5 38.5t92.5 -38.5t38.5 -92.5t-38.5 -92t-92.5 -38zM850 1821q-115 0 -213.5 77t-147.5 220q89 -86 171.5 -113t189.5 -31q107 4 189 31t171 113q-49 -143 -147 -220t-213 -77zM1473 23h53v-23h-424v23h49l-168 524h-543
l-194 -527h49v-20h-121v20h49l631 1729zM446 567h533l-250 768z" />
    <glyph glyph-name="uni1EB7" unicode="&#x1eb7;" horiz-adv-x="1355" 
d="M655 -406q-54 0 -92.5 38t-38.5 92t38.5 92.5t92.5 38.5t92.5 -38.5t38.5 -92.5t-38.5 -92t-92.5 -38zM678 1141q-115 0 -213.5 77t-147.5 220q89 -86 171.5 -113t189.5 -31q107 4 189 31t171 113q-49 -143 -147 -220t-213 -77zM969 186v652q-153 166 -373 166
q-54 0 -96 -36.5t-66 -90.5t-40 -124t-21.5 -129.5t-5.5 -115.5q0 -41 0.5 -69.5t5 -84t13 -95.5t25.5 -88.5t40.5 -79.5t60.5 -52t84 -21q218 0 373 168zM1278 1006h-45v-986h45v-18h-354v18h45v140q-154 -160 -373 -160q-40 0 -98 10q-186 44 -299 182.5t-113 317.5
q0 180 115 320.5t293 177.5q66 14 102 14q107 0 203.5 -41.5t169.5 -116.5v142h-45v18h354v-18z" />
    <glyph glyph-name="uni1EB8" unicode="&#x1eb8;" horiz-adv-x="1224" 
d="M610 -406q-54 0 -92.5 38t-38.5 92t38.5 92.5t92.5 38.5t92.5 -38.5t38.5 -92.5t-38.5 -92t-92.5 -38zM125 1745h975v-66h-17v43h-624v-852h514v31h20v-84h-20v29h-514v-826h624v48h17v-70h-975v22h59v1702h-59v23z" />
    <glyph glyph-name="uni1EB9" unicode="&#x1eb9;" horiz-adv-x="1294" 
d="M645 -406q-54 0 -92.5 38t-38.5 92t38.5 92.5t92.5 38.5t92.5 -38.5t38.5 -92.5t-38.5 -92t-92.5 -38zM1149 504h-281h-460q0 -37 1 -70.5t6.5 -85t14.5 -93.5t26.5 -88t41 -77t60 -51.5t81.5 -20.5q130 0 240.5 61t177.5 173h22q-73 -121 -188.5 -186.5t-251.5 -65.5
q-67 0 -125 14q-172 41 -280.5 181t-108.5 319q0 181 118 323t310 181q21 0 31 2q36 4 55 4q39 0 86 -6q147 -34 256 -129.5t149 -241.5q17 -57 19 -143zM408 520h458q0 211 -71 371q-52 105 -133 115h-23h-25q-17 -2 -33.5 -9t-29.5 -17t-24.5 -22.5t-20.5 -25.5t-16.5 -26
t-12.5 -24t-8.5 -20t-5.5 -14l-2 -4q-41 -128 -53 -324z" />
    <glyph glyph-name="uni1EBA" unicode="&#x1eba;" horiz-adv-x="1224" 
d="M692 2271q109 0 171.5 -42.5t62.5 -106.5q0 -52 -27.5 -88t-66 -54t-76 -33.5t-60.5 -39.5t-18 -60h-16q-6 35 2 60t25 44t34.5 39t31.5 54.5t15 81.5q2 55 -17.5 92t-60.5 37q-89 0 -133 -53q48 18 82.5 -3.5t34.5 -56.5q0 -32 -23.5 -51.5t-54.5 -19.5q-33 0 -57.5 19
t-24.5 48q0 63 55.5 98t120.5 35zM125 1745h975v-66h-17v43h-624v-852h514v31h20v-84h-20v29h-514v-826h624v48h17v-70h-975v22h59v1702h-59v23z" />
    <glyph glyph-name="uni1EBB" unicode="&#x1ebb;" horiz-adv-x="1294" 
d="M680 1583q109 0 171 -42.5t62 -106.5q0 -52 -27.5 -88t-65.5 -54t-75.5 -33.5t-60.5 -39.5t-18 -60h-17q-6 34 2 59.5t25 44.5t35 39t32 54.5t15 81.5q2 55 -17.5 92t-60.5 37q-88 0 -133 -54q48 18 82.5 -3t34.5 -56q0 -32 -23.5 -52t-54.5 -20q-33 0 -57.5 19.5
t-24.5 48.5q0 63 55.5 98t120.5 35zM1149 504h-281h-460q0 -37 1 -70.5t6.5 -85t14.5 -93.5t26.5 -88t41 -77t60 -51.5t81.5 -20.5q130 0 240.5 61t177.5 173h22q-73 -121 -188.5 -186.5t-251.5 -65.5q-67 0 -125 14q-172 41 -280.5 181t-108.5 319q0 181 118 323t310 181
q21 0 31 2q36 4 55 4q39 0 86 -6q147 -34 256 -129.5t149 -241.5q17 -57 19 -143zM408 520h458q0 211 -71 371q-52 105 -133 115h-23h-25q-17 -2 -33.5 -9t-29.5 -17t-24.5 -22.5t-20.5 -25.5t-16.5 -26t-12.5 -24t-8.5 -20t-5.5 -14l-2 -4q-41 -128 -53 -324z" />
    <glyph glyph-name="uni1EBC" unicode="&#x1ebc;" horiz-adv-x="1224" 
d="M524 2105q34 0 76 -13.5t148 -61.5q33 -13 74 -15.5t77 16t39 60.5l14 2q3 -65 -37.5 -119.5t-99.5 -83t-117 -28.5q-40 0 -78.5 16t-173.5 82q-54 14 -102 -12.5t-55 -79.5h-17q0 97 79 167t173 70zM125 1745h975v-66h-17v43h-624v-852h514v31h20v-84h-20v29h-514v-826
h624v48h17v-70h-975v22h59v1702h-59v23z" />
    <glyph glyph-name="uni1EBD" unicode="&#x1ebd;" horiz-adv-x="1294" 
d="M559 1403q33 0 74 -14t149 -62q33 -13 74.5 -15t77.5 16.5t39 60.5l14 2q4 -97 -79 -164.5t-175 -67.5q-40 0 -78.5 16t-173.5 82q-54 14 -102 -12.5t-55 -79.5h-17q0 98 79.5 168t172.5 70zM1149 504h-281h-460q0 -37 1 -70.5t6.5 -85t14.5 -93.5t26.5 -88t41 -77
t60 -51.5t81.5 -20.5q130 0 240.5 61t177.5 173h22q-73 -121 -188.5 -186.5t-251.5 -65.5q-67 0 -125 14q-172 41 -280.5 181t-108.5 319q0 181 118 323t310 181q21 0 31 2q36 4 55 4q39 0 86 -6q147 -34 256 -129.5t149 -241.5q17 -57 19 -143zM408 520h458q0 211 -71 371
q-52 105 -133 115h-23h-25q-17 -2 -33.5 -9t-29.5 -17t-24.5 -22.5t-20.5 -25.5t-16.5 -26t-12.5 -24t-8.5 -20t-5.5 -14l-2 -4q-41 -128 -53 -324z" />
    <glyph glyph-name="uni1EBE" unicode="&#x1ebe;" horiz-adv-x="1224" 
d="M674 2494q38 20 84.5 3t66.5 -60t4 -86.5t-59 -62.5q-37 -17 -219 -37q-135 -15 -174 -19q69 68 127 121q135 125 170 141zM125 1745h975v-66h-17v43h-624v-852h514v31h20v-84h-20v29h-514v-826h624v48h17v-70h-975v22h59v1702h-59v23zM618 2150q23 0 50 -12t174 -151
q28 -27 131 -134q-26 8 -73 23.5t-66 21.5q-74 24 -222 62q-144 -37 -221 -62q-19 -6 -66 -21.5t-73 -23.5q103 107 131 134q145 137 176 151q24 12 49 12h4h6z" />
    <glyph glyph-name="uni1EBF" unicode="&#x1ebf;" horiz-adv-x="1294" 
d="M709 1780q38 20 84.5 2.5t66.5 -60.5t4 -86.5t-59 -62.5q-37 -17 -219 -37q-80 -9 -174 -18q59 59 127 120q137 127 170 142zM1149 504h-281h-460q0 -37 1 -70.5t6.5 -85t14.5 -93.5t26.5 -88t41 -77t60 -51.5t81.5 -20.5q130 0 240.5 61t177.5 173h22
q-73 -121 -188.5 -186.5t-251.5 -65.5q-67 0 -125 14q-172 41 -280.5 181t-108.5 319q0 181 118 323t310 181q21 0 31 2q36 4 55 4q39 0 86 -6q147 -34 256 -129.5t149 -241.5q17 -57 19 -143zM408 520h458q0 211 -71 371q-52 105 -133 115h-23h-25q-17 -2 -33.5 -9
t-29.5 -17t-24.5 -22.5t-20.5 -25.5t-16.5 -26t-12.5 -24t-8.5 -20t-5.5 -14l-2 -4q-41 -128 -53 -324zM653 1436q20 0 49 -13t175 -151q39 -37 131 -133q-26 8 -74 23.5t-66 21.5q-64 21 -221 61q-157 -40 -221 -61q-19 -6 -66 -21.5t-73 -23.5q92 96 131 133
q145 137 176 151q26 13 49 13h4h6z" />
    <glyph glyph-name="uni1EC0" unicode="&#x1ec0;" horiz-adv-x="1224" 
d="M614 2494q40 -21 170 -141q58 -53 127 -121q-39 4 -174 19q-182 20 -219 37q-43 19 -59 62.5t4 86.5t66.5 60t84.5 -3zM125 1745h975v-66h-17v43h-624v-852h514v31h20v-84h-20v29h-514v-826h624v48h17v-70h-975v22h59v1702h-59v23zM618 2150q23 0 50 -12t174 -151
q28 -27 131 -134q-26 8 -73 23.5t-66 21.5q-74 24 -222 62q-144 -37 -221 -62q-19 -6 -66 -21.5t-73 -23.5q103 107 131 134q145 137 176 151q24 12 49 12h4h6z" />
    <glyph glyph-name="uni1EC1" unicode="&#x1ec1;" horiz-adv-x="1294" 
d="M649 1780q38 -20 170 -142q68 -61 127 -120q-94 9 -174 18q-182 20 -219 37q-43 19 -59 62.5t4 86.5t66.5 60.5t84.5 -2.5zM1149 504h-281h-460q0 -37 1 -70.5t6.5 -85t14.5 -93.5t26.5 -88t41 -77t60 -51.5t81.5 -20.5q130 0 240.5 61t177.5 173h22
q-73 -121 -188.5 -186.5t-251.5 -65.5q-67 0 -125 14q-172 41 -280.5 181t-108.5 319q0 181 118 323t310 181q21 0 31 2q36 4 55 4q39 0 86 -6q147 -34 256 -129.5t149 -241.5q17 -57 19 -143zM408 520h458q0 211 -71 371q-52 105 -133 115h-23h-25q-17 -2 -33.5 -9
t-29.5 -17t-24.5 -22.5t-20.5 -25.5t-16.5 -26t-12.5 -24t-8.5 -20t-5.5 -14l-2 -4q-41 -128 -53 -324zM653 1436q20 0 49 -13t175 -151q39 -37 131 -133q-26 8 -74 23.5t-66 21.5q-64 21 -221 61q-157 -40 -221 -61q-19 -6 -66 -21.5t-73 -23.5q92 96 131 133
q145 137 176 151q26 13 49 13h4h6z" />
    <glyph glyph-name="uni1EC2" unicode="&#x1ec2;" horiz-adv-x="1224" 
d="M897 2529q109 0 171 -42.5t62 -106.5q0 -52 -27.5 -88t-65.5 -54t-75.5 -33.5t-60.5 -39.5t-18 -60h-17q-6 34 2 59.5t25 44.5t35 39t32 54.5t15 81.5q2 55 -17.5 92t-60.5 37q-89 0 -133 -53q48 18 82.5 -3.5t34.5 -56.5q0 -32 -23.5 -51.5t-54.5 -19.5q-33 0 -57.5 19
t-24.5 48q0 63 55.5 98t120.5 35zM125 1745h975v-66h-17v43h-624v-852h514v31h20v-84h-20v29h-514v-826h624v48h17v-70h-975v22h59v1702h-59v23zM618 2150q23 0 50 -12t174 -151q28 -27 131 -134q-26 8 -73 23.5t-66 21.5q-74 24 -222 62q-144 -37 -221 -62
q-19 -6 -66 -21.5t-73 -23.5q103 107 131 134q145 137 176 151q24 12 49 12h4h6z" />
    <glyph glyph-name="uni1EC3" unicode="&#x1ec3;" horiz-adv-x="1294" 
d="M932 1815q109 0 171 -43t62 -107q0 -52 -27.5 -88t-65.5 -53.5t-75.5 -33t-60.5 -39.5t-18 -60h-17q-6 34 2 59.5t25 44t35 38.5t32 54.5t15 81.5q2 55 -17.5 92t-60.5 37q-89 0 -133 -53q48 18 82 -3t34 -56q0 -32 -23 -52t-54 -20q-33 0 -57.5 19t-24.5 48
q0 63 56 98.5t120 35.5zM1149 504h-281h-460q0 -37 1 -70.5t6.5 -85t14.5 -93.5t26.5 -88t41 -77t60 -51.5t81.5 -20.5q130 0 240.5 61t177.5 173h22q-73 -121 -188.5 -186.5t-251.5 -65.5q-67 0 -125 14q-172 41 -280.5 181t-108.5 319q0 181 118 323t310 181q21 0 31 2
q36 4 55 4q39 0 86 -6q147 -34 256 -129.5t149 -241.5q17 -57 19 -143zM408 520h458q0 211 -71 371q-52 105 -133 115h-23h-25q-17 -2 -33.5 -9t-29.5 -17t-24.5 -22.5t-20.5 -25.5t-16.5 -26t-12.5 -24t-8.5 -20t-5.5 -14l-2 -4q-41 -128 -53 -324zM653 1436q20 0 49 -13
t175 -151q39 -37 131 -133q-26 8 -74 23.5t-66 21.5q-64 21 -221 61q-157 -40 -221 -61q-19 -6 -66 -21.5t-73 -23.5q92 96 131 133q145 137 176 151q26 13 49 13h4h6z" />
    <glyph glyph-name="uni1EC4" unicode="&#x1ec4;" horiz-adv-x="1224" 
d="M586 2462q33 0 74 -14t149 -62q33 -13 74 -15.5t77 16t39 60.5l15 2q3 -65 -37.5 -119.5t-99.5 -83t-117 -28.5q-40 0 -78.5 16t-173.5 82q-54 14 -102.5 -12.5t-55.5 -79.5h-16q0 98 79.5 168t172.5 70zM125 1745h975v-66h-17v43h-624v-852h514v31h20v-84h-20v29h-514
v-826h624v48h17v-70h-975v22h59v1702h-59v23zM618 2150q23 0 50 -12t174 -151q28 -27 131 -134q-26 8 -73 23.5t-66 21.5q-74 24 -222 62q-144 -37 -221 -62q-19 -6 -66 -21.5t-73 -23.5q103 107 131 134q145 137 176 151q24 12 49 12h4h6z" />
    <glyph glyph-name="uni1EC5" unicode="&#x1ec5;" horiz-adv-x="1294" 
d="M621 1747q33 0 74 -14t149 -62q24 -9 54 -12.5t60.5 0.5t52 23t23.5 51l15 2q4 -97 -79 -164.5t-175 -67.5q-37 0 -71.5 13.5t-141.5 66.5q-8 4 -12.5 6t-12.5 6l-14 7q-54 14 -102.5 -13t-55.5 -80h-16q0 98 79.5 168t172.5 70zM1149 504h-281h-460q0 -37 1 -70.5
t6.5 -85t14.5 -93.5t26.5 -88t41 -77t60 -51.5t81.5 -20.5q130 0 240.5 61t177.5 173h22q-73 -121 -188.5 -186.5t-251.5 -65.5q-67 0 -125 14q-172 41 -280.5 181t-108.5 319q0 181 118 323t310 181q21 0 31 2q36 4 55 4q39 0 86 -6q147 -34 256 -129.5t149 -241.5
q17 -57 19 -143zM408 520h458q0 211 -71 371q-52 105 -133 115h-23h-25q-17 -2 -33.5 -9t-29.5 -17t-24.5 -22.5t-20.5 -25.5t-16.5 -26t-12.5 -24t-8.5 -20t-5.5 -14l-2 -4q-41 -128 -53 -324zM653 1436q20 0 49 -13t175 -151q39 -37 131 -133q-26 8 -74 23.5t-66 21.5
q-64 21 -221 61q-157 -40 -221 -61q-19 -6 -66 -21.5t-73 -23.5q92 96 131 133q145 137 176 151q26 13 49 13h4h6z" />
    <glyph glyph-name="uni1EC6" unicode="&#x1ec6;" horiz-adv-x="1224" 
d="M610 -406q-54 0 -92.5 38t-38.5 92t38.5 92.5t92.5 38.5t92.5 -38.5t38.5 -92.5t-38.5 -92t-92.5 -38zM125 1745h975v-66h-17v43h-624v-852h514v31h20v-84h-20v29h-514v-826h624v48h17v-70h-975v22h59v1702h-59v23zM618 2150q23 0 50 -12t174 -151q28 -27 131 -134
q-26 8 -73 23.5t-66 21.5q-74 24 -222 62q-144 -37 -221 -62q-19 -6 -66 -21.5t-73 -23.5q103 107 131 134q145 137 176 151q24 12 49 12h4h6z" />
    <glyph glyph-name="uni1EC7" unicode="&#x1ec7;" horiz-adv-x="1294" 
d="M645 -406q-54 0 -92.5 38t-38.5 92t38.5 92.5t92.5 38.5t92.5 -38.5t38.5 -92.5t-38.5 -92t-92.5 -38zM1149 504h-281h-460q0 -37 1 -70.5t6.5 -85t14.5 -93.5t26.5 -88t41 -77t60 -51.5t81.5 -20.5q130 0 240.5 61t177.5 173h22q-73 -121 -188.5 -186.5t-251.5 -65.5
q-67 0 -125 14q-172 41 -280.5 181t-108.5 319q0 181 118 323t310 181q21 0 31 2q36 4 55 4q39 0 86 -6q147 -34 256 -129.5t149 -241.5q17 -57 19 -143zM408 520h458q0 211 -71 371q-52 105 -133 115h-23h-25q-17 -2 -33.5 -9t-29.5 -17t-24.5 -22.5t-20.5 -25.5t-16.5 -26
t-12.5 -24t-8.5 -20t-5.5 -14l-2 -4q-41 -128 -53 -324zM653 1436q20 0 49 -13t175 -151q39 -37 131 -133q-26 8 -74 23.5t-66 21.5q-64 21 -221 61q-157 -40 -221 -61q-19 -6 -66 -21.5t-73 -23.5q92 96 131 133q145 137 176 151q26 13 49 13h4h6z" />
    <glyph glyph-name="uni1EC8" unicode="&#x1ec8;" horiz-adv-x="675" 
d="M379 2271q109 0 171 -42.5t62 -106.5q0 -52 -27.5 -88t-65.5 -54t-75.5 -33.5t-60.5 -39.5t-18 -60h-17q-6 34 2 59.5t25 44.5t35 39t32 54.5t15 81.5q2 55 -17.5 92t-60.5 37q-89 0 -133 -53q48 18 82 -3.5t34 -56.5q0 -32 -23 -51.5t-54 -19.5q-33 0 -57.5 19t-24.5 48
q0 63 55.5 98t120.5 35zM481 1724v-1704h60v-20h-396v20h60v1704h-60v21h396v-21h-60z" />
    <glyph glyph-name="uni1EC9" unicode="&#x1ec9;" horiz-adv-x="524" 
d="M387 1006v-988h47v-18h-356v18h47v988h-47v20h356v-20h-47zM283 1583q109 0 171 -42.5t62 -106.5q0 -52 -27.5 -88t-66 -54t-76 -33.5t-60.5 -39.5t-18 -60h-16q-6 35 2 60t25 44t34.5 39t31.5 54.5t15 81.5q2 55 -17 92t-60 37q-88 0 -133 -54q48 18 82 -3t34 -56
q0 -32 -23.5 -52t-54.5 -20q-33 0 -57.5 19.5t-24.5 48.5q0 63 56 98t121 35z" />
    <glyph glyph-name="uni1ECA" unicode="&#x1eca;" horiz-adv-x="675" 
d="M342 -406q-54 0 -92.5 38t-38.5 92t38.5 92.5t92.5 38.5t92.5 -38.5t38.5 -92.5t-38.5 -92t-92.5 -38zM481 1724v-1704h60v-20h-396v20h60v1704h-60v21h396v-21h-60z" />
    <glyph glyph-name="uni1ECB" unicode="&#x1ecb;" horiz-adv-x="524" 
d="M256 -406q-54 0 -92.5 38t-38.5 92t38.5 92.5t92.5 38.5t92.5 -38.5t38.5 -92.5t-38.5 -92t-92.5 -38zM256 1174q-54 0 -92.5 37.5t-38.5 91.5t38.5 92.5t92.5 38.5t92.5 -38.5t38.5 -92.5t-38.5 -91.5t-92.5 -37.5zM387 1006v-988h47v-18h-356v18h47v988h-47v20h356v-20
h-47z" />
    <glyph glyph-name="uni1ECC" unicode="&#x1ecc;" horiz-adv-x="2045" 
d="M1014 -406q-54 0 -92.5 38t-38.5 92t38.5 92.5t92.5 38.5t92.5 -38.5t38.5 -92.5t-38.5 -92t-92.5 -38zM1880 866q0 -135 -44 -265.5t-125 -238t-187.5 -189.5t-238.5 -127.5t-271 -45.5q-168 0 -326 67t-276 181t-190.5 274.5t-74.5 337.5v6q0 170 69.5 329.5
t185.5 277.5t277 189t335 71q166 0 324.5 -68.5t277.5 -183.5t191.5 -276.5t72.5 -338.5zM1014 23q103 0 187 25t142.5 66.5t102 105t69.5 132.5t41.5 157t21 169t5.5 178q0 91 -4 166t-18.5 166.5t-38.5 162t-67.5 140.5t-102 116t-145 74.5t-193.5 28.5q-104 0 -188.5 -27
t-143 -72t-102 -112.5t-68.5 -139t-40.5 -161.5t-20.5 -169t-5 -173q0 -87 4.5 -160.5t19.5 -161.5t39.5 -158t68 -138t101.5 -113.5t143.5 -73.5t191.5 -28z" />
    <glyph glyph-name="uni1ECD" unicode="&#x1ecd;" horiz-adv-x="1179" 
d="M582 -406q-54 0 -92.5 38t-38.5 92t38.5 92.5t92.5 38.5t92.5 -38.5t38.5 -92.5t-38.5 -92t-92.5 -38zM1096 537q0 -228 -147.5 -381.5t-366.5 -153.5q-132 0 -250 67t-191 186.5t-73 260.5q0 181 114.5 324t292.5 180q16 4 60 8q140 11 269 -49.5t210.5 -179
t81.5 -262.5zM582 20q57 0 101 36.5t67.5 89.5t38.5 123.5t19.5 127t4.5 111.5q0 65 -8 134t-27.5 152.5t-64 144t-107.5 75.5q-19 3 -41 0q-56 -14 -99.5 -71.5t-67 -136t-35 -155t-11.5 -143.5v-11q-1 -477 230 -477z" />
    <glyph glyph-name="uni1ECE" unicode="&#x1ece;" horiz-adv-x="2045" 
d="M1038 2271q109 0 171.5 -42.5t62.5 -106.5q0 -52 -27.5 -88t-66 -54t-76 -33.5t-60.5 -39.5t-18 -60h-16q-6 35 2 60t25 44t34.5 39t31.5 54.5t15 81.5q2 55 -17.5 92t-60.5 37q-89 0 -133 -53q48 18 82.5 -3.5t34.5 -56.5q0 -32 -23.5 -51.5t-54.5 -19.5q-33 0 -57.5 19
t-24.5 48q0 63 55.5 98t120.5 35zM1880 866q0 -135 -44 -265.5t-125 -238t-187.5 -189.5t-238.5 -127.5t-271 -45.5q-168 0 -326 67t-276 181t-190.5 274.5t-74.5 337.5v6q0 170 69.5 329.5t185.5 277.5t277 189t335 71q166 0 324.5 -68.5t277.5 -183.5t191.5 -276.5
t72.5 -338.5zM1014 23q103 0 187 25t142.5 66.5t102 105t69.5 132.5t41.5 157t21 169t5.5 178q0 91 -4 166t-18.5 166.5t-38.5 162t-67.5 140.5t-102 116t-145 74.5t-193.5 28.5q-104 0 -188.5 -27t-143 -72t-102 -112.5t-68.5 -139t-40.5 -161.5t-20.5 -169t-5 -173
q0 -87 4.5 -160.5t19.5 -161.5t39.5 -158t68 -138t101.5 -113.5t143.5 -73.5t191.5 -28z" />
    <glyph glyph-name="uni1ECF" unicode="&#x1ecf;" horiz-adv-x="1179" 
d="M631 1583q109 0 171 -42.5t62 -106.5q0 -52 -27.5 -88t-66 -54t-76 -33.5t-60.5 -39.5t-18 -60h-16q-6 34 2 59.5t25 44.5t35 39t32 54.5t15 81.5q2 55 -17.5 92t-60.5 37q-88 0 -133 -54q48 18 82 -3t34 -56q0 -32 -23 -52t-54 -20q-33 0 -57.5 19.5t-24.5 48.5
q0 63 55.5 98t120.5 35zM1096 537q0 -228 -147.5 -381.5t-366.5 -153.5q-132 0 -250 67t-191 186.5t-73 260.5q0 181 114.5 324t292.5 180q16 4 60 8q140 11 269 -49.5t210.5 -179t81.5 -262.5zM582 20q57 0 101 36.5t67.5 89.5t38.5 123.5t19.5 127t4.5 111.5q0 65 -8 134
t-27.5 152.5t-64 144t-107.5 75.5q-19 3 -41 0q-56 -14 -99.5 -71.5t-67 -136t-35 -155t-11.5 -143.5v-11q-1 -477 230 -477z" />
    <glyph glyph-name="uni1ED0" unicode="&#x1ed0;" horiz-adv-x="2045" 
d="M1075 2492q38 20 85 3t67 -60t3.5 -86.5t-59.5 -62.5q-37 -17 -219 -37q-135 -15 -174 -19q69 68 127 121q135 125 170 141zM1880 866q0 -135 -44 -265.5t-125 -238t-187.5 -189.5t-238.5 -127.5t-271 -45.5q-168 0 -326 67t-276 181t-190.5 274.5t-74.5 337.5v6
q0 170 69.5 329.5t185.5 277.5t277 189t335 71q166 0 324.5 -68.5t277.5 -183.5t191.5 -276.5t72.5 -338.5zM1014 23q103 0 187 25t142.5 66.5t102 105t69.5 132.5t41.5 157t21 169t5.5 178q0 91 -4 166t-18.5 166.5t-38.5 162t-67.5 140.5t-102 116t-145 74.5t-193.5 28.5
q-104 0 -188.5 -27t-143 -72t-102 -112.5t-68.5 -139t-40.5 -161.5t-20.5 -169t-5 -173q0 -87 4.5 -160.5t19.5 -161.5t39.5 -158t68 -138t101.5 -113.5t143.5 -73.5t191.5 -28zM1020 2148q22 0 49 -12t174 -151q28 -27 131 -134q-26 8 -73 23.5t-66 21.5q-77 25 -221 62
q-144 -37 -221 -62q-18 -6 -66 -21.5t-74 -23.5q103 107 131 134q144 136 177 151q24 12 49 12h4h6z" />
    <glyph glyph-name="uni1ED1" unicode="&#x1ed1;" horiz-adv-x="1179" 
d="M645 1780q38 20 85 2.5t67 -60.5t3.5 -86.5t-59.5 -62.5q-37 -17 -219 -37q-80 -9 -174 -18q59 59 127 120q137 127 170 142zM1096 537q0 -228 -147.5 -381.5t-366.5 -153.5q-132 0 -250 67t-191 186.5t-73 260.5q0 181 114.5 324t292.5 180q16 4 60 8q140 11 269 -49.5
t210.5 -179t81.5 -262.5zM582 20q57 0 101 36.5t67.5 89.5t38.5 123.5t19.5 127t4.5 111.5q0 65 -8 134t-27.5 152.5t-64 144t-107.5 75.5q-19 3 -41 0q-56 -14 -99.5 -71.5t-67 -136t-35 -155t-11.5 -143.5v-11q-1 -477 230 -477zM590 1436q20 0 49 -13q27 -12 174 -151
q39 -37 131 -133q-26 8 -73 23.5t-66 21.5q-64 21 -221 61q-162 -41 -222 -61q-19 -6 -66 -21.5t-73 -23.5q92 96 131 133q145 137 176 151q26 13 50 13h4h6z" />
    <glyph glyph-name="uni1ED2" unicode="&#x1ed2;" horiz-adv-x="2045" 
d="M1016 2492q40 -21 170 -141q58 -53 127 -121q-39 4 -174 19q-182 20 -219 37q-43 19 -59.5 62.5t3.5 86.5t67 60t85 -3zM1880 866q0 -135 -44 -265.5t-125 -238t-187.5 -189.5t-238.5 -127.5t-271 -45.5q-168 0 -326 67t-276 181t-190.5 274.5t-74.5 337.5v6
q0 170 69.5 329.5t185.5 277.5t277 189t335 71q166 0 324.5 -68.5t277.5 -183.5t191.5 -276.5t72.5 -338.5zM1014 23q103 0 187 25t142.5 66.5t102 105t69.5 132.5t41.5 157t21 169t5.5 178q0 91 -4 166t-18.5 166.5t-38.5 162t-67.5 140.5t-102 116t-145 74.5t-193.5 28.5
q-104 0 -188.5 -27t-143 -72t-102 -112.5t-68.5 -139t-40.5 -161.5t-20.5 -169t-5 -173q0 -87 4.5 -160.5t19.5 -161.5t39.5 -158t68 -138t101.5 -113.5t143.5 -73.5t191.5 -28zM1020 2148q22 0 49 -12t174 -151q28 -27 131 -134q-26 8 -73 23.5t-66 21.5q-77 25 -221 62
q-144 -37 -221 -62q-18 -6 -66 -21.5t-74 -23.5q103 107 131 134q144 136 177 151q24 12 49 12h4h6z" />
    <glyph glyph-name="uni1ED3" unicode="&#x1ed3;" horiz-adv-x="1179" 
d="M586 1780q38 -20 170 -142q68 -61 127 -120q-95 9 -174 18q-183 20 -220 37q-43 19 -59 62.5t4 86.5t67 60.5t85 -2.5zM1096 537q0 -228 -147.5 -381.5t-366.5 -153.5q-132 0 -250 67t-191 186.5t-73 260.5q0 181 114.5 324t292.5 180q16 4 60 8q140 11 269 -49.5
t210.5 -179t81.5 -262.5zM582 20q57 0 101 36.5t67.5 89.5t38.5 123.5t19.5 127t4.5 111.5q0 65 -8 134t-27.5 152.5t-64 144t-107.5 75.5q-19 3 -41 0q-56 -14 -99.5 -71.5t-67 -136t-35 -155t-11.5 -143.5v-11q-1 -477 230 -477zM590 1436q20 0 49 -13q27 -12 174 -151
q39 -37 131 -133q-26 8 -73 23.5t-66 21.5q-64 21 -221 61q-162 -41 -222 -61q-19 -6 -66 -21.5t-73 -23.5q92 96 131 133q145 137 176 151q26 13 50 13h4h6z" />
    <glyph glyph-name="uni1ED4" unicode="&#x1ed4;" horiz-adv-x="2045" 
d="M1298 2527q109 0 171.5 -42.5t62.5 -106.5q0 -52 -27.5 -88t-66 -54t-76 -33.5t-60.5 -39.5t-18 -60h-16q-6 35 2 60t25 44t34.5 39t31.5 54.5t15 81.5q2 55 -17.5 92t-60.5 37q-89 0 -133 -53q48 18 82.5 -3.5t34.5 -56.5q0 -32 -23.5 -51.5t-54.5 -19.5q-33 0 -57.5 19
t-24.5 48q0 63 55.5 98t120.5 35zM1880 866q0 -135 -44 -265.5t-125 -238t-187.5 -189.5t-238.5 -127.5t-271 -45.5q-168 0 -326 67t-276 181t-190.5 274.5t-74.5 337.5v6q0 170 69.5 329.5t185.5 277.5t277 189t335 71q166 0 324.5 -68.5t277.5 -183.5t191.5 -276.5
t72.5 -338.5zM1014 23q103 0 187 25t142.5 66.5t102 105t69.5 132.5t41.5 157t21 169t5.5 178q0 91 -4 166t-18.5 166.5t-38.5 162t-67.5 140.5t-102 116t-145 74.5t-193.5 28.5q-104 0 -188.5 -27t-143 -72t-102 -112.5t-68.5 -139t-40.5 -161.5t-20.5 -169t-5 -173
q0 -87 4.5 -160.5t19.5 -161.5t39.5 -158t68 -138t101.5 -113.5t143.5 -73.5t191.5 -28zM1020 2148q22 0 49 -12t174 -151q28 -27 131 -134q-26 8 -73 23.5t-66 21.5q-77 25 -221 62q-144 -37 -221 -62q-18 -6 -66 -21.5t-74 -23.5q103 107 131 134q144 136 177 151
q24 12 49 12h4h6z" />
    <glyph glyph-name="uni1ED5" unicode="&#x1ed5;" horiz-adv-x="1179" 
d="M868 1815q109 0 171.5 -43t62.5 -107q0 -38 -14.5 -67.5t-38 -47t-51.5 -31.5t-55 -25.5t-48.5 -24t-33 -32.5t-7.5 -46h-16q-6 34 2 59.5t25 44t34.5 38.5t31.5 54.5t15 81.5q2 55 -17.5 92t-60.5 37q-89 0 -133 -53q48 18 82.5 -3t34.5 -56q0 -32 -23.5 -52t-54.5 -20
q-33 0 -57.5 19t-24.5 48q0 63 56 98.5t120 35.5zM1096 537q0 -228 -147.5 -381.5t-366.5 -153.5q-132 0 -250 67t-191 186.5t-73 260.5q0 181 114.5 324t292.5 180q16 4 60 8q140 11 269 -49.5t210.5 -179t81.5 -262.5zM582 20q57 0 101 36.5t67.5 89.5t38.5 123.5
t19.5 127t4.5 111.5q0 65 -8 134t-27.5 152.5t-64 144t-107.5 75.5q-19 3 -41 0q-56 -14 -99.5 -71.5t-67 -136t-35 -155t-11.5 -143.5v-11q-1 -477 230 -477zM590 1436q20 0 49 -13q27 -12 174 -151q39 -37 131 -133q-26 8 -73 23.5t-66 21.5q-64 21 -221 61
q-162 -41 -222 -61q-19 -6 -66 -21.5t-73 -23.5q92 96 131 133q145 137 176 151q26 13 50 13h4h6z" />
    <glyph glyph-name="uni1ED6" unicode="&#x1ed6;" horiz-adv-x="2045" 
d="M987 2460q33 0 74 -14t149 -62q33 -13 74.5 -15.5t77.5 16t39 60.5l14 2q3 -65 -37.5 -119.5t-99.5 -83t-117 -28.5q-40 0 -78.5 16t-173.5 82q-54 14 -102 -12.5t-55 -79.5h-17q0 98 79.5 168t172.5 70zM1880 866q0 -135 -44 -265.5t-125 -238t-187.5 -189.5
t-238.5 -127.5t-271 -45.5q-168 0 -326 67t-276 181t-190.5 274.5t-74.5 337.5v6q0 170 69.5 329.5t185.5 277.5t277 189t335 71q166 0 324.5 -68.5t277.5 -183.5t191.5 -276.5t72.5 -338.5zM1014 23q103 0 187 25t142.5 66.5t102 105t69.5 132.5t41.5 157t21 169t5.5 178
q0 91 -4 166t-18.5 166.5t-38.5 162t-67.5 140.5t-102 116t-145 74.5t-193.5 28.5q-104 0 -188.5 -27t-143 -72t-102 -112.5t-68.5 -139t-40.5 -161.5t-20.5 -169t-5 -173q0 -87 4.5 -160.5t19.5 -161.5t39.5 -158t68 -138t101.5 -113.5t143.5 -73.5t191.5 -28zM1020 2148
q22 0 49 -12t174 -151q28 -27 131 -134q-26 8 -73 23.5t-66 21.5q-77 25 -221 62q-144 -37 -221 -62q-18 -6 -66 -21.5t-74 -23.5q103 107 131 134q144 136 177 151q24 12 49 12h4h6z" />
    <glyph glyph-name="uni1ED7" unicode="&#x1ed7;" horiz-adv-x="1179" 
d="M557 1747q33 0 74 -14t149 -62q33 -13 74.5 -15t77.5 16.5t39 60.5l14 2q4 -97 -79 -164.5t-175 -67.5q-37 0 -71.5 13.5t-141.5 66.5q-8 4 -12.5 6t-12.5 6l-14 7q-54 14 -102 -13t-55 -80h-17q0 98 79.5 168t172.5 70zM1096 537q0 -228 -147.5 -381.5t-366.5 -153.5
q-132 0 -250 67t-191 186.5t-73 260.5q0 181 114.5 324t292.5 180q16 4 60 8q140 11 269 -49.5t210.5 -179t81.5 -262.5zM582 20q57 0 101 36.5t67.5 89.5t38.5 123.5t19.5 127t4.5 111.5q0 65 -8 134t-27.5 152.5t-64 144t-107.5 75.5q-19 3 -41 0q-56 -14 -99.5 -71.5
t-67 -136t-35 -155t-11.5 -143.5v-11q-1 -477 230 -477zM590 1436q20 0 49 -13q27 -12 174 -151q39 -37 131 -133q-26 8 -73 23.5t-66 21.5q-64 21 -221 61q-162 -41 -222 -61q-19 -6 -66 -21.5t-73 -23.5q92 96 131 133q145 137 176 151q26 13 50 13h4h6z" />
    <glyph glyph-name="uni1ED8" unicode="&#x1ed8;" horiz-adv-x="2045" 
d="M1014 -406q-54 0 -92.5 38t-38.5 92t38.5 92.5t92.5 38.5t92.5 -38.5t38.5 -92.5t-38.5 -92t-92.5 -38zM1880 866q0 -135 -44 -265.5t-125 -238t-187.5 -189.5t-238.5 -127.5t-271 -45.5q-168 0 -326 67t-276 181t-190.5 274.5t-74.5 337.5v6q0 170 69.5 329.5
t185.5 277.5t277 189t335 71q166 0 324.5 -68.5t277.5 -183.5t191.5 -276.5t72.5 -338.5zM1014 23q103 0 187 25t142.5 66.5t102 105t69.5 132.5t41.5 157t21 169t5.5 178q0 91 -4 166t-18.5 166.5t-38.5 162t-67.5 140.5t-102 116t-145 74.5t-193.5 28.5q-104 0 -188.5 -27
t-143 -72t-102 -112.5t-68.5 -139t-40.5 -161.5t-20.5 -169t-5 -173q0 -87 4.5 -160.5t19.5 -161.5t39.5 -158t68 -138t101.5 -113.5t143.5 -73.5t191.5 -28zM1020 2148q22 0 49 -12t174 -151q28 -27 131 -134q-26 8 -73 23.5t-66 21.5q-77 25 -221 62q-144 -37 -221 -62
q-18 -6 -66 -21.5t-74 -23.5q103 107 131 134q144 136 177 151q24 12 49 12h4h6z" />
    <glyph glyph-name="uni1ED9" unicode="&#x1ed9;" horiz-adv-x="1179" 
d="M582 -406q-54 0 -92.5 38t-38.5 92t38.5 92.5t92.5 38.5t92.5 -38.5t38.5 -92.5t-38.5 -92t-92.5 -38zM1096 537q0 -228 -147.5 -381.5t-366.5 -153.5q-132 0 -250 67t-191 186.5t-73 260.5q0 181 114.5 324t292.5 180q16 4 60 8q140 11 269 -49.5t210.5 -179
t81.5 -262.5zM582 20q57 0 101 36.5t67.5 89.5t38.5 123.5t19.5 127t4.5 111.5q0 65 -8 134t-27.5 152.5t-64 144t-107.5 75.5q-19 3 -41 0q-56 -14 -99.5 -71.5t-67 -136t-35 -155t-11.5 -143.5v-11q-1 -477 230 -477zM590 1436q20 0 49 -13q27 -12 174 -151
q39 -37 131 -133q-26 8 -73 23.5t-66 21.5q-64 21 -221 61q-162 -41 -222 -61q-19 -6 -66 -21.5t-73 -23.5q92 96 131 133q145 137 176 151q26 13 50 13h4h6z" />
    <glyph glyph-name="uni1EDA" unicode="&#x1eda;" horiz-adv-x="2045" 
d="M1143 2124q38 20 84.5 2.5t66.5 -60.5t4 -86.5t-59 -62.5q-37 -17 -219 -37q-80 -9 -174 -18q59 59 127 120q137 127 170 142zM1880 866q0 -135 -44 -265.5t-125 -238t-187.5 -189.5t-238.5 -127.5t-271 -45.5q-168 0 -326 67t-276 181t-190.5 274.5t-74.5 337.5v6
q0 170 69.5 329.5t185.5 277.5t277 189t335 71q260 0 489 -160q90 44 90 80q0 31 -14 55t-31 37t-31 37t-14 55q0 47 29.5 77t79.5 30q48 0 73 -32t25 -85q0 -78 -53.5 -150t-138.5 -114q165 -123 263.5 -305.5t98.5 -391.5zM1014 23q103 0 187 25t142.5 66.5t102 105
t69.5 132.5t41.5 157t21 169t5.5 178q0 91 -4 166t-18.5 166.5t-38.5 162t-67.5 140.5t-102 116t-145 74.5t-193.5 28.5q-104 0 -188.5 -27t-143 -72t-102 -112.5t-68.5 -139t-40.5 -161.5t-20.5 -169t-5 -173q0 -87 4.5 -160.5t19.5 -161.5t39.5 -158t68 -138t101.5 -113.5
t143.5 -73.5t191.5 -28z" />
    <glyph glyph-name="uni1EDB" unicode="&#x1edb;" horiz-adv-x="1179" 
d="M690 1427q38 20 85 3t67 -60t3.5 -86.5t-59.5 -62.5q-37 -17 -219 -37q-135 -15 -174 -19q68 68 127 121q135 125 170 141zM1096 537q0 -228 -147.5 -381.5t-366.5 -153.5q-132 0 -250 67t-191 186.5t-73 260.5q0 181 114.5 324t292.5 180q16 4 60 8q119 9 232 -35.5
t196 -130.5q79 40 79 76q0 31 -14 55t-31 37t-31 37t-14 55q0 47 29.5 77t79.5 30q48 0 73 -32t25 -85q0 -77 -51.5 -147.5t-134.5 -114.5q123 -140 123 -313zM582 20q57 0 101 36.5t67.5 89.5t38.5 123.5t19.5 127t4.5 111.5q0 65 -8 134t-27.5 152.5t-64 144t-107.5 75.5
q-19 3 -41 0q-56 -14 -99.5 -71.5t-67 -136t-35 -155t-11.5 -143.5v-11q-1 -477 230 -477z" />
    <glyph glyph-name="uni1EDC" unicode="&#x1edc;" horiz-adv-x="2045" 
d="M901 2136q40 -21 170 -141q59 -53 127 -121q-94 9 -174 18q-182 20 -219 37q-43 19 -59 63t4 87t66.5 60t84.5 -3zM1880 866q0 -135 -44 -265.5t-125 -238t-187.5 -189.5t-238.5 -127.5t-271 -45.5q-168 0 -326 67t-276 181t-190.5 274.5t-74.5 337.5v6q0 170 69.5 329.5
t185.5 277.5t277 189t335 71q260 0 489 -160q90 44 90 80q0 31 -14 55t-31 37t-31 37t-14 55q0 47 29.5 77t79.5 30q48 0 73 -32t25 -85q0 -78 -53.5 -150t-138.5 -114q165 -123 263.5 -305.5t98.5 -391.5zM1014 23q103 0 187 25t142.5 66.5t102 105t69.5 132.5t41.5 157
t21 169t5.5 178q0 91 -4 166t-18.5 166.5t-38.5 162t-67.5 140.5t-102 116t-145 74.5t-193.5 28.5q-104 0 -188.5 -27t-143 -72t-102 -112.5t-68.5 -139t-40.5 -161.5t-20.5 -169t-5 -173q0 -87 4.5 -160.5t19.5 -161.5t39.5 -158t68 -138t101.5 -113.5t143.5 -73.5
t191.5 -28z" />
    <glyph glyph-name="uni1EDD" unicode="&#x1edd;" horiz-adv-x="1179" 
d="M489 1427q40 -21 170 -141q59 -53 127 -121q-39 4 -174 19q-182 20 -219 37q-43 19 -59 62.5t4 86.5t66.5 60t84.5 -3zM1096 537q0 -228 -147.5 -381.5t-366.5 -153.5q-132 0 -250 67t-191 186.5t-73 260.5q0 181 114.5 324t292.5 180q16 4 60 8q119 9 232 -35.5
t196 -130.5q79 40 79 76q0 31 -14 55t-31 37t-31 37t-14 55q0 47 29.5 77t79.5 30q48 0 73 -32t25 -85q0 -77 -51.5 -147.5t-134.5 -114.5q123 -140 123 -313zM582 20q57 0 101 36.5t67.5 89.5t38.5 123.5t19.5 127t4.5 111.5q0 65 -8 134t-27.5 152.5t-64 144t-107.5 75.5
q-19 3 -41 0q-56 -14 -99.5 -71.5t-67 -136t-35 -155t-11.5 -143.5v-11q-1 -477 230 -477z" />
    <glyph glyph-name="uni1EDE" unicode="&#x1ede;" horiz-adv-x="2045" 
d="M1038 2271q109 0 171.5 -42.5t62.5 -106.5q0 -52 -27.5 -88t-66 -54t-76 -33.5t-60.5 -39.5t-18 -60h-16q-6 35 2 60t25 44t34.5 39t31.5 54.5t15 81.5q2 55 -17.5 92t-60.5 37q-89 0 -133 -53q48 18 82.5 -3.5t34.5 -56.5q0 -32 -23.5 -51.5t-54.5 -19.5q-33 0 -57.5 19
t-24.5 48q0 63 55.5 98t120.5 35zM1880 866q0 -135 -44 -265.5t-125 -238t-187.5 -189.5t-238.5 -127.5t-271 -45.5q-168 0 -326 67t-276 181t-190.5 274.5t-74.5 337.5v6q0 170 69.5 329.5t185.5 277.5t277 189t335 71q260 0 489 -160q90 44 90 80q0 31 -14 55t-31 37
t-31 37t-14 55q0 47 29.5 77t79.5 30q48 0 73 -32t25 -85q0 -78 -53.5 -150t-138.5 -114q165 -123 263.5 -305.5t98.5 -391.5zM1014 23q103 0 187 25t142.5 66.5t102 105t69.5 132.5t41.5 157t21 169t5.5 178q0 91 -4 166t-18.5 166.5t-38.5 162t-67.5 140.5t-102 116
t-145 74.5t-193.5 28.5q-104 0 -188.5 -27t-143 -72t-102 -112.5t-68.5 -139t-40.5 -161.5t-20.5 -169t-5 -173q0 -87 4.5 -160.5t19.5 -161.5t39.5 -158t68 -138t101.5 -113.5t143.5 -73.5t191.5 -28z" />
    <glyph glyph-name="uni1EDF" unicode="&#x1edf;" horiz-adv-x="1179" 
d="M631 1583q109 0 171 -42.5t62 -106.5q0 -52 -27.5 -88t-66 -54t-76 -33.5t-60.5 -39.5t-18 -60h-16q-6 34 2 59.5t25 44.5t35 39t32 54.5t15 81.5q2 55 -17.5 92t-60.5 37q-88 0 -133 -54q48 18 82 -3t34 -56q0 -32 -23 -52t-54 -20q-33 0 -57.5 19.5t-24.5 48.5
q0 63 55.5 98t120.5 35zM1096 537q0 -228 -147.5 -381.5t-366.5 -153.5q-132 0 -250 67t-191 186.5t-73 260.5q0 181 114.5 324t292.5 180q16 4 60 8q119 9 232 -35.5t196 -130.5q79 40 79 76q0 31 -14 55t-31 37t-31 37t-14 55q0 47 29.5 77t79.5 30q48 0 73 -32t25 -85
q0 -77 -51.5 -147.5t-134.5 -114.5q123 -140 123 -313zM582 20q57 0 101 36.5t67.5 89.5t38.5 123.5t19.5 127t4.5 111.5q0 65 -8 134t-27.5 152.5t-64 144t-107.5 75.5q-19 3 -41 0q-56 -14 -99.5 -71.5t-67 -136t-35 -155t-11.5 -143.5v-11q-1 -477 230 -477z" />
    <glyph glyph-name="uni1EE0" unicode="&#x1ee0;" horiz-adv-x="2045" 
d="M932 2105q34 0 75.5 -13.5t147.5 -61.5q33 -13 74.5 -15.5t77.5 16t39 60.5l14 2q3 -65 -37.5 -119.5t-99.5 -83t-117 -28.5q-40 0 -78.5 16t-173.5 82q-54 14 -102.5 -12.5t-55.5 -79.5h-16q0 97 79 167t173 70zM1880 866q0 -135 -44 -265.5t-125 -238t-187.5 -189.5
t-238.5 -127.5t-271 -45.5q-168 0 -326 67t-276 181t-190.5 274.5t-74.5 337.5v6q0 170 69.5 329.5t185.5 277.5t277 189t335 71q260 0 489 -160q90 44 90 80q0 31 -14 55t-31 37t-31 37t-14 55q0 47 29.5 77t79.5 30q48 0 73 -32t25 -85q0 -78 -53.5 -150t-138.5 -114
q165 -123 263.5 -305.5t98.5 -391.5zM1014 23q103 0 187 25t142.5 66.5t102 105t69.5 132.5t41.5 157t21 169t5.5 178q0 91 -4 166t-18.5 166.5t-38.5 162t-67.5 140.5t-102 116t-145 74.5t-193.5 28.5q-104 0 -188.5 -27t-143 -72t-102 -112.5t-68.5 -139t-40.5 -161.5
t-20.5 -169t-5 -173q0 -87 4.5 -160.5t19.5 -161.5t39.5 -158t68 -138t101.5 -113.5t143.5 -73.5t191.5 -28z" />
    <glyph glyph-name="uni1EE1" unicode="&#x1ee1;" horiz-adv-x="1179" 
d="M500 1403q33 0 74 -14t149 -62q24 -9 54 -12.5t60.5 0.5t52 23t23.5 51l15 2q4 -97 -79 -164.5t-175 -67.5q-40 0 -78.5 16t-173.5 82q-54 14 -102.5 -12.5t-55.5 -79.5h-16q0 98 79.5 168t172.5 70zM1096 537q0 -228 -147.5 -381.5t-366.5 -153.5q-132 0 -250 67
t-191 186.5t-73 260.5q0 181 114.5 324t292.5 180q16 4 60 8q119 9 232 -35.5t196 -130.5q79 40 79 76q0 31 -14 55t-31 37t-31 37t-14 55q0 47 29.5 77t79.5 30q48 0 73 -32t25 -85q0 -77 -51.5 -147.5t-134.5 -114.5q123 -140 123 -313zM582 20q57 0 101 36.5t67.5 89.5
t38.5 123.5t19.5 127t4.5 111.5q0 65 -8 134t-27.5 152.5t-64 144t-107.5 75.5q-19 3 -41 0q-56 -14 -99.5 -71.5t-67 -136t-35 -155t-11.5 -143.5v-11q-1 -477 230 -477z" />
    <glyph glyph-name="uni1EE2" unicode="&#x1ee2;" horiz-adv-x="2045" 
d="M1014 -406q-54 0 -92.5 38t-38.5 92t38.5 92.5t92.5 38.5t92.5 -38.5t38.5 -92.5t-38.5 -92t-92.5 -38zM1880 866q0 -135 -44 -265.5t-125 -238t-187.5 -189.5t-238.5 -127.5t-271 -45.5q-168 0 -326 67t-276 181t-190.5 274.5t-74.5 337.5v6q0 170 69.5 329.5
t185.5 277.5t277 189t335 71q260 0 489 -160q90 44 90 80q0 31 -14 55t-31 37t-31 37t-14 55q0 47 29.5 77t79.5 30q48 0 73 -32t25 -85q0 -78 -53.5 -150t-138.5 -114q165 -123 263.5 -305.5t98.5 -391.5zM1014 23q103 0 187 25t142.5 66.5t102 105t69.5 132.5t41.5 157
t21 169t5.5 178q0 91 -4 166t-18.5 166.5t-38.5 162t-67.5 140.5t-102 116t-145 74.5t-193.5 28.5q-104 0 -188.5 -27t-143 -72t-102 -112.5t-68.5 -139t-40.5 -161.5t-20.5 -169t-5 -173q0 -87 4.5 -160.5t19.5 -161.5t39.5 -158t68 -138t101.5 -113.5t143.5 -73.5
t191.5 -28z" />
    <glyph glyph-name="uni1EE3" unicode="&#x1ee3;" horiz-adv-x="1179" 
d="M582 -406q-54 0 -92.5 38t-38.5 92t38.5 92.5t92.5 38.5t92.5 -38.5t38.5 -92.5t-38.5 -92t-92.5 -38zM1096 537q0 -228 -147.5 -381.5t-366.5 -153.5q-132 0 -250 67t-191 186.5t-73 260.5q0 181 114.5 324t292.5 180q16 4 60 8q119 9 232 -35.5t196 -130.5q79 40 79 76
q0 31 -14 55t-31 37t-31 37t-14 55q0 47 29.5 77t79.5 30q48 0 73 -32t25 -85q0 -77 -51.5 -147.5t-134.5 -114.5q123 -140 123 -313zM582 20q57 0 101 36.5t67.5 89.5t38.5 123.5t19.5 127t4.5 111.5q0 65 -8 134t-27.5 152.5t-64 144t-107.5 75.5q-19 3 -41 0
q-56 -14 -99.5 -71.5t-67 -136t-35 -155t-11.5 -143.5v-11q-1 -477 230 -477z" />
    <glyph glyph-name="uni1EE4" unicode="&#x1ee4;" horiz-adv-x="1562" 
d="M799 -406q-54 0 -92.5 38t-38.5 92t38.5 92.5t92.5 38.5t92.5 -38.5t38.5 -92.5t-38.5 -92t-92.5 -38zM793 23q235 0 392 153t177 406h22q0 -245 -186 -424q-76 -75 -177 -116.5t-212 -41.5q-157 0 -284.5 80.5t-200 213.5t-84.5 292v1134h-76v25h428v-25h-80v-1196
q10 -167 96 -342q87 -148 185 -159zM1436 1745v-23h-52v-1140h-22v1140h-49v23h123z" />
    <glyph glyph-name="uni1EE5" unicode="&#x1ee5;" horiz-adv-x="1267" 
d="M618 -406q-54 0 -92.5 38t-38.5 92t38.5 92.5t92.5 38.5t93 -38.5t39 -92.5t-39 -92t-93 -38zM1135 1004v-988h45v-16h-357v16h43v111q-127 -127 -307 -127q-123 0 -224.5 63.5t-159.5 168t-66 227.5v545h-50v18h342v-18h-47v-594q2 -37 8.5 -80t21.5 -101t36.5 -103.5
t58 -77.5t80.5 -32q183 0 307 134v854h-43v18h357v-18h-45z" />
    <glyph glyph-name="uni1EE6" unicode="&#x1ee6;" horiz-adv-x="1562" 
d="M928 2271q109 0 171 -42.5t62 -106.5q0 -52 -27.5 -88t-66 -54t-76 -33.5t-60.5 -39.5t-18 -60h-16q-6 34 2 59.5t25 44.5t35 39t32 54.5t15 81.5q2 55 -17.5 92t-60.5 37q-89 0 -133 -53q48 18 82 -3.5t34 -56.5q0 -32 -23 -51.5t-54 -19.5q-33 0 -57.5 19t-24.5 48
q0 63 55.5 98t120.5 35zM793 23q235 0 392 153t177 406h22q0 -245 -186 -424q-76 -75 -177 -116.5t-212 -41.5q-157 0 -284.5 80.5t-200 213.5t-84.5 292v1134h-76v25h428v-25h-80v-1196q10 -167 96 -342q87 -148 185 -159zM1436 1745v-23h-52v-1140h-22v1140h-49v23h123z
" />
    <glyph glyph-name="uni1EE7" unicode="&#x1ee7;" horiz-adv-x="1267" 
d="M643 1583q109 0 171.5 -42.5t62.5 -106.5q0 -52 -27.5 -88t-66 -54t-76 -33.5t-60.5 -39.5t-18 -60h-17q-6 34 2 59.5t25 44.5t35 39t32 54.5t15 81.5q2 55 -17.5 92t-60.5 37q-88 0 -133 -54q48 18 82.5 -3t34.5 -56q0 -32 -23.5 -52t-54.5 -20q-33 0 -57.5 19.5
t-24.5 48.5q0 63 55.5 98t120.5 35zM1135 1004v-988h45v-16h-357v16h43v111q-127 -127 -307 -127q-123 0 -224.5 63.5t-159.5 168t-66 227.5v545h-50v18h342v-18h-47v-594q2 -37 8.5 -80t21.5 -101t36.5 -103.5t58 -77.5t80.5 -32q183 0 307 134v854h-43v18h357v-18h-45z
" />
    <glyph glyph-name="uni1EE8" unicode="&#x1ee8;" horiz-adv-x="1562" 
d="M983 2146q38 20 85 3t67 -60t3.5 -87t-59.5 -63q-34 -15 -219 -36q-135 -15 -174 -19q68 69 127 121q135 125 170 141zM1384 1745v-182q49 20 81 44t32 46q0 31 -14 55t-31 37t-31 37t-14 55q0 47 29.5 77t79.5 30q48 0 73 -32t25 -85q0 -86 -65.5 -165t-164.5 -116v-964
q0 -245 -186 -424q-76 -75 -177 -116.5t-212 -41.5q-157 0 -284.5 80.5t-200 213.5t-84.5 292v1134h-76v25h428v-25h-80v-1196q10 -167 96 -342q87 -148 185 -159q235 0 392 153t177 406v1140h-49v23h71z" />
    <glyph glyph-name="uni1EE9" unicode="&#x1ee9;" horiz-adv-x="1267" 
d="M754 1427q38 20 84.5 3t66.5 -60t4 -86.5t-59 -62.5q-37 -17 -219 -37q-135 -15 -174 -19q69 68 127 121q135 125 170 141zM1157 1122q0 47 29.5 77t79.5 30q48 0 73 -32t25 -85q0 -87 -64.5 -165.5t-164.5 -117.5v-813h45v-16h-357v16h43v111q-127 -127 -307 -127
q-123 0 -224.5 63.5t-159.5 168t-66 227.5v545h-50v18h342v-18h-47v-594q2 -37 8.5 -80t21.5 -101t36.5 -103.5t58 -77.5t80.5 -32q183 0 307 134v854h-43v18h312v-174q48 20 80 44.5t32 45.5q0 31 -14 55t-31 37t-31 37t-14 55z" />
    <glyph glyph-name="uni1EEA" unicode="&#x1eea;" horiz-adv-x="1562" 
d="M721 2109q40 -21 170 -141q58 -53 127 -121q-39 4 -174 19q-182 20 -219 37q-43 19 -59.5 62.5t3.5 86.5t67 60t85 -3zM1384 1745v-182q49 20 81 44t32 46q0 31 -14 55t-31 37t-31 37t-14 55q0 47 29.5 77t79.5 30q48 0 73 -32t25 -85q0 -86 -65.5 -165t-164.5 -116v-964
q0 -245 -186 -424q-76 -75 -177 -116.5t-212 -41.5q-157 0 -284.5 80.5t-200 213.5t-84.5 292v1134h-76v25h428v-25h-80v-1196q10 -167 96 -342q87 -148 185 -159q235 0 392 153t177 406v1140h-49v23h71z" />
    <glyph glyph-name="uni1EEB" unicode="&#x1eeb;" horiz-adv-x="1267" 
d="M512 1427q40 -21 170 -141q58 -53 127 -121q-39 4 -174 19q-182 20 -219 37q-43 19 -59.5 62.5t3.5 86.5t67 60t85 -3zM1157 1122q0 47 29.5 77t79.5 30q48 0 73 -32t25 -85q0 -87 -64.5 -165.5t-164.5 -117.5v-813h45v-16h-357v16h43v111q-127 -127 -307 -127
q-123 0 -224.5 63.5t-159.5 168t-66 227.5v545h-50v18h342v-18h-47v-594q2 -37 8.5 -80t21.5 -101t36.5 -103.5t58 -77.5t80.5 -32q183 0 307 134v854h-43v18h312v-174q48 20 80 44.5t32 45.5q0 31 -14 55t-31 37t-31 37t-14 55z" />
    <glyph glyph-name="uni1EEC" unicode="&#x1eec;" horiz-adv-x="1562" 
d="M928 2271q109 0 171 -42.5t62 -106.5q0 -52 -27.5 -88t-66 -54t-76 -33.5t-60.5 -39.5t-18 -60h-16q-6 34 2 59.5t25 44.5t35 39t32 54.5t15 81.5q2 55 -17.5 92t-60.5 37q-89 0 -133 -53q48 18 82 -3.5t34 -56.5q0 -32 -23 -51.5t-54 -19.5q-33 0 -57.5 19t-24.5 48
q0 63 55.5 98t120.5 35zM1384 1745v-182q49 20 81 44t32 46q0 31 -14 55t-31 37t-31 37t-14 55q0 47 29.5 77t79.5 30q48 0 73 -32t25 -85q0 -86 -65.5 -165t-164.5 -116v-964q0 -245 -186 -424q-76 -75 -177 -116.5t-212 -41.5q-157 0 -284.5 80.5t-200 213.5t-84.5 292
v1134h-76v25h428v-25h-80v-1196q10 -167 96 -342q87 -148 185 -159q235 0 392 153t177 406v1140h-49v23h71z" />
    <glyph glyph-name="uni1EED" unicode="&#x1eed;" horiz-adv-x="1267" 
d="M643 1583q109 0 171.5 -42.5t62.5 -106.5q0 -52 -27.5 -88t-66 -54t-76 -33.5t-60.5 -39.5t-18 -60h-17q-6 34 2 59.5t25 44.5t35 39t32 54.5t15 81.5q2 55 -17.5 92t-60.5 37q-88 0 -133 -54q48 18 82.5 -3t34.5 -56q0 -32 -23.5 -52t-54.5 -20q-33 0 -57.5 19.5
t-24.5 48.5q0 63 55.5 98t120.5 35zM1157 1122q0 47 29.5 77t79.5 30q48 0 73 -32t25 -85q0 -87 -64.5 -165.5t-164.5 -117.5v-813h45v-16h-357v16h43v111q-127 -127 -307 -127q-123 0 -224.5 63.5t-159.5 168t-66 227.5v545h-50v18h342v-18h-47v-594q2 -37 8.5 -80
t21.5 -101t36.5 -103.5t58 -77.5t80.5 -32q183 0 307 134v854h-43v18h312v-174q48 20 80 44.5t32 45.5q0 31 -14 55t-31 37t-31 37t-14 55z" />
    <glyph glyph-name="uni1EEE" unicode="&#x1eee;" horiz-adv-x="1562" 
d="M762 2105q34 0 75.5 -13.5t147.5 -61.5q33 -13 74.5 -15.5t77.5 16t39 60.5l14 2q3 -65 -37.5 -119.5t-99.5 -83t-117 -28.5q-40 0 -78.5 16t-173.5 82q-54 14 -102.5 -12.5t-55.5 -79.5h-16q0 97 79 167t173 70zM1384 1745v-182q49 20 81 44t32 46q0 31 -14 55t-31 37
t-31 37t-14 55q0 47 29.5 77t79.5 30q48 0 73 -32t25 -85q0 -86 -65.5 -165t-164.5 -116v-964q0 -245 -186 -424q-76 -75 -177 -116.5t-212 -41.5q-157 0 -284.5 80.5t-200 213.5t-84.5 292v1134h-76v25h428v-25h-80v-1196q10 -167 96 -342q87 -148 185 -159q235 0 392 153
t177 406v1140h-49v23h71z" />
    <glyph glyph-name="uni1EEF" unicode="&#x1eef;" horiz-adv-x="1267" 
d="M545 1403q33 0 74 -14t149 -62q24 -9 54 -12.5t60.5 0.5t52 23t23.5 51l15 2q4 -97 -79 -164.5t-175 -67.5q-40 0 -78.5 16t-173.5 82q-54 14 -102.5 -12.5t-55.5 -79.5h-16q0 98 79.5 168t172.5 70zM1157 1122q0 47 29.5 77t79.5 30q48 0 73 -32t25 -85
q0 -87 -64.5 -165.5t-164.5 -117.5v-813h45v-16h-357v16h43v111q-127 -127 -307 -127q-123 0 -224.5 63.5t-159.5 168t-66 227.5v545h-50v18h342v-18h-47v-594q2 -37 8.5 -80t21.5 -101t36.5 -103.5t58 -77.5t80.5 -32q183 0 307 134v854h-43v18h312v-174q48 20 80 44.5
t32 45.5q0 31 -14 55t-31 37t-31 37t-14 55z" />
    <glyph glyph-name="uni1EF0" unicode="&#x1ef0;" horiz-adv-x="1562" 
d="M799 -406q-54 0 -92.5 38t-38.5 92t38.5 92.5t92.5 38.5t92.5 -38.5t38.5 -92.5t-38.5 -92t-92.5 -38zM1384 1745v-182q49 20 81 44t32 46q0 31 -14 55t-31 37t-31 37t-14 55q0 47 29.5 77t79.5 30q48 0 73 -32t25 -85q0 -86 -65.5 -165t-164.5 -116v-964
q0 -245 -186 -424q-76 -75 -177 -116.5t-212 -41.5q-157 0 -284.5 80.5t-200 213.5t-84.5 292v1134h-76v25h428v-25h-80v-1196q10 -167 96 -342q87 -148 185 -159q235 0 392 153t177 406v1140h-49v23h71z" />
    <glyph glyph-name="uni1EF1" unicode="&#x1ef1;" horiz-adv-x="1267" 
d="M618 -406q-54 0 -92.5 38t-38.5 92t38.5 92.5t92.5 38.5t93 -38.5t39 -92.5t-39 -92t-93 -38zM1157 1122q0 47 29.5 77t79.5 30q48 0 73 -32t25 -85q0 -87 -64.5 -165.5t-164.5 -117.5v-813h45v-16h-357v16h43v111q-127 -127 -307 -127q-123 0 -224.5 63.5t-159.5 168
t-66 227.5v545h-50v18h342v-18h-47v-594q2 -37 8.5 -80t21.5 -101t36.5 -103.5t58 -77.5t80.5 -32q183 0 307 134v854h-43v18h312v-174q48 20 80 44.5t32 45.5q0 31 -14 55t-31 37t-31 37t-14 55z" />
    <glyph glyph-name="Ygrave" unicode="&#x1ef2;" horiz-adv-x="1325" 
d="M598 2109q40 -21 170 -141q58 -53 127 -121q-39 4 -174 19q-182 20 -219 37q-43 19 -59.5 62.5t3.5 86.5t67 60t85 -3zM1102 1749h96v-18h-39l-350 -857v-856h53v-18h-387v18h60v723l-400 990h-43v18h393v-18h-43l346 -857h3l348 857h-37v18z" />
    <glyph glyph-name="ygrave" unicode="&#x1ef3;" horiz-adv-x="1146" 
d="M512 1427q40 -21 170 -141q58 -53 127 -121q-39 4 -174 19q-182 20 -219 37q-43 19 -59.5 62.5t3.5 86.5t67 60t85 -3zM1077 1024v-16h-22l-660 -1588q-26 -63 -59 -100t-88 -37q-56 0 -95.5 39.5t-39.5 95.5q0 57 39.5 96.5t95.5 39.5q54 0 92 -36.5t43 -90.5l246 593
l-408 988h-35v16h320v-16h-35l281 -689l286 689h-41v16h80z" />
    <glyph glyph-name="uni1EF4" unicode="&#x1ef4;" horiz-adv-x="1325" 
d="M672 -406q-54 0 -92.5 38t-38.5 92t38.5 92.5t92.5 38.5t92.5 -38.5t38.5 -92.5t-38.5 -92t-92.5 -38zM1102 1749h96v-18h-39l-350 -857v-856h53v-18h-387v18h60v723l-400 990h-43v18h393v-18h-43l346 -857h3l348 857h-37v18z" />
    <glyph glyph-name="uni1EF5" unicode="&#x1ef5;" horiz-adv-x="1146" 
d="M860 -406q-54 0 -92.5 38t-38.5 92t38.5 92.5t92.5 38.5t92.5 -38.5t38.5 -92.5t-38.5 -92t-92.5 -38zM1077 1024v-16h-22l-660 -1588q-26 -63 -59 -100t-88 -37q-56 0 -95.5 39.5t-39.5 95.5q0 57 39.5 96.5t95.5 39.5q54 0 92 -36.5t43 -90.5l246 593l-408 988h-35v16
h320v-16h-35l281 -689l286 689h-41v16h80z" />
    <glyph glyph-name="uni1EF6" unicode="&#x1ef6;" horiz-adv-x="1325" 
d="M715 2271q109 0 171 -42.5t62 -106.5q0 -52 -27.5 -88t-66 -54t-76 -33.5t-60.5 -39.5t-18 -60h-16q-6 34 2 59.5t25 44.5t35 39t32 54.5t15 81.5q2 55 -17.5 92t-60.5 37q-89 0 -133 -53q48 18 82 -3.5t34 -56.5q0 -32 -23 -51.5t-54 -19.5q-33 0 -57.5 19t-24.5 48
q0 63 55.5 98t120.5 35zM1102 1749h96v-18h-39l-350 -857v-856h53v-18h-387v18h60v723l-400 990h-43v18h393v-18h-43l346 -857h3l348 857h-37v18z" />
    <glyph glyph-name="uni1EF7" unicode="&#x1ef7;" horiz-adv-x="1146" 
d="M711 1583q109 0 171 -42.5t62 -106.5q0 -52 -27.5 -88t-66 -54t-76 -33.5t-60.5 -39.5t-18 -60h-16q-6 35 2 60t25 44t34.5 39t31.5 54.5t15 81.5q2 55 -17 92t-60 37q-88 0 -133 -54q48 18 82 -3t34 -56q0 -32 -23.5 -52t-54.5 -20q-33 0 -57 19.5t-24 48.5
q0 63 55.5 98t120.5 35zM1077 1024v-16h-22l-660 -1588q-26 -63 -59 -100t-88 -37q-56 0 -95.5 39.5t-39.5 95.5q0 57 39.5 96.5t95.5 39.5q54 0 92 -36.5t43 -90.5l246 593l-408 988h-35v16h320v-16h-35l281 -689l286 689h-41v16h80z" />
    <glyph glyph-name="uni1EF8" unicode="&#x1ef8;" horiz-adv-x="1325" 
d="M608 2105q34 0 75.5 -13.5t147.5 -61.5q33 -13 74.5 -15.5t77.5 16t39 60.5l14 2q3 -65 -37.5 -119.5t-99.5 -83t-117 -28.5q-40 0 -78.5 16t-173.5 82q-54 14 -102 -12.5t-55 -79.5h-17q0 97 79 167t173 70zM1102 1749h96v-18h-39l-350 -857v-856h53v-18h-387v18h60v723
l-400 990h-43v18h393v-18h-43l346 -857h3l348 857h-37v18z" />
    <glyph glyph-name="uni1EF9" unicode="&#x1ef9;" horiz-adv-x="1146" 
d="M571 1403q33 0 75 -14t149 -62q24 -9 54 -12.5t60.5 0.5t52 23t23.5 51l14 2q4 -97 -79 -164.5t-175 -67.5q-38 0 -72.5 13.5t-145.5 68.5q-7 3 -11 5t-10.5 5t-11.5 6q-54 14 -102.5 -12.5t-55.5 -79.5h-17q0 98 79.5 168t172.5 70zM1077 1024v-16h-22l-660 -1588
q-26 -63 -59 -100t-88 -37q-56 0 -95.5 39.5t-39.5 95.5q0 57 39.5 96.5t95.5 39.5q54 0 92 -36.5t43 -90.5l246 593l-408 988h-35v16h320v-16h-35l281 -689l286 689h-41v16h80z" />
    <glyph glyph-name="endash" unicode="&#x2013;" horiz-adv-x="1136" 
d="M1012 608h-895v19h895v-19z" />
    <glyph glyph-name="emdash" unicode="&#x2014;" horiz-adv-x="1296" 
d="M1217 598h-1102v18h1102v-18z" />
    <glyph glyph-name="quoteleft" unicode="&#x2018;" horiz-adv-x="462" 
d="M274 1509q27 -45 76 -206q8 -29 26.5 -89t24.5 -81q-95 65 -143 102q-148 110 -170 143q-30 37 -22 83.5t49 72.5q39 28 86.5 19.5t72.5 -44.5z" />
    <glyph glyph-name="quoteright" unicode="&#x2019;" horiz-adv-x="454" 
d="M195 1569q25 36 72.5 44t86.5 -20q41 -26 49 -72t-22 -83q-23 -35 -170 -144q-48 -37 -143 -102q6 21 24.5 81t26.5 89q53 172 76 207z" />
    <glyph glyph-name="quotesinglbase" unicode="&#x201a;" horiz-adv-x="460" 
d="M203 133q25 36 72.5 44.5t86.5 -19.5q41 -26 49 -72.5t-22 -83.5q-22 -33 -170 -143q-60 -46 -143 -103q6 21 24.5 81t26.5 89q53 172 76 207z" />
    <glyph glyph-name="quotedblleft" unicode="&#x201c;" horiz-adv-x="745" 
d="M532 1653q26 -44 76 -207q8 -29 26.5 -89t24.5 -81q-95 65 -143 102q-147 109 -170 144q-30 37 -22 83t49 72q39 28 86.5 20t72.5 -44zM293 1501q26 -44 76 -207q8 -29 26.5 -89t24.5 -81q-93 64 -144 103q-148 110 -170 143q-30 37 -22 83.5t49 72.5q39 28 87 19.5
t73 -44.5z" />
    <glyph glyph-name="quotedblright" unicode="&#x201d;" horiz-adv-x="727" 
d="M195 1653q25 36 72.5 44t86.5 -20q41 -26 49 -72t-22 -83q-23 -35 -170 -144q-48 -37 -143 -102q6 21 24.5 81t26.5 89q53 172 76 207zM434 1501q25 36 73 44.5t87 -19.5q41 -26 49 -72.5t-22 -83.5q-22 -33 -170 -143q-51 -39 -144 -103q6 21 24.5 81t26.5 89
q53 172 76 207z" />
    <glyph glyph-name="quotedblbase" unicode="&#x201e;" horiz-adv-x="794" 
d="M229 133q25 36 73 44.5t87 -19.5q41 -26 49 -72.5t-22 -83.5q-22 -33 -170 -143q-51 -39 -144 -103q8 25 26 83.5t26 86.5q54 175 75 207zM469 -18q25 36 73 44t87 -20q41 -26 48.5 -72.5t-22.5 -83.5q-22 -33 -170 -143q-48 -37 -143 -102q6 21 24.5 81t26.5 89
q53 172 76 207z" />
    <glyph glyph-name="bullet" unicode="&#x2022;" horiz-adv-x="563" 
d="M283 772q60 0 102.5 -44.5t42.5 -106.5t-42 -104t-103 -42q-62 0 -107 42t-45 104q0 61 45 106t107 45z" />
    <glyph glyph-name="ellipsis" unicode="&#x2026;" horiz-adv-x="1087" 
d="M180 233q49 0 83 -35t34 -83q0 -51 -33.5 -84t-83.5 -33q-48 0 -83.5 33.5t-35.5 83.5q0 47 36 82.5t83 35.5zM543 233q49 0 82.5 -35t33.5 -83q0 -51 -33 -84t-83 -33q-48 0 -83.5 33.5t-35.5 83.5q0 47 36 82.5t83 35.5zM905 233q49 0 83 -35t34 -83q0 -51 -33.5 -84
t-83.5 -33q-48 0 -83.5 33.5t-35.5 83.5q0 47 36 82.5t83 35.5z" />
    <glyph glyph-name="CR" horiz-adv-x="1024" 
 />
    </font>
</defs>
</svg>
